<?xml version="1.0" encoding="iso-8859-1"?>
<!-- Generator: Adobe Illustrator 24.3.0, SVG Export Plug-In . SVG Version: 6.00 Build 0)  -->
<svg version="1.1" xmlns="http://www.w3.org/2000/svg" xmlns:xlink="http://www.w3.org/1999/xlink" x="0px" y="0px"
	 viewBox="0 0 1000 1000" style="enable-background:new 0 0 1000 1000;" xml:space="preserve">
<g id="notSign">
	<g>
		<path d="M624.874,491.684c-20.88,0.001-39.602-14.61-44.015-35.859c-9.115-43.897-13.124-89.338-12.229-140.221
			c-57.969,1.961-122.81,3.177-197.135-2.763c-24.774-1.98-43.252-23.668-41.272-48.442s23.665-43.256,48.442-41.272
			c80.489,6.432,150.806,3.869,212.847,1.605c7.746-0.282,15.339-0.559,22.779-0.813c12.762-0.427,25.104,4.572,33.956,13.772
			c8.853,9.2,13.381,21.727,12.456,34.46c-4.606,63.449-1.977,115.997,8.277,165.373c5.053,24.334-10.577,48.156-34.911,53.209
			C630.984,491.376,627.905,491.684,624.874,491.684z"/>
	</g>
</g>
<g id="&#x30EC;&#x30A4;&#x30E4;&#x30FC;_1">
</g>
</svg>
