<?xml version="1.0" encoding="iso-8859-1"?>
<!-- Generator: Adobe Illustrator 24.3.0, SVG Export Plug-In . SVG Version: 6.00 Build 0)  -->
<svg version="1.1" xmlns="http://www.w3.org/2000/svg" xmlns:xlink="http://www.w3.org/1999/xlink" x="0px" y="0px"
	 viewBox="0 0 1000 1000" style="enable-background:new 0 0 1000 1000;" xml:space="preserve">
<g id="pilcrowSign">
	<g>
		<g>
			<path d="M697.91,491.05c-6.65-132.88-24.47-237.36-54.5-319.41c-6.07-16.59-21.28-28.09-38.89-29.41
				c-50.25-3.77-72.23-3.66-131.12,4.34c-0.62,0.08-1.24,0.18-1.85,0.29c-39.16,6.99-79.65,25.37-111.08,50.41
				c-37.68,30.02-58.44,66.14-58.44,101.71c0,26.16,10.03,49.46,28.99,67.39c18.38,17.39,44.98,29.26,79.07,35.28
				c19.09,3.38,40.47,4.98,63.79,4.8c2.62,28.47,4.15,58.24,4.15,88.55c0,24.85,20.15,45,45,45c24.85,0,45-20.15,45-45
				c0-88.68-12.2-184.81-33.15-264.56c11.51-0.69,21.77-0.74,33.24-0.29c21.14,69.16,34.54,158.24,39.9,265.4
				c1.21,24.05,21.09,42.75,44.91,42.75c0.76,0,1.52-0.02,2.28-0.06C680.04,537,699.15,515.87,697.91,491.05z M392.12,300.19
				c-0.03-0.15-0.09-0.52-0.09-1.21c0-3.84,6-16.56,24.52-31.32c8.93-7.12,19.23-13.47,30.08-18.7
				c5.27,19.74,10.41,42.48,14.96,67.42C412.89,315.19,394.39,303.72,392.12,300.19z"/>
		</g>
	</g>
</g>
<g id="&#x30EC;&#x30A4;&#x30E4;&#x30FC;_1">
</g>
</svg>
