<?xml version="1.0" encoding="iso-8859-1"?>
<!-- Generator: Adobe Illustrator 24.3.0, SVG Export Plug-In . SVG Version: 6.00 Build 0)  -->
<svg version="1.1" xmlns="http://www.w3.org/2000/svg" xmlns:xlink="http://www.w3.org/1999/xlink" x="0px" y="0px"
	 viewBox="0 0 1000 1000" style="enable-background:new 0 0 1000 1000;" xml:space="preserve">
<g id="rightPointingDoubleAngleQuotationMark">
	<g>
		<g>
			<path d="M302.596,548.491c-9.493,0.001-19.062-2.991-27.202-9.18c-19.784-15.042-23.628-43.273-8.587-63.058
				c32.771-43.103,75.688-85.05,114.735-119.413c-30.887-17.347-67.81-28.359-116.998-35.636
				c-24.585-3.637-41.567-26.516-37.93-51.101c3.637-24.585,26.51-41.567,51.101-37.93c64.725,9.575,139.921,27.652,206.901,89.122
				c9.649,8.855,14.961,21.475,14.551,34.564s-6.503,25.352-16.688,33.585c-62.157,50.249-111.962,99.103-144.028,141.28
				C329.599,542.369,316.176,548.491,302.596,548.491z"/>
		</g>
		<g>
			<path d="M613.646,514.481c-6.04,0-12.177-1.223-18.062-3.806c-22.758-9.988-33.109-36.534-23.121-59.291
				c19.921-45.388,50.957-85.824,81.079-118.788c-34.571-17.403-68.776-35.548-92.211-56.083
				c-18.691-16.379-20.566-44.81-4.188-63.502s44.81-20.567,63.502-4.187c17.884,15.671,54.671,34.057,87.128,50.278
				c14.152,7.073,28.785,14.387,42.367,21.671c12.74,6.834,21.422,19.374,23.333,33.705c1.912,14.331-3.178,28.708-13.682,38.643
				c-52.825,49.966-87.145,93.939-104.917,134.433C647.471,504.428,630.962,514.48,613.646,514.481z"/>
		</g>
	</g>
</g>
<g id="&#x30EC;&#x30A4;&#x30E4;&#x30FC;_1">
</g>
</svg>
