<?xml version="1.0" encoding="iso-8859-1"?>
<!-- Generator: Adobe Illustrator 24.3.0, SVG Export Plug-In . SVG Version: 6.00 Build 0)  -->
<svg version="1.1" xmlns="http://www.w3.org/2000/svg" xmlns:xlink="http://www.w3.org/1999/xlink" x="0px" y="0px"
	 viewBox="0 0 1000 1000" style="enable-background:new 0 0 1000 1000;" xml:space="preserve">
<g id="yenSign">
	<g>
		<g>
			<path d="M502.77,223.75c-0.16,0.01-0.31,0.01-0.47,0.01c-0.08,0-0.16,0-0.25-0.01H502.77z"/>
		</g>
		<g>
			<path d="M621.97,411.43c2.66,24.71-15.22,46.89-39.93,49.55c-10.77,1.16-22.12,2.38-33.84,3.45c-1.33,11.21-2.86,22.65-4.6,34.32
				c-3.32,22.33-22.53,38.38-44.45,38.38c-2.21,0-4.44-0.17-6.69-0.5c-24.58-3.66-41.54-26.56-37.88-51.14
				c0.98-6.55,1.88-13.02,2.72-19.39c-13.15-1.14-26.13-3.09-38.69-6.11c-24.16-5.82-39.03-30.13-33.2-54.29
				c2.93-12.17,10.55-21.98,20.48-27.98c-13.94-11.08-20.51-29.92-15.12-48.04c7.05-23.73,31.95-37.29,55.7-30.38
				c-15.09-7.92-29.36-18.91-41.94-32.57c-28.15-30.59-45.07-71.84-47.61-116.15c-1.43-24.81,17.53-46.08,42.34-47.51
				c24.82-1.44,46.08,17.53,47.51,42.35c1.35,23.59,9.87,45.03,23.98,60.36c11.31,12.28,23.81,17.86,31.3,17.97
				c0.09,0.01,0.17,0.01,0.25,0.01c0.16,0,0.31,0,0.47-0.01c17.23-0.12,33.05-7.02,42.4-18.53c7.06-8.68,9.45-18.72,7.13-29.83
				c-5.09-24.33,10.5-48.18,34.83-53.27c24.32-5.09,48.17,10.5,53.26,34.83c7.92,37.84-1.09,75.14-25.36,105.02
				c-6.68,8.22-14.45,15.7-23.06,22.23c9.18,4.31,16.97,11.73,21.61,21.64c10.55,22.5,0.85,49.29-21.66,59.84
				c-4,1.87-8.43,3.75-13.22,5.58C600.78,371.97,619.54,388.84,621.97,411.43z"/>
		</g>
	</g>
</g>
<g id="&#x30EC;&#x30A4;&#x30E4;&#x30FC;_1">
</g>
</svg>
