<?xml version="1.0" encoding="iso-8859-1"?>
<!-- Generator: Adobe Illustrator 23.1.0, SVG Export Plug-In . SVG Version: 6.00 Build 0)  -->
<svg version="1.1" xmlns="http://www.w3.org/2000/svg" xmlns:xlink="http://www.w3.org/1999/xlink" x="0px" y="0px"
	 viewBox="0 0 1000 1000" style="enable-background:new 0 0 1000 1000;" xml:space="preserve">
<g id="digitSeven">
	<g id="_x37_">
		<g>
			<path d="M629.61,390.98c-17.74,1.46-35.74,3.79-53.04,6.78c-14.36,31.38-30.58,65.05-48.79,101.29
				c-7.9,15.73-23.77,24.81-40.25,24.81c-6.79,0-13.68-1.54-20.16-4.8c-22.21-11.15-31.17-38.2-20.01-60.41
				c4.97-9.9,9.79-19.59,14.45-29.07c-16.51-0.05-32.39-9.21-40.22-25.01c-11.04-22.27-1.95-49.27,20.32-60.31
				c20.5-10.17,45.28-18.45,71.12-25.01c16.19-37.54,29.14-71.11,39.15-101.44c-36.6-3.75-79.29-1.31-127.65,7.32
				c2.84,18.61-6.27,37.75-23.93,46.83c-22.11,11.36-49.24,2.65-60.6-19.46c-15.47-30.12-14.53-61.58,2.66-88.57
				c6.39-10.03,16.49-17.12,28.09-19.73c101.33-22.78,183.52-24.18,251.26-4.28c23.27,6.83,36.93,30.88,30.9,54.37
				c-8.27,32.19-19.93,67.64-35.4,107.39c1.6-0.14,3.18-0.27,4.74-0.4c24.77-2.02,46.5,16.41,48.53,41.18
				C672.81,367.23,654.38,388.95,629.61,390.98z"/>
		</g>
	</g>
</g>
<g id="&#x30EC;&#x30A4;&#x30E4;&#x30FC;_1">
</g>
</svg>
