<?xml version="1.0" encoding="iso-8859-1"?>
<!-- Generator: Adobe Illustrator 23.1.0, SVG Export Plug-In . SVG Version: 6.00 Build 0)  -->
<svg version="1.1" xmlns="http://www.w3.org/2000/svg" xmlns:xlink="http://www.w3.org/1999/xlink" x="0px" y="0px"
	 viewBox="0 0 1000 1000" style="enable-background:new 0 0 1000 1000;" xml:space="preserve">
<g id="equalsSign">
	<g id="_x3D_">
		<g>
			<path d="M416.905,307.786c-21.256,0-40.16-15.123-44.189-36.774c-4.547-24.434,11.573-47.927,36.006-52.474
				c16.753-3.118,46.57-3.526,93.687-3.828c24.012-0.154,60.08-0.385,69.608-1.811c23.349-5.919,47.379,7.666,54.211,30.971
				c6.99,23.85-6.677,48.85-30.526,55.84c-14.035,4.114-36.573,4.638-92.717,4.998c-26.963,0.173-67.711,0.434-77.795,2.311
				C422.408,307.535,419.635,307.786,416.905,307.786z M570.418,213.334c-0.011,0.003-0.021,0.006-0.031,0.009
				C570.396,213.34,570.407,213.337,570.418,213.334z M572.508,212.819C572.507,212.819,572.507,212.819,572.508,212.819
				C572.508,212.819,572.508,212.819,572.508,212.819z"/>
		</g>
		<g>
			<path d="M423.432,454.728c-24.034,0-43.977-18.996-44.934-43.224c-0.981-24.832,18.355-45.758,43.186-46.741l0,0
				c54.099-2.143,122.003-7.917,136.863-13.096c23.473-8.181,49.125,4.214,57.305,27.682c8.18,23.468-4.214,49.124-27.682,57.304
				c-34.839,12.143-133.517,16.878-162.931,18.04C424.634,454.716,424.032,454.728,423.432,454.728z"/>
		</g>
	</g>
</g>
<g id="&#x30EC;&#x30A4;&#x30E4;&#x30FC;_1">
</g>
</svg>
