<?xml version="1.0" encoding="iso-8859-1"?>
<!-- Generator: Adobe Illustrator 23.1.0, SVG Export Plug-In . SVG Version: 6.00 Build 0)  -->
<svg version="1.1" xmlns="http://www.w3.org/2000/svg" xmlns:xlink="http://www.w3.org/1999/xlink" x="0px" y="0px"
	 viewBox="0 0 1000 1000" style="enable-background:new 0 0 1000 1000;" xml:space="preserve">
<g id="latinSmallLetterT">
	<g id="t">
		<g>
			<path d="M654.08,465.26c-27.4,40.62-78.5,84.02-139.74,84.02c-30.44,0-55.09-5.88-75.34-17.97
				c-27.13-16.19-44.85-42.22-52.65-77.36c-0.36-1.61-0.63-3.24-0.81-4.88c-1.23-11.26-1.9-22.97-2.15-34.98h-0.13
				c-17.37,0-33.91-10.11-41.28-27.04c-9.93-22.78,0.5-49.3,23.28-59.23c7.35-3.2,14.66-6.25,21.97-9.14
				c0.51-6.68,1.03-13.36,1.56-20.01c2.97-37.73,5.79-73.37,4.16-98.8c-1.58-24.81,17.24-46.2,42.04-47.78
				c24.8-1.58,46.2,17.24,47.78,42.04c1.76,27.64-0.3,60.5-3,95.53c25.17-5.99,52.2-11.06,82.51-15.61
				c24.59-3.7,47.5,13.24,51.19,37.81c3.69,24.58-13.24,47.5-37.82,51.19c-35.57,5.34-68.51,11.54-102.1,21.19
				c-0.57,18.84-0.36,36.69,1.2,52.57c3.35,13.99,8.38,22.47,39.59,22.47c20.4,0,47.79-18.65,65.12-44.35
				c13.9-20.6,41.87-26.04,62.47-12.14C662.53,416.68,667.97,444.65,654.08,465.26z"/>
		</g>
	</g>
</g>
<g id="&#x30EC;&#x30A4;&#x30E4;&#x30FC;_1">
</g>
</svg>
