<?xml version="1.0" encoding="iso-8859-1"?>
<!-- Generator: Adobe Illustrator 23.1.0, SVG Export Plug-In . SVG Version: 6.00 Build 0)  -->
<svg version="1.1" xmlns="http://www.w3.org/2000/svg" xmlns:xlink="http://www.w3.org/1999/xlink" x="0px" y="0px"
	 viewBox="0 0 1000 1000" style="enable-background:new 0 0 1000 1000;" xml:space="preserve">
<g id="latinCapitalLetterW">
	<g id="W">
		<path d="M374.031,495.417c-14.111,0-27.624-6.65-36.208-18.288c-28.694-38.896-58.079-92.525-78.625-220.454
			c-3.941-24.538,12.756-47.625,37.295-51.566c24.541-3.94,47.625,12.756,51.566,37.295c13.008,80.995,28.904,125.3,45.226,154.934
			c29.055-12.819,54.807-36.062,78.135-70.385c8.686-12.779,23.302-20.218,38.766-19.677c15.443,0.532,29.534,8.95,37.32,22.298
			c16.389,28.092,42.911,44.5,63.656,53.613c26.182-15.335,37.258-38.665,40.028-81.431c-6.334-41.675-24.354-44.642-47.131-44.072
			c-24.853,0.608-45.484-19.026-46.101-43.872c-0.615-24.845,19.027-45.485,43.872-46.101c37.915-0.939,69.271,9.116,93.207,29.886
			c25.098,21.777,40.563,54.293,45.97,96.645c0.339,2.652,0.44,5.328,0.304,7.998c-2.831,55.309-17.419,133.264-111.015,171.53
			c-9.887,4.042-20.89,4.435-31.041,1.11c-34.76-11.389-65.482-29.122-90.221-51.694c-36.482,37.749-78.688,61.669-126.006,71.321
			C380.032,495.119,377.017,495.417,374.031,495.417z"/>
	</g>
</g>
<g id="&#x30EC;&#x30A4;&#x30E4;&#x30FC;_1">
</g>
</svg>
