<?xml version="1.0" encoding="iso-8859-1"?>
<!-- Generator: Adobe Illustrator 23.1.0, SVG Export Plug-In . SVG Version: 6.00 Build 0)  -->
<svg version="1.1" xmlns="http://www.w3.org/2000/svg" xmlns:xlink="http://www.w3.org/1999/xlink" x="0px" y="0px"
	 viewBox="0 0 1000 1000" style="enable-background:new 0 0 1000 1000;" xml:space="preserve">
<g id="latinCapitalLetterG">
	<g id="G">
		<path d="M649.461,534.885c-24.131,0.002-47.602-10.793-69.787-32.097c-6.238-5.99-12.11-12.507-17.658-19.18
			c-29.568,18.395-66.062,27.668-109.1,27.67c-2.516,0-5.045-0.031-7.606-0.095c-2.769-0.068-5.526-0.393-8.235-0.968
			c-37.703-8.007-68.04-22.952-90.167-44.422c-24.072-23.356-38.064-53.559-41.588-89.767c-0.096-0.993-0.16-1.989-0.19-2.986
			c-2.065-67.652,43.824-134.005,82.683-177.755c1.212-1.365,2.506-2.654,3.874-3.861c19.91-17.565,39.337-30.278,57.742-37.785
			c23.148-9.442,45.025-11.043,65.027-4.76c16.57,5.205,46.05,20.838,57.317,67.057c5.887,24.146-8.916,48.491-33.062,54.378
			c-24.139,5.885-48.492-8.916-54.378-33.062c-0.051-0.21-0.103-0.414-0.154-0.612c-6.132,2.401-16.604,8.173-30.927,20.508
			c-36.721,41.898-58.319,83.375-58.189,111.746c2.375,21.087,11.514,41.751,56.672,52.382
			c50.926,0.277,70.725-17.396,81.219-30.915c8.526-10.984,21.649-17.405,35.546-17.405c0.081,0,0.162,0,0.244,0
			c13.987,0.076,27.143,6.651,35.6,17.792c2.892,3.809,5.828,7.778,8.668,11.616c8.194,11.074,16.668,22.524,24.865,31.3
			c7.402,7.924,11.646,10.496,13.106,11.229c24.104,0.542,43.63,20.09,43.951,44.393c0.329,24.85-19.55,45.262-44.4,45.591
			C650.177,534.883,649.816,534.885,649.461,534.885z"/>
	</g>
</g>
<g id="&#x30EC;&#x30A4;&#x30E4;&#x30FC;_1">
</g>
</svg>
