<?xml version="1.0" encoding="iso-8859-1"?>
<!-- Generator: Adobe Illustrator 23.1.0, SVG Export Plug-In . SVG Version: 6.00 Build 0)  -->
<svg version="1.1" xmlns="http://www.w3.org/2000/svg" xmlns:xlink="http://www.w3.org/1999/xlink" x="0px" y="0px"
	 viewBox="0 0 1000 1000" style="enable-background:new 0 0 1000 1000;" xml:space="preserve">
<g id="latinSmallLetterW">
	<g id="w">
		<path d="M392.609,544.998c-15.023,0.001-28.986-4.979-40.301-14.708c-2.882-2.478-5.438-5.312-7.608-8.433
			c-19.685-28.313-23.827-83.907-24.693-106.495c-1.142-29.748,0.122-85.994,21.414-128.462c11.138-22.218,38.178-31.2,60.396-20.06
			c22.217,11.139,31.198,38.179,20.059,60.396c-8.359,16.673-12.875,46.577-12.081,79.993c0.234,9.842,0.904,18.948,1.809,27.053
			c1.547-1.943,3.12-4.027,4.703-6.257c13.609-19.176,22.914-41.795,26.198-63.691c3.052-20.348,19.517-36.034,39.989-38.098
			c20.466-2.065,39.736,10.021,46.788,29.35c18.884,51.76,28.398,61.572,39.352,61.572c12.077,0,14.489-3.396,15.519-4.846
			c1.441-2.029,6.144-10.208,6.144-30.269c0-20.886-19.715-43.362-36.038-48.046c-23.889-6.855-37.698-31.777-30.844-55.666
			c6.854-23.888,31.775-37.698,55.666-30.844c26.403,7.576,51.349,24.974,70.241,48.989c19.974,25.391,30.975,55.779,30.975,85.567
			c0,77.173-42.786,125.114-111.662,125.114c-21.057,0-50.085-5.854-75.622-31.696c-21.702,32.056-48.91,55.323-73.57,64.489
			C410.351,543.33,401.301,544.997,392.609,544.998z M419.502,471.936c0,0,0,0.001,0.001,0.001
			C419.503,471.938,419.503,471.937,419.502,471.936z"/>
	</g>
</g>
<g id="&#x30EC;&#x30A4;&#x30E4;&#x30FC;_1">
</g>
</svg>
