<?xml version="1.0" encoding="iso-8859-1"?>
<!-- Generator: Adobe Illustrator 23.1.0, SVG Export Plug-In . SVG Version: 6.00 Build 0)  -->
<svg version="1.1" xmlns="http://www.w3.org/2000/svg" xmlns:xlink="http://www.w3.org/1999/xlink" x="0px" y="0px"
	 viewBox="0 0 1000 1000" style="enable-background:new 0 0 1000 1000;" xml:space="preserve">
<g id="latinCapitalLetterT">
	<g id="T">
		<g>
			<path d="M627.9,218.95c-15.85,1.78-31.4,3.35-46.66,4.69c11.85,94.46,13.51,179.31,5.13,258.36
				c-2.45,23.1-21.97,40.26-44.7,40.26c-1.58,0-3.18-0.08-4.8-0.26c-24.71-2.62-42.62-24.78-40-49.49
				c7.82-73.67,5.98-153.57-5.67-243.41c-14.43,0.45-28.61,0.68-42.57,0.68c-25.46,0-50.17-0.75-74.29-2.25
				c-24.81-1.54-43.67-22.9-42.13-47.7c1.55-24.81,22.91-43.67,47.71-42.13c71.58,4.45,149.4,1.77,237.92-8.19
				c24.69-2.78,46.97,14.99,49.75,39.69C670.37,193.89,652.6,216.17,627.9,218.95z"/>
		</g>
	</g>
</g>
<g id="&#x30EC;&#x30A4;&#x30E4;&#x30FC;_1">
</g>
</svg>
