<?xml version="1.0" encoding="iso-8859-1"?>
<!-- Generator: Adobe Illustrator 23.1.0, SVG Export Plug-In . SVG Version: 6.00 Build 0)  -->
<svg version="1.1" xmlns="http://www.w3.org/2000/svg" xmlns:xlink="http://www.w3.org/1999/xlink" x="0px" y="0px"
	 viewBox="0 0 1000 1000" style="enable-background:new 0 0 1000 1000;" xml:space="preserve">
<g id="latinCapitalLetterE">
	<g id="E">
		<path d="M502.23,544.165c-8.234,0-16.239-0.703-24.046-2.105c-38.134-6.85-69.41-29.961-92.959-68.692
			c-1.887-3.103-3.391-6.424-4.48-9.889c-9.239-29.404-7.888-63.056,3.807-94.755c5.212-14.127,12.354-27.639,21.235-40.288
			c-31.068-29.346-44.805-71.571-36.936-119.796c0.964-5.908,3.098-11.565,6.275-16.639c21.703-34.652,58.428-57.463,98.24-61.02
			c21.979-1.962,43.914,1.82,65.2,11.244c21.618,9.57,42.063,24.858,60.768,45.438c16.716,18.392,15.357,46.852-3.035,63.567
			c-18.391,16.715-46.852,15.356-63.566-3.035c-12.332-13.569-31.249-29.366-51.36-27.572c-10.346,0.924-18.849,6.303-24.721,12.444
			c-0.773,21.942,9.956,34.996,34.496,42.792c16.074,5.106,27.942,18.772,30.748,35.402s-3.924,33.433-17.433,43.53
			c-32.771,24.494-42.942,55.897-39.034,76.945c11.377,16.631,21.208,20.399,28.667,21.738c11.765,2.114,33.958,0.228,72.88-20.755
			c21.876-11.793,49.171-3.62,60.965,18.258c11.793,21.876,3.618,49.171-18.258,60.964
			C569.661,533.518,534.253,544.163,502.23,544.165z"/>
	</g>
</g>
<g id="&#x30EC;&#x30A4;&#x30E4;&#x30FC;_1">
</g>
</svg>
