<?xml version="1.0" encoding="iso-8859-1"?>
<!-- Generator: Adobe Illustrator 23.1.0, SVG Export Plug-In . SVG Version: 6.00 Build 0)  -->
<svg version="1.1" xmlns="http://www.w3.org/2000/svg" xmlns:xlink="http://www.w3.org/1999/xlink" x="0px" y="0px"
	 viewBox="0 0 1000 1000" style="enable-background:new 0 0 1000 1000;" xml:space="preserve">
<g id="latinCapitalLetterH">
	<g id="H">
		<g>
			<path d="M660.62,521.77c-4.62,1.5-9.29,2.21-13.89,2.21c-18.98,0-36.63-12.11-42.8-31.14c-9.4-28.99-18.4-59.65-27.1-89.3
				c-0.19-0.63-0.37-1.26-0.56-1.9c-38.59,0.57-68.54,7.58-89.24,20.9c-20.15,12.98-31.64,32.14-36.15,60.32
				c-3.52,22.02-22.53,37.89-44.39,37.89c-1.49,0-2.99-0.07-4.51-0.22c-23.7-2.37-41.45-22.79-40.5-46.59
				c3.16-78.35-14.83-167.85-49.34-245.54c-10.09-22.71,0.14-49.3,22.85-59.39c22.72-10.09,49.31,0.14,59.4,22.85
				c21.76,48.99,37.68,100.95,47.17,152.97c28.86-17.7,64.93-28.38,107.68-31.9c-10.88-33.24-22.34-64.05-34.83-88.99
				c-11.13-22.22-2.13-49.26,20.09-60.39s49.26-2.13,60.38,20.09c27.05,54.01,48.02,125.46,68.31,194.55
				c8.53,29.06,17.35,59.1,26.36,86.9C697.21,488.73,684.26,514.11,660.62,521.77z"/>
		</g>
	</g>
</g>
<g id="&#x30EC;&#x30A4;&#x30E4;&#x30FC;_1">
</g>
</svg>
