<?xml version="1.0" encoding="iso-8859-1"?>
<!-- Generator: Adobe Illustrator 23.1.0, SVG Export Plug-In . SVG Version: 6.00 Build 0)  -->
<svg version="1.1" xmlns="http://www.w3.org/2000/svg" xmlns:xlink="http://www.w3.org/1999/xlink" x="0px" y="0px"
	 viewBox="0 0 1000 1000" style="enable-background:new 0 0 1000 1000;" xml:space="preserve">
<g id="ampersand">
	<g id="_x26_">
		<g>
			<path d="M633.68,483c-29.64,11.84-55.48,20.69-78.12,26.73c4.61,7.63,7,16.69,6.36,26.26c-0.39,5.8-0.62,13.02-0.62,20.68
				c0,18.2,1.31,38.92,4.94,49.11c8.34,23.41-3.89,49.15-27.3,57.48c-4.99,1.78-10.08,2.62-15.09,2.62
				c-18.5,0-35.84-11.49-42.4-29.92c-13.23-37.17-10.09-94.88-9.32-106.07c0.25-3.73,0.96-7.33,2.05-10.74
				c-14.68-1.38-27.9-4.91-39.88-10.6c-28.18-13.38-48.08-38.07-59.15-73.38c-0.42-1.36-0.78-2.73-1.08-4.12
				c-6.07-28.61,0.06-57.7,17.25-81.91c5.49-7.72,11.95-14.86,19.38-21.4c-30.27-13.46-53.28-29.96-64.88-52.92
				c-9.46-18.71-10.31-40.03-2.38-60.01c1.37-3.44,3.15-6.7,5.32-9.7c15.24-21.15,37.4-38.58,64.08-50.41
				c16.85-7.48,34.69-12.21,52.05-13.93c3.93-23.42,4.11-49.3,4.11-49.58c0.06-24.82,20.2-44.9,45-44.9h0.11
				c24.85,0.06,44.95,20.26,44.89,45.11c0,1.63-0.17,39.66-7.08,73.63c9.76,8.42,17.72,18.78,23.45,30.8
				c10.69,22.43,1.17,49.29-21.27,59.98c-22.43,10.69-49.29,1.17-59.98-21.27c-1.38-2.91-6.61-3.96-10.75-4.33
				c-13.47-1.22-30.23,3.7-43.63,11.78c6.15,3.07,14.76,6.79,26.75,11.06c25.61,9.11,57.72,17.55,88.78,25.71l2.65,0.7
				c20.84,5.47,34.87,24.95,33.47,46.45c-1.41,21.5-17.85,38.99-39.22,41.71c-64.86,8.25-83.35,27.83-87.47,33.64
				c-2.33,3.28-3.21,6.12-2.85,9.46c4.67,13.5,9.44,15.76,11.06,16.54c3.9,1.85,13.78,4.39,36.18,0.66
				c22.96-3.83,52.79-13.15,91.19-28.49c23.09-9.22,49.27,2.01,58.49,25.09C667.99,447.6,656.76,473.78,633.68,483z"/>
		</g>
	</g>
</g>
<g id="&#x30EC;&#x30A4;&#x30E4;&#x30FC;_1">
</g>
</svg>
