<?xml version="1.0" encoding="iso-8859-1"?>
<!-- Generator: Adobe Illustrator 23.1.0, SVG Export Plug-In . SVG Version: 6.00 Build 0)  -->
<svg version="1.1" xmlns="http://www.w3.org/2000/svg" xmlns:xlink="http://www.w3.org/1999/xlink" x="0px" y="0px"
	 viewBox="0 0 1000 1000" style="enable-background:new 0 0 1000 1000;" xml:space="preserve">
<g id="asterisk">
	<g id="_x2A_">
		<g>
			<path d="M649.93,130.69c-0.98,19.57-14.3,35.6-32.07,40.89c0.39,0.47,0.76,0.93,1.13,1.39c15.57,19.37,12.49,47.7-6.88,63.27
				c-8.31,6.68-18.27,9.92-28.16,9.92c-13.17,0-26.22-5.74-35.11-16.81c-8.81-10.95-19-22.62-29.69-34.3l-32.6,35.79
				c-8.88,9.74-21.06,14.69-33.28,14.69c-10.82,0-21.67-3.87-30.29-11.73c-11.89-10.83-16.64-26.56-13.98-41.29
				c-1.88,0.43-2.92,0.68-3.02,0.71c-3.58,0.87-7.17,1.29-10.71,1.29c-20.25,0-38.65-13.76-43.68-34.31
				c-5.91-24.12,8.84-48.47,32.96-54.39c1.58-0.39,15.51-3.76,37.51-7.82c-15.82-17.04-16.13-43.65-0.11-61.06
				c16.83-18.29,45.29-19.47,63.58-2.65c1.31,1.19,13.72,12.65,31.29,29.69l23.04-25.3c16.73-18.37,45.2-19.69,63.57-2.96
				c13.97,12.73,18.09,32.24,11.89,48.94C636.08,89.51,651.03,108.64,649.93,130.69z"/>
		</g>
	</g>
</g>
<g id="&#x30EC;&#x30A4;&#x30E4;&#x30FC;_1">
</g>
</svg>
