<?xml version="1.0" encoding="iso-8859-1"?>
<!-- Generator: Adobe Illustrator 23.1.0, SVG Export Plug-In . SVG Version: 6.00 Build 0)  -->
<svg version="1.1" xmlns="http://www.w3.org/2000/svg" xmlns:xlink="http://www.w3.org/1999/xlink" x="0px" y="0px"
	 viewBox="0 0 1000 1000" style="enable-background:new 0 0 1000 1000;" xml:space="preserve">
<g id="circumflexAccent">
	<g id="_x5E_">
		<path d="M383.647,294.261c-8.206,0-16.509-2.243-23.962-6.943c-21.021-13.257-27.315-41.046-14.058-62.067
			c37.619-59.649,76.707-110.56,116.179-151.319c15.898-16.416,41.576-18.309,59.709-4.404
			c93.91,72.013,120.582,104.558,132.475,122.773c13.587,20.81,7.731,48.694-13.078,62.281
			c-20.811,13.588-48.695,7.731-62.281-13.078c-6.129-9.387-24.478-30.844-79.327-75.014
			c-26.087,30.604-52.071,66.368-77.552,106.77C413.195,286.829,398.585,294.261,383.647,294.261z"/>
	</g>
</g>
<g id="&#x30EC;&#x30A4;&#x30E4;&#x30FC;_1">
</g>
</svg>
