<?xml version="1.0" encoding="iso-8859-1"?>
<!-- Generator: Adobe Illustrator 23.1.0, SVG Export Plug-In . SVG Version: 6.00 Build 0)  -->
<svg version="1.1" xmlns="http://www.w3.org/2000/svg" xmlns:xlink="http://www.w3.org/1999/xlink" x="0px" y="0px"
	 viewBox="0 0 1000 1000" style="enable-background:new 0 0 1000 1000;" xml:space="preserve">
<g id="colon">
	<g id=":">
		<g>
			<path d="M477.731,368.081c-19.068,0-36.77-12.215-42.866-31.354c-7.543-23.681,5.539-48.992,29.219-56.536l17.018-5.421
				c23.681-7.542,48.991,5.539,56.535,29.219c7.543,23.681-5.538,48.992-29.219,56.536l-17.018,5.421
				C486.859,367.393,482.256,368.081,477.731,368.081z"/>
		</g>
		<g>
			<path d="M522.281,524.012c-17.322,0-33.832-10.059-41.234-26.938l-6.853-15.625c-9.982-22.76,0.377-49.303,23.137-59.285
				c22.762-9.981,49.304,0.377,59.285,23.137l6.853,15.625c9.981,22.76-0.377,49.303-23.138,59.285
				C534.451,522.79,528.315,524.012,522.281,524.012z"/>
		</g>
	</g>
</g>
<g id="&#x30EC;&#x30A4;&#x30E4;&#x30FC;_1">
</g>
</svg>
