<?xml version="1.0" encoding="iso-8859-1"?>
<!-- Generator: Adobe Illustrator 23.1.0, SVG Export Plug-In . SVG Version: 6.00 Build 0)  -->
<svg version="1.1" xmlns="http://www.w3.org/2000/svg" xmlns:xlink="http://www.w3.org/1999/xlink" x="0px" y="0px"
	 viewBox="0 0 1000 1000" style="enable-background:new 0 0 1000 1000;" xml:space="preserve">
<g id="digitFive">
	<g id="_x35_">
		<g>
			<path d="M665.46,385.84c4.62,53.49-17.61,84.61-37.07,101.3c-25.71,22.05-62.36,33.04-110.8,33.04
				c-35.62,0-77.6-5.94-126.3-17.81c-9.12-2.22-17.31-7.23-23.44-14.34c-24.6-28.55-23.24-73.31,3.08-101.91
				c16.84-18.28,45.3-19.46,63.59-2.63c11.27,10.38,16.04,25.17,14.1,39.27c90.51,17.05,116.53,0.05,121.18-3.94
				c1.91-1.64,6.74-5.78,6.25-20.97c-2.49-4.17-13.48-15.17-45.1-26.89c-36.33-13.47-87.86-23.87-153.16-30.92
				c-13.37-1.45-25.4-8.8-32.78-20.05c-7.39-11.25-9.35-25.21-5.35-38.05c4.12-13.24,10.83-27.01,20.09-41.24
				c-11.54-7.34-19.6-19.81-20.75-34.48c-1.94-24.77,16.58-46.43,41.35-48.37c79.81-6.25,157.66-13.46,232.58-32.81
				c24.06-6.22,48.6,8.25,54.82,32.31c6.22,24.07-8.25,48.61-32.31,54.83c-51.55,13.31-103.17,21.28-155.26,26.99
				c-8.35,7.68-15.45,14.75-21.49,21.2c40.76,7.01,75.42,15.78,103.54,26.2c26.27,9.74,46.95,20.82,63.2,33.87
				c21.15,17,34.34,37.13,39.2,59.85C665.03,382.12,665.3,383.98,665.46,385.84z"/>
		</g>
	</g>
</g>
<g id="&#x30EC;&#x30A4;&#x30E4;&#x30FC;_1">
</g>
</svg>
