<?xml version="1.0" encoding="iso-8859-1"?>
<!-- Generator: Adobe Illustrator 23.1.0, SVG Export Plug-In . SVG Version: 6.00 Build 0)  -->
<svg version="1.1" xmlns="http://www.w3.org/2000/svg" xmlns:xlink="http://www.w3.org/1999/xlink" x="0px" y="0px"
	 viewBox="0 0 1000 1000" style="enable-background:new 0 0 1000 1000;" xml:space="preserve">
<g id="digitThree">
	<g id="_x33_">
		<path d="M523.183,498.188c-27.608,0-59.779-1.74-97.245-5.11c-24.752-2.227-43.014-24.098-40.787-48.851
			s24.097-43.014,48.851-40.788c46.071,4.144,83.68,5.535,111.784,4.137c19.111-0.952,30.991-3.029,38.095-4.871
			c-3.862-16.115-19.247-47.439-105.916-58.173c-18.796-2.328-34.124-16.176-38.34-34.641c-4.217-18.465,3.58-37.593,19.502-47.849
			c21.347-13.75,32.832-24.842,38.888-33.537c-23.512-2.354-61.741,0.255-117.308,16.225c-23.885,6.864-48.814-6.934-55.679-30.82
			c-6.864-23.886,6.934-48.814,30.82-55.679c67.443-19.382,159.736-34.877,216.414,1.372c10.391,6.646,17.599,17.266,19.938,29.377
			c5.853,30.304-0.316,60.351-17.845,87.25c16.506,6.845,31.043,15.12,43.772,24.88c29.834,22.877,48.352,52.934,55.08,89.384
			c7.243,24.359,3.272,47.862-11.352,66.573C639.849,485.229,598.517,498.188,523.183,498.188z"/>
	</g>
</g>
<g id="&#x30EC;&#x30A4;&#x30E4;&#x30FC;_1">
</g>
</svg>
