<?xml version="1.0" encoding="iso-8859-1"?>
<!-- Generator: Adobe Illustrator 23.1.0, SVG Export Plug-In . SVG Version: 6.00 Build 0)  -->
<svg version="1.1" xmlns="http://www.w3.org/2000/svg" xmlns:xlink="http://www.w3.org/1999/xlink" x="0px" y="0px"
	 viewBox="0 0 1000 1000" style="enable-background:new 0 0 1000 1000;" xml:space="preserve">
<g id="digitEight">
	<g id="_x38_">
		<path d="M529.106,563.919c-0.359,0-0.719-0.004-1.077-0.013c-58.027-1.386-94.704-13.786-115.424-39.022
			c-13.689-16.673-19.215-38.182-15.619-60.69c6.109-46.682,35.63-81.513,67.895-108.218c-17.119-11.348-36.32-23.593-57.696-36.802
			c-5.839-3.608-10.564-8.333-14.071-13.73c-20.275,4.451-41.601-5.66-50.556-25.311c-10.306-22.615-0.328-49.303,22.287-59.609
			c52.986-24.147,96.146-36.484,135.827-38.827c54.412-3.209,100.394,13.151,136.667,48.634c2.79,2.73,5.214,5.811,7.209,9.166
			c6.936,11.662,13.674,31.006,6.388,56.937c-3.913,13.928-11.6,28.246-22.845,42.555c-4.437,5.646-9.399,11.274-14.849,16.852
			c34.671,33.06,48.171,60.597,48.252,90.23c0.001,0.242-0.001,0.484-0.004,0.726c-0.431,32.186-16.422,63.377-43.874,85.577
			c-24.677,19.955-55.919,31.157-87.971,31.544C529.466,563.918,529.286,563.919,529.106,563.919z M487.721,468.98
			c6.867,1.976,19.514,4.346,41.542,4.928c21.863-0.575,41.397-15.657,42.21-27.695c-0.246-1.029-2.95-9.695-24.778-29.407
			c-1.952-1.764-4.005-3.568-6.153-5.411C509.738,433.328,492.987,451.551,487.721,468.98z M500.962,271.972
			c14.881,9.653,28.547,18.807,41.051,27.521c7.264-6.624,12.63-12.54,16.293-17.31
			C545.118,274.457,527.213,269.493,500.962,271.972z"/>
	</g>
</g>
<g id="&#x30EC;&#x30A4;&#x30E4;&#x30FC;_1">
</g>
</svg>
