<?xml version="1.0" encoding="iso-8859-1"?>
<!-- Generator: Adobe Illustrator 23.1.0, SVG Export Plug-In . SVG Version: 6.00 Build 0)  -->
<svg version="1.1" xmlns="http://www.w3.org/2000/svg" xmlns:xlink="http://www.w3.org/1999/xlink" x="0px" y="0px"
	 viewBox="0 0 1000 1000" style="enable-background:new 0 0 1000 1000;" xml:space="preserve">
<g id="exclamationMark">
	<g id="_x21_">
		<g>
			<path d="M504.693,409.791c-23.402,0-43.157-18.107-44.841-41.813c-5.674-79.858-20.56-152.136-41.915-203.519
				c-9.538-22.95,1.334-49.286,24.284-58.824c22.951-9.537,49.287,1.334,58.824,24.284c25.346,60.984,42.145,141.098,48.58,231.681
				c1.762,24.79-16.907,46.314-41.697,48.076C506.844,409.753,505.764,409.791,504.693,409.791z"/>
		</g>
		<g>
			<path d="M540.551,564.492c-15.063,0-29.777-7.558-38.295-21.303l-8.417-13.585c-13.091-21.126-6.577-48.864,14.548-61.955
				c21.128-13.092,48.864-6.576,61.955,14.549l8.418,13.585c13.09,21.125,6.576,48.864-14.549,61.955
				C556.83,562.312,548.639,564.492,540.551,564.492z"/>
		</g>
	</g>
</g>
<g id="&#x30EC;&#x30A4;&#x30E4;&#x30FC;_1">
</g>
</svg>
