<?xml version="1.0" encoding="iso-8859-1"?>
<!-- Generator: Adobe Illustrator 23.1.0, SVG Export Plug-In . SVG Version: 6.00 Build 0)  -->
<svg version="1.1" xmlns="http://www.w3.org/2000/svg" xmlns:xlink="http://www.w3.org/1999/xlink" x="0px" y="0px"
	 viewBox="0 0 1000 1000" style="enable-background:new 0 0 1000 1000;" xml:space="preserve">
<g id="latinSmallLetterY">
	<g id="y">
		<path d="M585.047,997.939c-10.45,0-20.912-0.76-30.994-1.492c-4.855-0.353-9.876-0.717-14.895-1.013
			c-0.588-0.034-1.175-0.08-1.761-0.138c-51.496-5.065-90.143-18.924-118.149-42.365c-24.052-20.132-39.132-46.165-46.103-79.588
			c-0.63-3.021-0.948-6.1-0.948-9.187c0-78.589,94.708-161.827,180.02-186.63c-9.152-62.486-16.271-126.656-21.107-190.306
			c-27.26,17.849-63.937,28.747-114.079,28.747c-30.265,0-56.397-15.335-73.582-43.182c-20.87-33.819-23.569-78.782-23.32-102.573
			c0.387-37.044,7.652-72.33,19.933-96.809c11.145-22.215,38.186-31.189,60.401-20.043c22.214,11.145,31.188,38.187,20.043,60.401
			c-5.598,11.157-11.208,36.427-10.299,65.544c0.805,25.798,6.425,41.187,10.032,46.644c46.849-0.578,63.95-13.803,72.758-23.805
			c16.573-18.819,25.047-52.368,31.738-85.818c4.517-22.585,25.359-38.112,48.295-35.981c22.935,2.134,40.556,21.242,40.828,44.274
			c0.928,78.406,8.395,284.556,57.551,504.853c0.079,0.356,0.155,0.715,0.226,1.073c10.433,52.773,15.969,106.265-13.896,140.037
			C637.85,993.073,611.489,997.939,585.047,997.939z M545.375,905.646c5.293,0.319,10.323,0.685,15.197,1.038
			c8.917,0.647,21.272,1.55,29.036,1.267c0.771-7.785,0.638-24.866-6.161-59.426c-5.866-26.326-11.359-53.476-16.445-81.18
			c-22.736,8.434-47.185,23.398-67.394,41.656c-24.229,21.891-34.834,41.424-36.988,51.609c2.893,10.261,7.355,17.416,14.393,23.306
			C490.188,894.943,513.817,902.452,545.375,905.646z M421.606,427.647h0.01H421.606z"/>
	</g>
</g>
<g id="&#x30EC;&#x30A4;&#x30E4;&#x30FC;_1">
</g>
</svg>
