<?xml version="1.0" encoding="iso-8859-1"?>
<!-- Generator: Adobe Illustrator 23.1.0, SVG Export Plug-In . SVG Version: 6.00 Build 0)  -->
<svg version="1.1" xmlns="http://www.w3.org/2000/svg" xmlns:xlink="http://www.w3.org/1999/xlink" x="0px" y="0px"
	 viewBox="0 0 1000 1000" style="enable-background:new 0 0 1000 1000;" xml:space="preserve">
<g id="latinSmallLetterO">
	<g id="o">
		<path d="M496.545,538.552c-38.922,0-79.183-13.964-110.459-38.312c-37.454-29.156-58.081-69.779-58.081-114.386
			c0-38.801,20.746-78.339,56.918-108.478C418.009,249.811,458.694,234,496.545,234c12.126,0,23.131,4.795,31.223,12.594
			c0.862-0.102,1.734-0.193,2.614-0.274c1.357-0.124,2.721-0.186,4.084-0.186c31.178,0,65.28,17.587,93.563,48.251
			c27.94,30.293,43.966,67.103,43.966,100.991c0,38.501-21.743,76.592-59.652,104.506
			C578.968,524.458,536.761,538.552,496.545,538.552z M455.944,337.021c-4.676,2.803-9.201,5.993-13.411,9.5
			c-15.13,12.606-24.529,27.677-24.529,39.333c0,38.845,45.745,62.697,78.54,62.697c21.115,0,44.455-7.903,62.434-21.142
			c13.982-10.295,23.017-22.869,23.017-32.033c0-10.489-7.358-25.581-18.746-38.449c-10.415-11.768-20.474-17.801-25.947-19.921
			c-1.258,1.165-3.286,3.275-6.212,6.977c-15.412,19.497-43.71,22.81-63.208,7.398C462.779,347.348,458.784,342.432,455.944,337.021
			z M534.148,336.124C534.148,336.124,534.148,336.124,534.148,336.124C534.149,336.124,534.148,336.124,534.148,336.124z"/>
	</g>
</g>
<g id="&#x30EC;&#x30A4;&#x30E4;&#x30FC;_1">
</g>
</svg>
