<?xml version="1.0" encoding="iso-8859-1"?>
<!-- Generator: Adobe Illustrator 23.1.0, SVG Export Plug-In . SVG Version: 6.00 Build 0)  -->
<svg version="1.1" xmlns="http://www.w3.org/2000/svg" xmlns:xlink="http://www.w3.org/1999/xlink" x="0px" y="0px"
	 viewBox="0 0 1000 1000" style="enable-background:new 0 0 1000 1000;" xml:space="preserve">
<g id="latinSmallLetterC">
	<g id="c">
		<path d="M506.098,512.232c-42.678,0.001-91.142-21.313-123.969-54.63c-24.852-25.224-37.635-53.968-36.997-83.166
			c0.24-33.72,20.415-69.18,55.448-97.396c19.18-15.448,41.315-27.476,64.013-34.785c26.57-8.556,53.271-10.308,77.216-5.063
			c24.277,5.317,39.647,29.308,34.33,53.585c-5.316,24.277-29.305,39.647-53.586,34.331c-16.688-3.656-41.688,4.165-62.207,19.458
			c-18.465,13.763-24.923,27.157-25.215,30.553c0,0.416-0.006,0.832-0.019,1.248c-0.076,2.646,2.825,9.643,11.127,18.069
			c15.604,15.837,40.976,27.657,59.46,27.794c23.307-1.539,53.761-7.433,69.135-26.533c15.583-19.36,43.91-22.423,63.271-6.838
			c19.359,15.583,22.421,43.911,6.838,63.271c-14.733,18.304-34.1,32.73-57.562,42.877c-22.211,9.606-48.266,15.371-77.439,17.134
			c-0.697,0.042-1.396,0.068-2.094,0.078C507.268,512.229,506.681,512.232,506.098,512.232z"/>
	</g>
</g>
<g id="&#x30EC;&#x30A4;&#x30E4;&#x30FC;_1">
</g>
</svg>
