<?xml version="1.0" encoding="iso-8859-1"?>
<!-- Generator: Adobe Illustrator 23.1.0, SVG Export Plug-In . SVG Version: 6.00 Build 0)  -->
<svg version="1.1" xmlns="http://www.w3.org/2000/svg" xmlns:xlink="http://www.w3.org/1999/xlink" x="0px" y="0px"
	 viewBox="0 0 1000 1000" style="enable-background:new 0 0 1000 1000;" xml:space="preserve">
<g id="latinSmallLetterS">
	<g id="s">
		<path d="M496.207,572.499c-42.854,0-83.796-2.465-113.692-32.23c-17.612-17.536-17.674-46.028-0.139-63.64
			c17.534-17.612,46.028-17.675,63.639-0.139c4.005,3.987,20.892,6.009,50.192,6.009c16.05,0,31.12-2.472,41.803-5.518
			c-3.752-2.686-8.567-5.854-14.723-9.498c-17.448-10.328-38.874-20.583-59.593-30.5c-21.441-10.263-41.694-19.957-57.83-29.817
			c-12.251-7.486-44.794-27.373-44.794-62.67c0-10.298,3.21-30.036,24.709-46.52c7.552-5.79,16.98-10.931,28.826-15.717
			c19.636-7.934,43.444-13.781,59.959-17.29c24.308-5.162,48.205,10.357,53.368,34.668c5,23.534-9.389,46.679-32.368,52.817
			c2.458,1.182,4.806,2.306,6.987,3.349c27.744,13.28,56.433,27.012,80.245,42.762c13.884,9.183,56.133,37.127,56.133,81.893
			c0,16.942-6.433,58.627-66.017,79.759C541.659,571.303,508.858,572.499,496.207,572.499z"/>
	</g>
</g>
<g id="&#x30EC;&#x30A4;&#x30E4;&#x30FC;_1">
</g>
</svg>
