<?xml version="1.0" encoding="iso-8859-1"?>
<!-- Generator: Adobe Illustrator 23.1.0, SVG Export Plug-In . SVG Version: 6.00 Build 0)  -->
<svg version="1.1" xmlns="http://www.w3.org/2000/svg" xmlns:xlink="http://www.w3.org/1999/xlink" x="0px" y="0px"
	 viewBox="0 0 1000 1000" style="enable-background:new 0 0 1000 1000;" xml:space="preserve">
<g id="latinCapitalLetterX">
	<g id="X">
		<g>
			<path d="M688.95,485.78c-8.8,8.9-20.4,13.35-31.99,13.35c-11.44,0-22.88-4.33-31.65-13.01
				c-28.45-28.15-68.28-67.58-115.35-107.22c-18.62,48.23-35.34,97.79-50.33,149.12c-5.73,19.65-23.69,32.4-43.17,32.4
				c-4.18,0-8.43-0.59-12.64-1.82c-23.86-6.96-37.55-31.95-30.58-55.81c18.3-62.66,39.05-122.81,62.57-181.21
				c-35.09-24.55-72.44-46.84-110.85-63.69c-22.76-9.99-33.11-36.53-23.13-59.29c9.98-22.76,36.53-33.12,59.29-23.13
				c36.57,16.04,73.35,36.48,111.12,61.81c16.1-34.86,33.31-69.2,51.67-103.18c11.81-21.87,39.11-30.02,60.98-18.2
				c21.87,11.81,30.01,39.12,18.2,60.98c-20.45,37.85-39.39,76.16-56.92,115.2c52.68,42.56,99.59,87.66,142.44,130.07
				C706.28,439.63,706.43,468.12,688.95,485.78z"/>
		</g>
	</g>
</g>
<g id="&#x30EC;&#x30A4;&#x30E4;&#x30FC;_1">
</g>
</svg>
