<?xml version="1.0" encoding="iso-8859-1"?>
<!-- Generator: Adobe Illustrator 23.1.0, SVG Export Plug-In . SVG Version: 6.00 Build 0)  -->
<svg version="1.1" xmlns="http://www.w3.org/2000/svg" xmlns:xlink="http://www.w3.org/1999/xlink" x="0px" y="0px"
	 viewBox="0 0 1000 1000" style="enable-background:new 0 0 1000 1000;" xml:space="preserve">
<g id="latinCapitalLetterC">
	<g id="C">
		<path d="M500.015,478.52c-47.366,0.001-84.449-10.284-113.196-31.355c-34.96-25.626-54.213-64.757-57.222-116.307
			c-0.144-2.456-0.085-4.92,0.174-7.367c4.556-42.968,23.89-80.082,55.912-107.329c31.218-26.563,73.792-42.556,123.122-46.251
			c24.787-1.866,46.379,16.729,48.235,41.512c1.856,24.784-16.729,46.379-41.513,48.236c-32.617,2.444-87.756,14.807-95.809,69.757
			c2.803,32.333,15.896,41.928,20.307,45.162c18.721,13.721,64.179,24.232,174.433-3.618c24.093-6.083,48.563,8.513,54.65,32.609
			c6.086,24.096-8.514,48.564-32.609,54.65c-50.661,12.796-92.827,19.409-128.908,20.215
			C505.039,478.492,502.511,478.52,500.015,478.52z"/>
	</g>
</g>
<g id="&#x30EC;&#x30A4;&#x30E4;&#x30FC;_1">
</g>
</svg>
