<?xml version="1.0" encoding="iso-8859-1"?>
<!-- Generator: Adobe Illustrator 23.1.0, SVG Export Plug-In . SVG Version: 6.00 Build 0)  -->
<svg version="1.1" xmlns="http://www.w3.org/2000/svg" xmlns:xlink="http://www.w3.org/1999/xlink" x="0px" y="0px"
	 viewBox="0 0 1000 1000" style="enable-background:new 0 0 1000 1000;" xml:space="preserve">
<g id="latinCapitalLetterF">
	<g id="F">
		<g>
			<path d="M631.1,383.72l-138.61,19.87c2.11,23.2,2.84,46.31,2.15,68.91c-0.75,24.37-20.74,43.61-44.96,43.61
				c-0.46,0-0.93,0-1.41-0.02c-24.84-0.76-44.35-21.52-43.59-46.36c3.25-105.73-30.32-207.26-65.16-252.9
				c-9.62-12.6-11.9-29.34-6-44.05c5.9-14.72,19.11-25.24,34.78-27.71c68.72-10.81,177.79-2.31,236.55,12.41
				c24.11,6.04,38.75,30.48,32.71,54.59c-6.04,24.11-30.48,38.75-54.58,32.71c-32.3-8.09-85.06-13.99-133.14-14.59
				c9.24,21.31,17.37,44.79,24.17,69.97c1.31,4.85,2.56,9.72,3.75,14.62l140.56-20.15c24.6-3.53,47.4,13.55,50.93,38.16
				C672.78,357.39,655.7,380.19,631.1,383.72z"/>
		</g>
	</g>
</g>
<g id="&#x30EC;&#x30A4;&#x30E4;&#x30FC;_1">
</g>
</svg>
