<?xml version="1.0" encoding="iso-8859-1"?>
<!-- Generator: Adobe Illustrator 23.1.0, SVG Export Plug-In . SVG Version: 6.00 Build 0)  -->
<svg version="1.1" xmlns="http://www.w3.org/2000/svg" xmlns:xlink="http://www.w3.org/1999/xlink" x="0px" y="0px"
	 viewBox="0 0 1000 1000" style="enable-background:new 0 0 1000 1000;" xml:space="preserve">
<g id="latinCapitalLetterO">
	<g id="O">
		<path d="M510.808,506.837c-0.43,0-0.858-0.006-1.288-0.018c-53.624-1.536-94.649-11.25-125.422-29.698
			c-41.208-24.704-63.63-64.742-64.841-115.788c-0.081-3.403,0.225-6.804,0.911-10.138c8.847-42.992,24.752-79.452,47.273-108.367
			c19.916-25.57,44.942-44.834,72.373-55.709c21.335-8.456,45.268,0.531,56.021,20.149c7.04-0.44,13.999-0.61,20.831-0.502
			c36.907,0.578,69.176,8.829,95.909,24.523c36.076,21.178,59.378,54.576,67.387,96.585c0.605,3.178,0.867,6.412,0.779,9.646
			c-1.461,53.949-16.675,91.959-47.879,119.621c-28.039,24.855-64.906,37.354-111.637,48.475
			C517.811,506.428,514.314,506.837,510.808,506.837z M409.473,364.017c1.683,21.434,10.981,29.967,20.899,35.913
			c16.056,9.625,41.561,15.242,75.873,16.718c67.814-16.616,82.162-29.406,84.336-76.279c-3.63-14.134-11.2-24.203-23.57-31.464
			c-27.671-16.245-74.912-16.353-123.287-0.282c-4.636,1.54-9.345,2.284-13.978,2.306
			C421.862,324.142,414.621,341.434,409.473,364.017z"/>
	</g>
</g>
<g id="&#x30EC;&#x30A4;&#x30E4;&#x30FC;_1">
</g>
</svg>
