<?xml version="1.0" encoding="iso-8859-1"?>
<!-- Generator: Adobe Illustrator 23.1.0, SVG Export Plug-In . SVG Version: 6.00 Build 0)  -->
<svg version="1.1" xmlns="http://www.w3.org/2000/svg" xmlns:xlink="http://www.w3.org/1999/xlink" x="0px" y="0px"
	 viewBox="0 0 1000 1000" style="enable-background:new 0 0 1000 1000;" xml:space="preserve">
<g id="latinSmallLetterX">
	<g id="x">
		<g>
			<path d="M660.12,482.97c-8,5.82-17.27,8.62-26.46,8.62c-13.9,0-27.6-6.42-36.41-18.51c-16.56-22.74-37.25-46.53-58.91-69.22
				c-13.4,26.49-26.83,53.89-39.77,80.3c-4.11,8.36-8.21,16.73-12.3,25.06c-7.82,15.92-23.8,25.16-40.42,25.16
				c-6.66,0-13.43-1.49-19.82-4.63c-22.3-10.96-31.49-37.93-20.53-60.23c4.08-8.3,8.17-16.64,12.25-24.98
				c17.99-36.69,35.64-72.7,52.87-106.03c-10.65-9.51-20.64-18.07-29.49-25.37c-3.32,2.67-6.97,5.98-10.73,10.01
				c-10.43,11.17-18,24.06-19.77,33.64c-4.5,24.44-27.97,40.61-52.41,36.1c-24.44-4.5-40.6-27.96-36.1-52.41
				c5-27.15,20.45-55.5,43.51-79.83c13.06-13.78,39.78-37.89,71.92-44.51c12.53-2.59,25.56,0.28,35.84,7.88
				c11.49,8.5,25.85,20.07,41.79,33.82c17.73-29.25,34.86-53.31,51.3-69.7c17.59-17.55,46.09-17.51,63.64,0.08
				c17.55,17.6,17.51,46.09-0.09,63.64c-13.59,13.55-29.86,38.16-47.37,68.69c31.91,31.86,63.49,66.79,87.34,99.55
				C684.63,440.19,680.21,468.34,660.12,482.97z"/>
		</g>
	</g>
</g>
<g id="&#x30EC;&#x30A4;&#x30E4;&#x30FC;_1">
</g>
</svg>
