<?xml version="1.0" encoding="iso-8859-1"?>
<!-- Generator: Adobe Illustrator 23.1.0, SVG Export Plug-In . SVG Version: 6.00 Build 0)  -->
<svg version="1.1" xmlns="http://www.w3.org/2000/svg" xmlns:xlink="http://www.w3.org/1999/xlink" x="0px" y="0px"
	 viewBox="0 0 1000 1000" style="enable-background:new 0 0 1000 1000;" xml:space="preserve">
<g id="latinSmallLetterG">
	<g id="g">
		<path d="M630.86,894c-39.667,0-101.165-19.254-144.516-38.336c-74.778-32.915-111.129-68.78-111.129-109.646
			c0-27.34,19.366-48.223,33.932-61.553c13.915-12.732,32.441-26.169,53.575-38.857c20.387-12.239,68.578-38.836,111.246-44.807
			l-23.862-110.075c-32.627,23.077-75.429,36.595-120.528,36.595c-86.338,0-131.511-55.605-131.511-110.534
			c0-40.436,38.512-80.421,61.468-100.656c22.695-20.006,67.762-53.567,114.599-53.567c44.769,0,82.949,18.994,110.412,54.928
			c19.257,25.197,33.38,59.156,41.978,100.932l48.059,221.69c42.672,155.911,26.991,203.716,8.533,227.927
			C670.353,884.781,651.795,894,630.86,894z M474.474,746.888c10.963,8.03,30.408,19.549,61.656,32.089
			c29.102,11.678,56.566,19.397,75.797,22.886c0.58-16.425-1.748-49.7-17.454-112.457c-1.376,0.126-2.772,0.191-4.182,0.191
			c-8.802,0-34.791,7.155-70.318,26.867C499.234,727.971,484.103,738.838,474.474,746.888z M388.365,419.448
			c2.399,10.504,18.991,17.875,41.212,17.875c37.37,0,72.793-15.688,86.144-38.15c2.194-3.691,4.834-6.956,7.81-9.763
			c-17.603-36.842-39.637-36.843-49.397-36.843c-6.995,0-25.952,7.014-49.506,26.335
			C404.319,395.559,391.925,412.171,388.365,419.448z"/>
	</g>
</g>
<g id="&#x30EC;&#x30A4;&#x30E4;&#x30FC;_1">
</g>
</svg>
