<?xml version="1.0" encoding="iso-8859-1"?>
<!-- Generator: Adobe Illustrator 23.1.0, SVG Export Plug-In . SVG Version: 6.00 Build 0)  -->
<svg version="1.1" xmlns="http://www.w3.org/2000/svg" xmlns:xlink="http://www.w3.org/1999/xlink" x="0px" y="0px"
	 viewBox="0 0 1000 1000" style="enable-background:new 0 0 1000 1000;" xml:space="preserve">
<g id="latinCapitalLetterJ">
	<g id="J">
		<path d="M520.321,583.129c-9.675,0-20.282-0.915-31.921-3l-72.258-9.882c-24.624-3.367-41.855-26.059-38.488-50.683
			c3.368-24.623,26.063-41.855,50.682-38.487l73.231,10.015c0.689,0.094,1.377,0.205,2.062,0.331
			c16.942,3.125,25.954,1.254,28.681,0.02c1.055-3.665,1.273-16.271-8.726-38.986c-0.179-0.406-0.352-0.814-0.518-1.226
			c-31.74-78.305-84.655-160.084-123.591-210.507c-15.189-19.67-11.557-47.931,8.114-63.12c19.669-15.189,47.93-11.557,63.12,8.114
			c20.625,26.709,91.262,122.202,135.522,231.107c10.414,23.828,15.961,46.243,16.486,66.631
			c0.639,24.739-6.201,46.889-19.779,64.054C591.531,561.932,566.833,583.127,520.321,583.129z"/>
	</g>
</g>
<g id="&#x30EC;&#x30A4;&#x30E4;&#x30FC;_1">
</g>
</svg>
