<?xml version="1.0" encoding="iso-8859-1"?>
<!-- Generator: Adobe Illustrator 23.1.0, SVG Export Plug-In . SVG Version: 6.00 Build 0)  -->
<svg version="1.1" xmlns="http://www.w3.org/2000/svg" xmlns:xlink="http://www.w3.org/1999/xlink" x="0px" y="0px"
	 viewBox="0 0 1000 1000" style="enable-background:new 0 0 1000 1000;" xml:space="preserve">
<g id="latinSmallLetterE">
	<g id="e" style="display:none;">
		<path style="display:inline;" d="M496.446,546.047c-44.737,0-87.05-15.862-119.146-44.666
			c-32.649-29.3-51.374-69.801-51.374-111.118c0-37.099,15.059-76.112,41.314-107.037c30.606-36.049,74.34-59.707,126.473-68.416
			c1.847-0.309,3.711-0.501,5.583-0.578c31.379-1.279,56.204,2.169,75.887,10.538c25.756,10.951,43.265,30.963,49.301,56.35
			c0.938,3.943,1.338,7.994,1.191,12.043c-0.624,17.176-3.163,42.556-17.944,64.564c-12.301,18.316-36.772,39.987-83.658,39.392
			l-99.886-0.692c-2.725-0.019-5.39-0.279-7.977-0.761c3.493,33.246,38.815,60.381,80.237,60.381
			c49.021,0,86.192-6.963,110.478-20.697c21.634-12.233,49.088-4.614,61.321,17.021c12.233,21.634,4.613,49.088-17.021,61.322
			C612.723,535.464,562.095,546.047,496.446,546.047z M493.248,306.903l31.596,0.219c0.111,0.001,0.223,0.002,0.334,0.003
			c4.382,0.068,6.99-0.367,8.336-0.698c0.068-0.187,0.141-0.397,0.216-0.635c-5.354-1.107-14.16-2.124-27.915-1.733
			C501.444,304.863,497.255,305.817,493.248,306.903z"/>
	</g>
</g>
<g id="&#x30EC;&#x30A4;&#x30E4;&#x30FC;_1">
</g>
</svg>
