<?xml version="1.0" encoding="iso-8859-1"?>
<!-- Generator: Adobe Illustrator 23.1.0, SVG Export Plug-In . SVG Version: 6.00 Build 0)  -->
<svg version="1.1" xmlns="http://www.w3.org/2000/svg" xmlns:xlink="http://www.w3.org/1999/xlink" x="0px" y="0px"
	 viewBox="0 0 1000 1000" style="enable-background:new 0 0 1000 1000;" xml:space="preserve">
<g id="latinSmallLetterZ">
	<g id="z">
		<path d="M500,911.329c-35.671,0-75.454-11.762-106.418-31.461c-40.316-25.649-62.519-61.423-62.519-100.729
			c0-37.613,24.378-74.958,68.643-105.155c36.466-24.877,79.017-39.729,113.823-39.729c28.099,0,58.608,0.001,87.773,7.476
			c-3.236-16.843-8.319-34.53-14.86-51.227c-12.895-32.913-27.287-51.739-36.854-58.748
			c-33.833-19.298-80.455-39.575-142.864-29.102c-16.598,2.785-33.36-3.926-43.454-17.392s-11.829-31.439-4.499-46.588
			c12.165-25.141,38.815-58.464,69.674-97.05c3.616-4.521,7.258-9.075,10.883-13.626c-32.384,4.375-63.97,5.41-93.462,2.907
			c-24.764-2.102-43.135-23.881-41.033-48.645c2.103-24.764,23.88-43.131,48.645-41.033c51.906,4.407,113.07-5.32,172.212-27.388
			c15.731-5.871,33.42-2.494,45.883,8.756c12.464,11.25,17.628,28.502,13.396,44.75c-8.168,31.35-38.028,70.213-86.236,130.491
			c-4.103,5.131-8.301,10.38-12.479,15.635c46.218,7.639,82.886,25.676,109.869,41.222c0.884,0.509,1.75,1.048,2.597,1.616
			c35.656,23.907,58.573,68.318,71.521,101.365c15.942,40.693,25.086,85.252,25.086,122.249c0,40.132-2.355,70.872-7.413,96.74
			c-6.162,31.521-16.652,56.523-32.069,76.438C615.889,904.711,551.57,911.329,500,911.329z M421.065,779.334
			c0.15,6.997,8.292,16.624,20.828,24.6c16.61,10.567,39.418,17.396,58.107,17.396c59.05,0,76.272-12.465,84.68-23.324
			c8.811-11.381,14.678-30.326,17.837-58.18c-1.761-0.89-3.482-1.905-5.155-3.05c-16.992-11.622-45.464-12.521-83.832-12.521
			c-12.655,0-36.988,6.992-60.507,22.344C430.637,761.21,421.765,775.083,421.065,779.334z"/>
	</g>
</g>
<g id="&#x30EC;&#x30A4;&#x30E4;&#x30FC;_1">
</g>
</svg>
