<?xml version="1.0" encoding="iso-8859-1"?>
<!-- Generator: Adobe Illustrator 23.1.0, SVG Export Plug-In . SVG Version: 6.00 Build 0)  -->
<svg version="1.1" xmlns="http://www.w3.org/2000/svg" xmlns:xlink="http://www.w3.org/1999/xlink" x="0px" y="0px"
	 viewBox="0 0 1000 1000" style="enable-background:new 0 0 1000 1000;" xml:space="preserve">
<g id="lessThanSign">
	<g id="_x3C_">
		<path d="M591.904,524.798c-4.893,0-9.867-0.804-14.75-2.497c-47.064-16.326-110.977-66.607-201.134-158.236
			c-16.732-17.005-17.285-44.114-1.26-61.788c48.983-54.024,93.216-93.103,147.903-130.671c20.483-14.072,48.499-8.875,62.571,11.61
			c14.072,20.485,8.874,48.499-11.61,62.571c-38.132,26.196-69.69,52.41-102.7,85.743
			c80.861,78.555,119.343,100.058,135.726,105.741c23.479,8.145,35.911,33.782,27.767,57.262
			C627.966,513.131,610.539,524.797,591.904,524.798z"/>
	</g>
</g>
<g id="&#x30EC;&#x30A4;&#x30E4;&#x30FC;_1">
</g>
</svg>
