<?xml version="1.0" encoding="iso-8859-1"?>
<!-- Generator: Adobe Illustrator 23.1.0, SVG Export Plug-In . SVG Version: 6.00 Build 0)  -->
<svg version="1.1" xmlns="http://www.w3.org/2000/svg" xmlns:xlink="http://www.w3.org/1999/xlink" x="0px" y="0px"
	 viewBox="0 0 1000 1000" style="enable-background:new 0 0 1000 1000;" xml:space="preserve">
<g id="numberSign">
	<g id="_x23_">
		<g>
			<path d="M660.23,266.59c24.71-2.6,42.64-24.75,40.03-49.47c-2.6-24.71-24.75-42.63-49.47-40.03c-18.88,1.99-37.38,3.85-55.54,5.6
				c-2.18-21.53-19.67-38.94-41.98-40.32c-24.79-1.55-46.16,17.31-47.71,42.12c-0.12,2-0.25,4.01-0.4,6.02
				c-8.12,0.64-16.16,1.24-24.15,1.82c0.75-3.72,1.51-7.49,2.27-11.3c4.86-24.38-10.96-48.07-35.33-52.93
				c-24.38-4.86-48.07,10.95-52.93,35.33c-2.37,11.87-4.7,23.38-7,34.53c-15.25,0.73-30.28,1.36-45.11,1.88
				c-24.83,0.87-44.26,21.71-43.39,46.54c0.85,24.31,20.82,43.43,44.94,43.43c0.53,0,1.07-0.01,1.61-0.03
				c7.33-0.26,14.7-0.54,22.13-0.85c-3.05,13.13-6.04,25.52-8.95,37.17c-0.39-0.07-0.77-0.15-1.15-0.23
				c-24.35-4.97-48.12,10.73-53.09,35.08c-4.58,22.37,8.31,44.25,29.32,51.52c-5.96,17.06-11.58,30.19-16.9,39.49
				c-12.34,21.57-4.85,49.07,16.72,61.4c7.05,4.03,14.72,5.95,22.3,5.95c15.62,0,30.8-8.14,39.1-22.67
				c8.31-14.53,17.85-34.97,29.68-72.14c12.74,0.67,25.89,1,39.48,1c1.33,0,2.67,0,4.02-0.01c-4.69,20.37-9.84,41.42-15.49,63.31
				c-6.21,24.06,8.26,48.6,32.33,54.81c3.77,0.97,7.55,1.44,11.27,1.44c20.03,0,38.31-13.48,43.54-33.77
				c8.18-31.7,15.38-61.79,21.66-90.66c25.68-2.39,52.77-5.66,81.42-9.81c24.59-3.57,41.64-26.4,38.07-50.99
				c-3.56-24.6-26.4-41.65-50.99-38.08c-17.62,2.56-34.55,4.75-50.84,6.6c3.01-18.5,5.62-36.63,7.85-54.53
				C611.19,271.61,635.4,269.21,660.23,266.59z M487.24,335.21c-13.01,0.37-25.52,0.43-37.58,0.17c3.81-15.61,7.8-32.71,12-51.5
				c11.24-0.75,22.6-1.54,34.1-2.39C493.32,299.04,490.49,316.9,487.24,335.21z"/>
		</g>
	</g>
</g>
<g id="&#x30EC;&#x30A4;&#x30E4;&#x30FC;_1">
</g>
</svg>
