<?xml version="1.0" encoding="iso-8859-1"?>
<!-- Generator: Adobe Illustrator 23.1.0, SVG Export Plug-In . SVG Version: 6.00 Build 0)  -->
<svg version="1.1" xmlns="http://www.w3.org/2000/svg" xmlns:xlink="http://www.w3.org/1999/xlink" x="0px" y="0px"
	 viewBox="0 0 1000 1000" style="enable-background:new 0 0 1000 1000;" xml:space="preserve">
<g id="plusSign">
	<g id="_x2B_">
		<g>
			<path d="M672.97,279.18c-0.33,24.64-20.41,44.4-44.98,44.4c-0.2,0-0.41,0-0.61-0.01h-0.91c-16.91,0-54.05,5.85-96.57,13.89
				l2.68,80.56c0.83,24.84-18.64,45.64-43.48,46.47c-0.5,0.02-1.02,0.03-1.52,0.03c-24.16,0-44.14-19.17-44.95-43.5l-2.18-65.32
				c-21.14,4.57-41.13,9.07-58.21,13.05c-3.44,0.8-6.87,1.18-10.26,1.18c-20.44,0-38.94-14.02-43.78-34.79
				c-5.65-24.2,9.4-48.4,33.6-54.04c7.76-1.81,37.8-8.76,75.61-16.8l-2.5-74.92c-0.83-24.84,18.64-45.65,43.48-46.48
				c24.82-0.83,45.64,18.64,46.47,43.48l2,60.13c40.62-7.36,78.56-12.94,100.15-12.94c0.54,0,1.05,0.01,1.57,0.01
				C653.43,233.92,673.31,254.33,672.97,279.18z"/>
		</g>
	</g>
</g>
<g id="&#x30EC;&#x30A4;&#x30E4;&#x30FC;_1">
</g>
</svg>
