<?xml version="1.0" encoding="iso-8859-1"?>
<!-- Generator: Adobe Illustrator 23.1.0, SVG Export Plug-In . SVG Version: 6.00 Build 0)  -->
<svg version="1.1" xmlns="http://www.w3.org/2000/svg" xmlns:xlink="http://www.w3.org/1999/xlink" x="0px" y="0px"
	 viewBox="0 0 1000 1000" style="enable-background:new 0 0 1000 1000;" xml:space="preserve">
<g id="semicolon">
	<g id="_x3B_">
		<g>
			<path d="M497.974,366.136c-19.068,0.001-36.769-12.214-42.866-31.354c-4.867-15.277-1.148-31.235,8.462-42.661
				c-0.973-9.101,0.812-18.582,5.711-27.13c12.359-21.561,39.856-29.022,61.42-16.662c19.783,11.34,30.524,32.938,28.03,56.365
				c-2.874,27.002-22.237,51.39-47.088,59.306C507.103,365.447,502.499,366.135,497.974,366.136z M485.904,326.389
				c0.013,0.007,0.026,0.015,0.04,0.022C485.931,326.403,485.917,326.396,485.904,326.389z"/>
		</g>
		<g>
			<path d="M475.128,703.319c-12.128,0-24.219-4.873-33.09-14.491c-16.85-18.269-15.699-46.737,2.57-63.588
				c5.62-5.183,15.225-19.294,23.798-42.005c7.367-19.515,11.76-39.886,11.463-53.163c-0.555-24.846,19.137-45.438,43.984-45.994
				c0.341-0.008,0.685-0.011,1.024-0.011c24.388,0,44.422,19.489,44.97,43.995c0.758,33.92-10.478,69.043-17.241,86.961
				c-7.148,18.934-22.757,54.032-46.98,76.375C496.976,699.377,486.037,703.319,475.128,703.319z"/>
		</g>
	</g>
</g>
<g id="&#x30EC;&#x30A4;&#x30E4;&#x30FC;_1">
</g>
</svg>
