<?xml version="1.0" encoding="iso-8859-1"?>
<!-- Generator: Adobe Illustrator 24.3.0, SVG Export Plug-In . SVG Version: 6.00 Build 0)  -->
<svg version="1.1" xmlns="http://www.w3.org/2000/svg" xmlns:xlink="http://www.w3.org/1999/xlink" x="0px" y="0px"
	 viewBox="0 0 1000 1000" style="enable-background:new 0 0 1000 1000;" xml:space="preserve">
<g id="copyrightSign">
	<g>
		<g>
			<path d="M499.715,564c-69.73,0-134.01-22.956-180.999-64.64c-49.425-43.845-76.645-105.651-76.645-174.035
				c0-40.255,8.14-82.014,23.539-120.761c17.494-44.018,44.115-82.72,76.986-111.921c19.09-16.959,40.209-30.781,63.084-41.392
				C409.354,30.091,427.806,14,450.017,14c29.914,0,58.987,3.884,86.588,11.398c11.949,0.247,24.122,1.103,36.512,2.573
				c16.847,1.999,30.411,13.063,36.392,27.734c22.392,12.955,43.041,28.786,61.476,47.305
				c56.066,56.324,86.944,132.246,86.944,213.779c0,66.596-26.392,128.774-74.313,175.08C635.477,538.384,570.167,564,499.715,564z
				 M523.095,115.348c-48.096,1.096-88.579,16.022-120.725,44.579c-51.831,46.045-70.298,115.63-70.298,165.398
				C332.072,412.863,401.01,474,499.715,474c94.325,0,168.212-69.055,168.212-157.21
				C667.928,220.743,609.211,143.398,523.095,115.348z"/>
		</g>
		<g>
			<path d="M484.161,457.394c-43.893,0-76.584-11.366-99.942-34.749c-22.999-23.023-34.637-56.356-34.592-99.075
				c-0.046-54.235,19.935-101.034,56.264-131.689c34.589-29.188,80.854-40.594,130.265-32.121
				c24.495,4.201,40.947,27.464,36.746,51.959c-4.201,24.497-27.47,40.944-51.959,36.746c-23.141-3.97-42.851,0.251-57.01,12.199
				c-15.697,13.246-24.329,35.589-24.306,62.915c-0.019,17.543,2.917,30.105,8.266,35.46c5.365,5.371,18.186,8.336,36.108,8.354
				c27.27-0.231,31.615-7.373,39.492-20.316c12.921-21.229,40.604-27.967,61.836-15.046c21.23,12.92,27.967,40.605,15.047,61.835
				c-17.838,29.31-47.13,63.019-115.882,63.526C484.382,457.393,484.271,457.394,484.161,457.394z"/>
		</g>
	</g>
</g>
<g id="&#x30EC;&#x30A4;&#x30E4;&#x30FC;_1">
</g>
</svg>
