<?xml version="1.0" encoding="iso-8859-1"?>
<!-- Generator: Adobe Illustrator 24.3.0, SVG Export Plug-In . SVG Version: 6.00 Build 0)  -->
<svg version="1.1" xmlns="http://www.w3.org/2000/svg" xmlns:xlink="http://www.w3.org/1999/xlink" x="0px" y="0px"
	 viewBox="0 0 1000 1000" style="enable-background:new 0 0 1000 1000;" xml:space="preserve">
<g id="diaresis">
	<g>
		<g>
			<path d="M436.464,205.911c-7.753,0-15.607-2.005-22.773-6.22l-26.506-15.592c-21.421-12.601-28.572-40.181-15.971-61.603
				c12.601-21.422,40.181-28.572,61.603-15.971l26.506,15.592c21.421,12.601,28.572,40.181,15.971,61.603
				C466.908,197.975,451.887,205.911,436.464,205.911z"/>
		</g>
		<g>
			<path d="M590,197.241c-11.517,0-23.033-4.394-31.819-13.18l-16.285-16.285c-17.574-17.574-17.574-46.066,0-63.64
				c17.572-17.573,46.066-17.573,63.639,0l16.285,16.285c17.574,17.574,17.574,46.066,0,63.64
				C613.033,192.848,601.517,197.241,590,197.241z"/>
		</g>
	</g>
</g>
<g id="&#x30EC;&#x30A4;&#x30E4;&#x30FC;_1">
</g>
</svg>
