<?xml version="1.0" encoding="iso-8859-1"?>
<!-- Generator: Adobe Illustrator 24.3.0, SVG Export Plug-In . SVG Version: 6.00 Build 0)  -->
<svg version="1.1" xmlns="http://www.w3.org/2000/svg" xmlns:xlink="http://www.w3.org/1999/xlink" x="0px" y="0px"
	 viewBox="0 0 1000 1000" style="enable-background:new 0 0 1000 1000;" xml:space="preserve">
<g id="invertedQuestionMark">
	<g>
		<g>
			<path d="M467.545,280.848c-2.764,0-5.512-0.256-8.207-0.755c-9.254,1.686-19.107,0.497-28.163-4.036
				c-22.215-11.122-31.225-38.121-20.115-60.342c14.88-29.763,38.769-32.976,48.349-32.976c9.58,0,33.468,3.212,48.35,32.975
				c11.115,22.229,2.105,49.259-20.123,60.375C481.176,279.316,474.307,280.847,467.545,280.848z"/>
		</g>
		<g>
			<path d="M519.78,768.124c-32.618,0-64.856-8.062-90.899-22.748c-42.027-23.701-66.131-62.984-66.131-107.778
				c0-35.031,12.877-70.08,36.26-98.69c18.568-22.72,42.735-40.33,70.947-51.891c2.387-30.765-0.651-54.337-9.511-77.3
				c-8.946-23.187,2.598-49.236,25.785-58.182c23.187-8.946,49.235,2.598,58.182,25.785c17.178,44.521,20.565,89.497,11.328,150.388
				c-2.761,18.199-16.327,32.882-34.252,37.07c-47.229,11.037-68.739,45.484-68.739,72.82c0,4.431,0,17.914,20.34,29.385
				c27.111,15.289,69.227,14.643,95.876-1.473c21.27-12.859,48.933-6.043,61.792,15.224c12.859,21.268,6.043,48.933-15.224,61.792
				c-27.369,16.549-60.091,25.399-94.63,25.596C520.529,768.123,520.154,768.124,519.78,768.124z M511.25,520.958h0.01H511.25z"/>
		</g>
	</g>
</g>
<g id="&#x30EC;&#x30A4;&#x30E4;&#x30FC;_1">
</g>
</svg>
