<?xml version="1.0" encoding="iso-8859-1"?>
<!-- Generator: Adobe Illustrator 24.3.0, SVG Export Plug-In . SVG Version: 6.00 Build 0)  -->
<svg version="1.1" xmlns="http://www.w3.org/2000/svg" xmlns:xlink="http://www.w3.org/1999/xlink" x="0px" y="0px"
	 viewBox="0 0 1000 1000" style="enable-background:new 0 0 1000 1000;" xml:space="preserve">
<g id="latinSmallLetterThorn">
	<g>
		<g>
			<path d="M626.54,301.8c-31-27.18-70.09-42.78-107.16-42.78h-0.92c-38.94,0-68.98,4.77-92.99,14.88
				c-9.03-47.46-15.23-90.52-14.22-124.56c0.74-24.84-18.8-45.58-43.64-46.32c-24.83-0.72-45.58,18.8-46.32,43.64
				c-1.89,63.8,14.32,140.14,33.11,228.53c0.1,0.47,0.2,0.93,0.3,1.4c1.03,4.88,2.08,9.79,3.12,14.74
				c16.05,75.81,33.14,160.09,38.23,241.48c1.49,23.85,21.3,42.19,44.87,42.19c0.94,0,1.89-0.03,2.85-0.09
				c24.8-1.55,43.65-22.91,42.1-47.72c-2.13-34.04-6.11-68.11-11.17-101.66c15.83,5.21,33.79,8.48,54.56,8.48
				c41.83,0,78.22-11.61,105.25-33.58c28.6-23.24,44.35-56.13,44.35-92.6C678.86,369.61,659.79,330.96,626.54,301.8z M529.26,444.01
				c-30.36,0-47.08-12.76-72.39-32.08c-1.07-0.81-2.16-1.57-3.27-2.26c-2.59-12.62-5.2-25.05-7.79-37.27
				c2.31-8.28,6.18-11.15,10.3-13.47c8.07-4.53,25.43-9.91,62.45-9.91h0.73c31.86,0,69.57,31.88,69.57,58.81
				C588.86,434.53,556.75,444.01,529.26,444.01z"/>
		</g>
		<g>
			<path d="M354.7,376.59c0.2,5.15,1.28,10.12,3.12,14.74C356.78,386.38,355.73,381.47,354.7,376.59z"/>
		</g>
	</g>
</g>
<g id="&#x30EC;&#x30A4;&#x30E4;&#x30FC;_1">
</g>
</svg>
