<?xml version="1.0" encoding="iso-8859-1"?>
<!-- Generator: Adobe Illustrator 24.3.0, SVG Export Plug-In . SVG Version: 6.00 Build 0)  -->
<svg version="1.1" xmlns="http://www.w3.org/2000/svg" xmlns:xlink="http://www.w3.org/1999/xlink" x="0px" y="0px"
	 viewBox="0 0 1000 1000" style="enable-background:new 0 0 1000 1000;" xml:space="preserve">
<g id="latinCapitalLetterAE">
	<g>
		<g>
			<path d="M696.4,436.75c-49.03-8.59-88.29-9.22-131.58-5.01c-0.76-16.39-2.14-34.12-3.96-52.49c36.88-1.25,73.9,3.15,109.36,8.64
				c24.57,3.81,47.55-13.02,51.36-37.58c3.8-24.56-13.03-47.56-37.59-51.36c-42.73-6.61-87.76-11.86-134.28-9.46
				c-2.84-19.63-5.83-38.68-8.72-56.32c45.79,3.71,90.44,4.36,130.48-3.23c24.42-4.62,40.46-28.17,35.83-52.59
				c-4.62-24.41-28.17-40.46-52.59-35.83c-50.84,9.63-117.21,1.68-187.47-6.74l-12.28-1.46c-20.87-2.49-40.68,9.81-47.72,29.62
				c-36.86,103.8-80.9,198.47-134.62,289.42c-12.43,21.04-5.8,48.16,14.95,61.08c7.4,4.61,15.62,6.81,23.75,6.81
				c14.68,0,29.04-7.17,37.67-20.32c36.36-55.44,78.53-87.09,123.12-103.98c3.41,36.64,4.35,64.97,2.56,82.46
				c-1.42,13.87,3.66,27.61,13.76,37.21c8.43,8.01,19.55,12.38,31,12.38c2.28,0,4.57-0.17,6.86-0.53
				c59.98-9.24,98.41-11.91,154.58-2.07c24.49,4.29,47.8-12.08,52.09-36.56C737.25,464.36,720.88,441.04,696.4,436.75z
				 M446.32,309.34c3.86-8.89,7.65-17.83,11.37-26.83c1.15,7.48,2.23,14.81,3.28,22C456.03,306.01,451.15,307.62,446.32,309.34z"/>
		</g>
	</g>
</g>
<g id="&#x30EC;&#x30A4;&#x30E4;&#x30FC;_1">
</g>
</svg>
