<?xml version="1.0" encoding="iso-8859-1"?>
<!-- Generator: Adobe Illustrator 24.3.0, SVG Export Plug-In . SVG Version: 6.00 Build 0)  -->
<svg version="1.1" xmlns="http://www.w3.org/2000/svg" xmlns:xlink="http://www.w3.org/1999/xlink" x="0px" y="0px"
	 viewBox="0 0 1000 1000" style="enable-background:new 0 0 1000 1000;" xml:space="preserve">
<g id="latinCapitalLetterOWithStroke">
	<g>
		<g>
			<path d="M607.6,202.8c-4.68-2.85-9.56-5.57-14.63-8.15c4.46-7.75,9.05-15.53,13.78-23.33c12.88-21.25,6.1-48.92-15.16-61.8
				c-21.25-12.89-48.92-6.1-61.81,15.16c-8.4,13.85-16.41,27.67-24.09,41.45c-12.32-2.37-25.22-4.3-38.67-5.81
				c-18.97-2.13-36.51,7.88-44.87,23.82c-67.16,26.65-106.09,79.55-106.09,147.09c0,48.51,20.03,92.23,56.6,124.08
				c-6.45,15.12-13.01,30.35-19.7,45.53c-10.04,22.73,0.26,49.3,23,59.33c5.91,2.61,12.07,3.84,18.14,3.84
				c17.29,0,33.77-10.01,41.2-26.84c5.98-13.56,11.83-27.09,17.57-40.52c13.31,3.28,26.72,5.01,39.68,5.01
				c43.62,0,90.06-17.72,127.43-48.62c40.64-33.61,63.96-78.01,63.96-121.81C683.94,277.59,657.54,233.18,607.6,202.8z
				 M453.6,268.47c-14.66,31.33-28.23,62.41-41.34,93.17c-4.13-9.24-6.2-19.39-6.2-30.41C406.06,297.69,428.23,278.94,453.6,268.47z
				 M492.55,411.66c-1.17,0-2.41-0.04-3.7-0.13c19.69-46.53,39.41-91.98,61.82-137.42c3.58,1.78,6.97,3.64,10.15,5.58
				c29.35,17.86,33.12,36.92,33.12,51.54C593.94,368.06,538.98,411.66,492.55,411.66z"/>
		</g>
	</g>
</g>
<g id="&#x30EC;&#x30A4;&#x30E4;&#x30FC;_1">
</g>
</svg>
