<?xml version="1.0" encoding="iso-8859-1"?>
<!-- Generator: Adobe Illustrator 24.3.0, SVG Export Plug-In . SVG Version: 6.00 Build 0)  -->
<svg version="1.1" xmlns="http://www.w3.org/2000/svg" xmlns:xlink="http://www.w3.org/1999/xlink" x="0px" y="0px"
	 viewBox="0 0 1000 1000" style="enable-background:new 0 0 1000 1000;" xml:space="preserve">
<g id="latinSmallLetterAE">
	<g>
		<path d="M621.986,544.021c-17.867,0-35.577-2.882-52.623-8.736c-29.73-10.209-54.614-28.635-71.368-51.999
			c-2.042,3.635-4.215,7.114-6.519,10.432c-20.928,30.143-52.165,46.745-87.958,46.745c-18.932,0-46.641-2.61-71.132-15.042
			c-32.172-16.332-50.625-45.865-50.625-81.028c0-19.813,6.663-48.445,38.402-72.331c16.456-12.385,38.05-22.222,66.017-30.074
			c0.578-0.162,1.156-0.323,1.737-0.483c-0.046-0.022-0.094-0.045-0.14-0.068c-29.759-14.416-64.036-22.683-94.043-22.683
			c-24.853,0-45-20.147-45-45c0-24.853,20.147-45,45-45c47.864,0,100.656,13.707,144.84,37.605
			c16.5,8.925,30.713,18.678,42.486,29.061c7.307-21.29,17.961-39.284,31.644-53.208c1.743-1.773,3.631-3.4,5.643-4.862
			c30.861-22.426,59.717-32.988,88.218-32.32c20.536,0.489,50.899,7.567,78.928,38.517c1.604,1.77,3.063,3.665,4.365,5.667
			c14.806,22.758,16.267,53,3.907,80.898c-16.611,37.496-53.408,64.325-98.559,71.927c-9.026,1.834-19.842,3.278-32.496,4.68
			c0.909,4.733,2.011,9.386,3.31,13.888c3.646,12.559,16.136,23.913,32.573,29.558c14.7,5.048,44.807,9.572,81.282-16.839
			c20.133-14.575,48.265-10.071,62.84,10.059c14.575,20.13,10.071,48.265-10.059,62.84
			C698.245,531.138,659.763,544.021,621.986,544.021z M372.895,445.082c4.412,2.277,14.798,5.379,30.624,5.379
			c5.201,0,9.362-1.35,14.028-8.071c2.289-3.297,5.253-8.791,7.87-17.517C390.257,432.873,377.183,441.396,372.895,445.082z
			 M574.823,307.636c-1.714,2.139-3.293,4.636-4.735,7.443c2.926-0.439,5.51-0.884,7.671-1.337c0.687-0.144,1.376-0.272,2.069-0.384
			c16.911-2.728,26.208-10.953,30.119-16.819c-2.752-1.47-4.568-1.513-5.522-1.536C601.073,294.921,591.73,296.061,574.823,307.636z
			"/>
	</g>
</g>
<g id="&#x30EC;&#x30A4;&#x30E4;&#x30FC;_1">
</g>
</svg>
