<?xml version="1.0" encoding="iso-8859-1"?>
<!-- Generator: Adobe Illustrator 24.3.0, SVG Export Plug-In . SVG Version: 6.00 Build 0)  -->
<svg version="1.1" xmlns="http://www.w3.org/2000/svg" xmlns:xlink="http://www.w3.org/1999/xlink" x="0px" y="0px"
	 viewBox="0 0 1000 1000" style="enable-background:new 0 0 1000 1000;" xml:space="preserve">
<g id="latinCapitalLetterEth">
	<g>
		<g>
			<path d="M654.99,212.62c-28.7-25.24-69.57-42.15-121.48-50.26c-45.89-7.18-100.15-7.1-156.92,0.22
				c-14.78,1.91-27.66,11.01-34.39,24.31c-6.74,13.3-6.45,29.07,0.77,42.11c10.36,18.72,19.71,36.62,28.07,53.68
				c-14.06,3.77-28.08,8.41-42.27,13.95c-23.15,9.04-34.59,35.13-25.55,58.28c6.94,17.78,23.93,28.65,41.93,28.65
				c5.44,0,10.98-1,16.36-3.1c15.15-5.92,29.95-10.48,44.94-13.75c11.38,33.69,16.88,62.35,16.44,85.78
				c-0.46,24.11,18.14,44.16,41.96,45.75c7.1,5.6,15.96,9.12,25.7,9.59c2.41,0.11,4.84,0.17,7.28,0.17
				c47.94,0,99.46-22.09,139.22-60c40.5-38.63,62.81-87.55,62.81-137.76C699.86,272.19,684.34,238.43,654.99,212.62z M574.94,382.86
				c-18.81,17.93-42.6,30.32-64.18,34c-2.19-17.27-6.04-35.57-11.59-55.07c7.7,0.65,15.64,1.52,23.87,2.61
				c24.64,3.25,47.25-14.08,50.51-38.72s-14.08-47.25-38.72-50.51c-24.86-3.29-47.99-4.91-70.04-4.79
				c-3.44-7.6-7.08-15.35-10.92-23.25c64.11-0.71,116.63,11.04,141.69,33.07c9.89,8.7,14.3,17.96,14.3,30.04
				C609.86,344.45,587.98,370.43,574.94,382.86z"/>
		</g>
	</g>
</g>
<g id="&#x30EC;&#x30A4;&#x30E4;&#x30FC;_1">
</g>
</svg>
