<?xml version="1.0" encoding="iso-8859-1"?>
<!-- Generator: Adobe Illustrator 24.3.0, SVG Export Plug-In . SVG Version: 6.00 Build 0)  -->
<svg version="1.1" xmlns="http://www.w3.org/2000/svg" xmlns:xlink="http://www.w3.org/1999/xlink" x="0px" y="0px"
	 viewBox="0 0 1000 1000" style="enable-background:new 0 0 1000 1000;" xml:space="preserve">
<g id="leftPointingDoubleAngleQuotationMark">
	<g>
		<g>
			<path d="M463.228,529.633c-13.967,0-27.733-6.481-36.53-18.673c-36.019-49.92-87.897-85.576-138.595-116.671
				c-12.955-7.946-21.024-21.894-21.455-37.085c-0.431-15.191,6.836-29.574,19.32-38.24
				c37.399-25.962,78.034-64.979,120.777-115.964c15.967-19.045,44.349-21.542,63.395-5.575
				c19.045,15.966,21.542,44.35,5.575,63.395c-29.721,35.453-58.939,66.021-87.342,91.408
				c40.653,28.583,79.697,62.257,111.31,106.07c14.542,20.154,9.992,48.281-10.162,62.823
				C481.558,526.867,472.349,529.633,463.228,529.633z"/>
		</g>
		<g>
			<path d="M688.394,519.191c-12.855,0-25.618-5.479-34.52-16.104c-35.203-42.025-85.243-86.387-133.857-118.67
				c-13.335-8.855-20.962-24.128-20.03-40.108c0.933-15.98,10.284-30.262,24.559-37.507c52.587-26.688,91.187-55.2,111.625-82.452
				c14.911-19.882,43.118-23.911,63-9c19.882,14.912,23.912,43.118,9,63c-19.088,25.451-46.368,49.958-81.456,73.231
				c35.776,29.201,69.588,62,96.152,93.712c15.959,19.052,13.452,47.434-5.6,63.393C708.841,515.744,698.588,519.19,688.394,519.191
				z"/>
		</g>
	</g>
</g>
<g id="&#x30EC;&#x30A4;&#x30E4;&#x30FC;_1">
</g>
</svg>
