<?xml version="1.0" encoding="iso-8859-1"?>
<!-- Generator: Adobe Illustrator 24.3.0, SVG Export Plug-In . SVG Version: 6.00 Build 0)  -->
<svg version="1.1" xmlns="http://www.w3.org/2000/svg" xmlns:xlink="http://www.w3.org/1999/xlink" x="0px" y="0px"
	 viewBox="0 0 1000 1000" style="enable-background:new 0 0 1000 1000;" xml:space="preserve">
<g id="poundSign">
	<g>
		<g>
			<path d="M669.55,486.04c-3.5,22.17-22.64,37.99-44.4,37.99c-2.33,0-4.69-0.18-7.07-0.55c-73.48-11.6-135.08-8.59-188.31,9.2
				c-4.7,1.57-9.51,2.32-14.26,2.32c-14.52,0-28.53-7.05-37.09-19.51c-11.37-16.54-10.41-38.6,2.35-54.1
				c16.37-19.88,20.2-48.37,16.54-78c-2.89,0.63-4.52,1.01-4.59,1.02c-3.41,0.79-6.82,1.17-10.17,1.17
				c-20.48,0-39-14.07-43.81-34.88c-5.29-22.9,7.91-45.75,29.84-52.9c-7.93-14.23-16.68-26.29-25.23-34.69
				c-11.88-11.68-16.34-28.98-11.57-44.96c15.36-51.45,50.73-88.18,97.05-100.76c38.63-10.49,78.9-1.85,105.09,22.55
				c18.18,16.95,19.18,45.42,2.24,63.6c-16.95,18.19-45.42,19.19-63.6,2.24c-1.56-1.45-9.22-4.51-20.14-1.54
				c-6.43,1.75-16.56,6.44-24.99,19c12.45,16.73,23.75,36.31,33.14,57.3c59.87-8.18,83.75-3.94,97.87,0.88
				c23.52,8.03,36.07,33.61,28.04,57.13c-7.99,23.38-33.33,35.93-56.74,28.17c-1.37-0.31-11.89-2.25-43.66,1.33
				c2.93,21.31,3.21,41.75,0.91,60.98c44.51-4.61,92.58-2.75,145.13,5.55C656.66,438.45,673.42,461.49,669.55,486.04z"/>
		</g>
	</g>
</g>
<g id="&#x30EC;&#x30A4;&#x30E4;&#x30FC;_1">
</g>
</svg>
