<?xml version="1.0" encoding="iso-8859-1"?>
<!-- Generator: Adobe Illustrator 24.3.0, SVG Export Plug-In . SVG Version: 6.00 Build 0)  -->
<svg version="1.1" xmlns="http://www.w3.org/2000/svg" xmlns:xlink="http://www.w3.org/1999/xlink" x="0px" y="0px"
	 viewBox="0 0 1000 1000" style="enable-background:new 0 0 1000 1000;" xml:space="preserve">
<g id="superscriptTwo">
	<g>
		<path d="M564.75,291.396c-17.712,0-38.369-3.897-57.948-11.137c-23.228-8.59-54.41-25.499-71.054-57.273
			c-2.561-4.889-4.201-10.207-4.837-15.688c-3.786-32.599,7.65-56.465,23.809-77.166c-13.617-3.587-27.598-8.266-42.637-13.555
			c-23.446-8.244-35.769-33.934-27.524-57.379c8.244-23.446,33.933-35.771,57.379-27.524c47.291,16.629,65.446,20.997,99.564,9
			c18.73-6.587,39.566-0.119,51.273,15.919c11.708,16.038,11.52,37.854-0.462,53.687c-17.238,22.778-33.688,39.832-46.904,53.535
			c-11.684,12.112-18.56,19.584-22.089,24.795c3.349,2.226,7.853,4.622,13.737,6.874c13.969,5.346,26.225,6.166,29.214,5.865
			c24.515-3.702,47.42,13.128,51.194,37.648c3.782,24.563-13.064,47.542-37.628,51.324
			C575.149,291.043,570.082,291.396,564.75,291.396z"/>
	</g>
</g>
<g id="&#x30EC;&#x30A4;&#x30E4;&#x30FC;_1">
</g>
</svg>
