<?xml version="1.0" encoding="iso-8859-1"?>
<!-- Generator: Adobe Illustrator 24.3.0, SVG Export Plug-In . SVG Version: 6.00 Build 0)  -->
<svg version="1.1" xmlns="http://www.w3.org/2000/svg" xmlns:xlink="http://www.w3.org/1999/xlink" x="0px" y="0px"
	 viewBox="0 0 1000 1000" style="enable-background:new 0 0 1000 1000;" xml:space="preserve">
<g id="tilde">
	<g>
		<path style="fill:#FFFFFF;" d="M403.227,321.486c25.164-23.758,40.661-41.437,90.111-21.966
			c38.916,18.512,70.411,16.512,103.435-13.18"/>
		<path d="M403.235,366.486c-11.952,0-23.876-4.731-32.729-14.107c-17.062-18.071-16.243-46.552,1.828-63.613
			c1.045-0.987,2.073-1.962,3.087-2.925c25.486-24.197,60.39-57.334,134.404-28.191c0.961,0.379,1.909,0.791,2.843,1.234
			c24.305,11.561,35.918,10.269,54.019-6.006c18.482-16.617,46.934-15.104,63.55,3.376c16.617,18.481,15.105,46.934-3.376,63.55
			c-23.553,21.176-47.942,32.925-74.564,35.92c-24.325,2.735-49.435-2.114-76.708-14.823c-12.5-4.781-18.847-5.064-20.483-4.521
			c-3.394,1.13-11.003,8.355-17.717,14.729c-1.074,1.02-2.162,2.052-3.269,3.097C425.425,362.416,414.318,366.486,403.235,366.486z"
			/>
	</g>
</g>
<g id="&#x30EC;&#x30A4;&#x30E4;&#x30FC;_1">
</g>
</svg>
