<?xml version="1.0" encoding="iso-8859-1"?>
<!-- Generator: Adobe Illustrator 23.1.0, SVG Export Plug-In . SVG Version: 6.00 Build 0)  -->
<svg version="1.1" xmlns="http://www.w3.org/2000/svg" xmlns:xlink="http://www.w3.org/1999/xlink" x="0px" y="0px"
	 viewBox="0 0 1000 1000" style="enable-background:new 0 0 1000 1000;" xml:space="preserve">
<g id="latinSmallLetterU">
	<g id="u">
		<path d="M515.268,543.891c-24.107,0-47.511-8.472-67.682-24.499c-16.122-12.811-30.389-30.485-42.405-52.535
			c-19.721-36.186-33.253-84.171-38.105-135.116c-2.356-24.741,15.79-46.708,40.531-49.064c24.735-2.357,46.708,15.79,49.063,40.531
			c7.711,80.967,39.326,130.683,58.597,130.683c17.438,0,27.858-35.146,27.858-69.126c0-19.129-12.344-43-18.003-48.855
			c-19.076-15.361-22.384-43.24-7.294-62.654c15.253-19.624,43.525-23.167,63.146-7.916c28.756,22.35,52.151,75.924,52.151,119.424
			C633.126,479.943,585.763,543.891,515.268,543.891z M525.726,336.386c0.006,0.005,0.013,0.01,0.019,0.015
			C525.738,336.396,525.731,336.391,525.726,336.386z"/>
	</g>
</g>
<g id="&#x30EC;&#x30A4;&#x30E4;&#x30FC;_1">
</g>
</svg>
