<?xml version="1.0" encoding="iso-8859-1"?>
<!-- Generator: Adobe Illustrator 23.1.0, SVG Export Plug-In . SVG Version: 6.00 Build 0)  -->
<svg version="1.1" xmlns="http://www.w3.org/2000/svg" xmlns:xlink="http://www.w3.org/1999/xlink" x="0px" y="0px"
	 viewBox="0 0 1000 1000" style="enable-background:new 0 0 1000 1000;" xml:space="preserve">
<g id="latinCapitalLetterQ">
	<g id="Q">
		<g>
			<path d="M677.92,497.99c-19.79-15.03-48.02-11.18-63.05,8.61c-4.62,6.07-9.06,8.07-10.49,8.09c-0.01,0-0.01,0-0.02,0
				c-1.14,0-5.83-1.85-12.38-10.1c-2.44-3.07-5.27-5.81-8.41-8.15c-5.84-4.34-11.6-7.93-17.26-10.87
				c30.15-11.32,55.87-27.79,76.05-48.94c35.02-36.67,51.67-86.19,46.86-139.44c-0.36-3.97-1.24-7.88-2.63-11.62
				c-15.47-41.64-41.05-70.04-76.05-84.42c-28.19-11.58-60.43-13.32-98.56-5.31c-9.38,1.97-19.17,4.56-29.46,7.79
				c-12.01-19.82-37.41-27.43-58.52-16.92c-68.26,33.99-111.59,94.08-118.89,164.87c-0.01,0.15-0.03,0.3-0.04,0.45
				c-3.67,39.58,5.76,72.47,28.03,97.76c29.8,33.85,75.33,45.66,120.92,50.04c-18.7,14.08-37.81,33.76-60.29,58.83
				c-16.59,18.5-15.04,46.95,3.46,63.54c8.59,7.71,19.33,11.5,30.03,11.5c12.34,0,24.63-5.05,33.52-14.96
				c14.57-16.25,31.35-34.36,45.26-45.36c11.18-8.85,15.69-9.27,15.69-9.27c0.02,0,1.42,0.2,4.5,2.06
				c22.17,25.21,50.04,38.79,79.14,38.51c30.79-0.33,60.38-16.23,81.2-43.64C701.57,541.25,697.71,513.02,677.92,497.99z
				 M400.64,390.31c-1.95-2.21-7.86-8.93-5.98-29.73c2-19.03,8.64-36.51,19.43-51.78c12.33,7.26,27.91,8.54,41.87,2.04
				c57.49-26.74,97.99-35.64,120.37-26.45c6.4,2.63,15.55,8.29,23.64,26.9c1.97,55.02-39,92.32-110.96,100.65
				C441.34,410.05,411.61,402.77,400.64,390.31z"/>
		</g>
	</g>
</g>
<g id="&#x30EC;&#x30A4;&#x30E4;&#x30FC;_1">
</g>
</svg>
