<?xml version="1.0" encoding="iso-8859-1"?>
<!-- Generator: Adobe Illustrator 23.1.0, SVG Export Plug-In . SVG Version: 6.00 Build 0)  -->
<svg version="1.1" xmlns="http://www.w3.org/2000/svg" xmlns:xlink="http://www.w3.org/1999/xlink" x="0px" y="0px"
	 viewBox="0 0 1000 1000" style="enable-background:new 0 0 1000 1000;" xml:space="preserve">
<g id="latinSmallLetterK">
	<g id="k">
		<g>
			<path d="M711.34,474.38c-23.07-23.32-61.04-40.51-119.7-53.58c10.17-16.89,18.99-33.04,26.23-48.03
				c19.08-39.54,26.18-68.62,22.33-91.54c-2.98-17.71-16.2-31.96-33.64-36.25c-45.25-11.12-102.53-12.57-174.48-4.37
				c-25.16-71.7-49.94-126.57-73.68-163.12c-13.54-20.84-41.41-26.77-62.25-13.23c-20.85,13.54-26.77,41.41-13.23,62.25
				c39.05,60.12,86.57,194.55,127.12,359.6c5.05,20.52,23.43,34.27,43.67,34.27c3.55,0,7.16-0.42,10.77-1.31
				c14.37-3.53,25.42-13.6,30.75-26.27c4.6,2.47,9.65,4.16,14.98,4.91c102.47,14.53,130.04,32.78,137.14,39.96
				c8.8,8.9,20.39,13.35,31.99,13.35c11.44,0,22.87-4.33,31.64-13C728.66,520.54,728.81,492.05,711.34,474.38z M485.77,418.66
				c-8.21-31.3-16.72-61.64-25.38-90.49c30.12-2.76,56.83-3.45,79.96-2.07C530.51,347.79,513.27,379.12,485.77,418.66z"/>
		</g>
	</g>
</g>
<g id="&#x30EC;&#x30A4;&#x30E4;&#x30FC;_1">
</g>
</svg>
