<?xml version="1.0" encoding="iso-8859-1"?>
<!-- Generator: Adobe Illustrator 23.1.0, SVG Export Plug-In . SVG Version: 6.00 Build 0)  -->
<svg version="1.1" xmlns="http://www.w3.org/2000/svg" xmlns:xlink="http://www.w3.org/1999/xlink" x="0px" y="0px"
	 viewBox="0 0 1000 1000" style="enable-background:new 0 0 1000 1000;" xml:space="preserve">
<g id="latinSmallLetterQ">
	<g id="q">
		<path d="M577.316,864c-38.553,0-71.925-10.546-96.509-30.497c-20.459-16.604-44.848-47.868-44.848-102.515
			c0-37.659,3.356-81.962,6.91-128.865c1.725-22.772,3.508-46.307,5.002-70.194c-5.085,0.64-10.252,0.965-15.471,0.965
			c-17.022,0-75.464-2.947-112.826-40.872c-18.414-18.69-28.01-42.322-27.775-68.374c-0.203-32.351,15.207-65.154,44.593-94.907
			c38.254-38.731,91.96-64.753,133.641-64.753c3.055,0,6.041,0.305,8.925,0.885c3.07-0.584,6.226-0.885,9.436-0.885
			c22.235,0,41.137,16.24,44.487,38.221c3.176,20.843,5.338,42.054,6.707,63.458c6.726,24.026,10.801,39.857,10.801,53.415
			c0,14.986-3.233,29.898-9.275,43.741c-1.135,46.327-4.43,92.166-7.708,135.604c9.888-1.696,19.542-2.51,28.418-2.572
			c0.105-0.001,0.212-0.001,0.318-0.001c35.037,0,71.425,14.887,99.834,40.843c29.378,26.843,46.228,61.709,46.228,95.659
			c0,34.083-12.674,66.392-35.688,90.976C647.967,849.557,614.157,864,577.316,864z M526.917,694.306
			c-0.602,13.01-0.957,25.31-0.957,36.683c0,15.032,0,43.012,51.356,43.012c26.558,0,40.888-21.457,40.888-41.646
			c0-17.049-27.605-46.397-55.912-46.502C546.988,685.994,533.539,690.524,526.917,694.306z M445.018,361.114
			c-14.092,6.343-30.692,16.798-44.592,30.871c-13.859,14.033-18.696,25.558-18.626,31.164c0.005,0.41,0.004,0.82-0.001,1.23
			c-0.028,1.869,0.12,2.684,1.891,4.481c6.703,6.803,26.053,14.034,48.713,14.034c8.059,0,14.456-2.693,19.088-6.56
			c0.102-18.753-0.244-37.405-1.201-55.783C448.394,373.786,446.608,367.316,445.018,361.114z"/>
	</g>
</g>
<g id="&#x30EC;&#x30A4;&#x30E4;&#x30FC;_1">
</g>
</svg>
