<?xml version="1.0" encoding="iso-8859-1"?>
<!-- Generator: Adobe Illustrator 23.1.0, SVG Export Plug-In . SVG Version: 6.00 Build 0)  -->
<svg version="1.1" xmlns="http://www.w3.org/2000/svg" xmlns:xlink="http://www.w3.org/1999/xlink" x="0px" y="0px"
	 viewBox="0 0 1000 1000" style="enable-background:new 0 0 1000 1000;" xml:space="preserve">
<g id="latinCapitalLetterR">
	<g id="R">
		<path d="M661.823,549.114c-11.66,0.001-23.31-4.502-32.122-13.482c-43.321-44.147-101.21-71.765-158.822-75.77
			c-4.601-0.32-9.012-1.327-13.131-2.922c0.902,5.816,1.735,11.705,2.492,17.658c3.135,24.654-14.31,47.182-38.964,50.317
			c-24.647,3.14-47.182-14.309-50.317-38.964c-10.495-82.531-37.646-150.26-69.083-228.684c-1.818-4.535-3.645-9.093-5.479-13.68
			c-5.627-14.073-3.793-30.033,4.881-42.462c8.674-12.429,23.013-19.657,38.172-19.229c16.564,0.467,32.744,0.492,48.39,0.516
			c39.578,0.061,76.962,0.117,109.735,7.624c43.39,9.938,73.814,31.73,93.01,66.622c1.8,3.271,3.186,6.754,4.125,10.368
			c13.341,51.312,10.307,92.227-9.278,125.083c-0.807,1.353-1.64,2.689-2.497,4.006c4.935,2.139,9.836,4.402,14.708,6.793
			c35.723,17.529,68.122,40.975,96.297,69.687c17.406,17.739,17.138,46.23-0.602,63.637
			C684.579,544.828,673.196,549.113,661.823,549.114z M404.726,272.492c14.039,36.221,27.009,72.458,37.331,110.779
			c5.4-5.447,12.243-9.566,20.08-11.708c24.389-6.666,39.862-15.256,45.988-25.533c7.237-12.143,4.928-32.901,1.001-50.134
			C495.23,276.496,465.9,273.016,404.726,272.492z"/>
	</g>
</g>
<g id="&#x30EC;&#x30A4;&#x30E4;&#x30FC;_1">
</g>
</svg>
