<?xml version="1.0" encoding="iso-8859-1"?>
<!-- Generator: Adobe Illustrator 23.1.0, SVG Export Plug-In . SVG Version: 6.00 Build 0)  -->
<svg version="1.1" xmlns="http://www.w3.org/2000/svg" xmlns:xlink="http://www.w3.org/1999/xlink" x="0px" y="0px"
	 viewBox="0 0 1000 1000" style="enable-background:new 0 0 1000 1000;" xml:space="preserve">
<g id="rightSquareBracket">
	<g id="_x5D_">
		<path d="M460.259,548.468c-23.947,0.001-43.864-18.872-44.923-43.031c-1.088-24.829,18.158-45.839,42.987-46.927
			c25.498-1.117,50.983-4.255,76.172-9.365c-15.11-67.463-22.652-152.357-22.854-257.005c-27.842,2.709-61.929,3.128-103.329,1.355
			c-24.83-1.064-44.097-22.056-43.032-46.885c1.063-24.83,22.045-44.084,46.885-43.033c85.05,3.647,116.512-3.639,127.694-8.305
			c14.045-5.862,30.099-4.226,42.673,4.343c12.574,8.57,19.967,22.915,19.647,38.129c-3.063,146.015,7.188,257.153,30.466,330.327
			c3.665,11.523,2.539,24.036-3.124,34.72c-5.664,10.683-15.389,18.638-26.983,22.07c-45.813,13.564-93.008,21.492-140.274,23.563
			C461.593,548.453,460.923,548.468,460.259,548.468z"/>
	</g>
</g>
<g id="&#x30EC;&#x30A4;&#x30E4;&#x30FC;_1">
</g>
</svg>
