<?xml version="1.0" encoding="iso-8859-1"?>
<!-- Generator: Adobe Illustrator 23.1.0, SVG Export Plug-In . SVG Version: 6.00 Build 0)  -->
<svg version="1.1" xmlns="http://www.w3.org/2000/svg" xmlns:xlink="http://www.w3.org/1999/xlink" x="0px" y="0px"
	 viewBox="0 0 1000 1000" style="enable-background:new 0 0 1000 1000;" xml:space="preserve">
<g id="apostraphe">
	<g id="_x27_">
		<path d="M518.985,296.164c-15.752,0-31.04-8.282-39.292-22.999c-5.737-10.232-19.606-47.5-41.221-110.768
			c-8.035-23.518,4.517-49.097,28.035-57.131c23.522-8.036,49.097,4.517,57.132,28.035c13.506,39.531,30.604,87.387,34.946,96.56
			c11.594,21.563,3.808,48.524-17.633,60.546C533.992,294.31,526.436,296.164,518.985,296.164z M558.195,229.147
			c0.081,0.146,0.162,0.292,0.242,0.438C558.351,229.425,558.27,229.28,558.195,229.147z"/>
	</g>
</g>
<g id="&#x30EC;&#x30A4;&#x30E4;&#x30FC;_1">
</g>
</svg>
