<?xml version="1.0" encoding="iso-8859-1"?>
<!-- Generator: Adobe Illustrator 23.1.0, SVG Export Plug-In . SVG Version: 6.00 Build 0)  -->
<svg version="1.1" xmlns="http://www.w3.org/2000/svg" xmlns:xlink="http://www.w3.org/1999/xlink" x="0px" y="0px"
	 viewBox="0 0 1000 1000" style="enable-background:new 0 0 1000 1000;" xml:space="preserve">
<g id="commercialAT">
	<g id="_x40_">
		<path d="M506.334,490.54c-3.513,0-7.091-0.024-10.75-0.073c-33.097-0.443-63.895-7.897-91.536-22.156
			c-26.024-13.425-48.577-32.506-67.031-56.713c-33.422-43.841-51.37-102.337-50.535-164.714
			c0.757-56.561,24.262-108.905,66.185-147.389c21.204-19.464,46.239-34.517,74.412-44.74
			c29.037-10.536,60.718-15.649,94.183-15.205c46.945,0.628,86.762,8.746,118.346,24.128c49.13,23.928,65.363,58.978,70.33,84.168
			c0.096,0.484,0.183,0.97,0.263,1.458c9.333,57.202-0.841,106.479-28.649,138.752c-11.021,12.79-28.627,27.271-55.026,34.236
			c-2.744,5.524-6.038,10.764-9.858,15.654c-9.9,12.672-23.137,22.941-39.342,30.522c-28.796,13.47-59.708,15.119-75.569,14.914
			c-55.937-0.749-92.964-42.685-92.139-104.352c0.373-27.865,8.639-56.782,22.68-79.337c19.2-30.841,48.432-48.446,80.346-48.446
			c0.114,0,0.227,0,0.342,0.001c23.875-0.361,43.04,6.557,56.979,20.553c9.109,9.146,19.832,25.474,19.187,51.329
			c-0.119,4.75-0.97,9.311-2.441,13.574c1.739-0.18,3.514-0.259,5.296-0.238c15.024,0.199,19.468-4.956,21.365-7.158
			c7.186-8.339,13.582-30.222,8.156-64.569c-2.131-9.091-12.726-15.959-21.325-20.147c-19.03-9.268-47.492-14.613-80.142-15.05
			c-43.257-0.576-80.063,11.958-106.529,36.253c-23.474,21.548-36.633,50.772-37.055,82.291
			c-0.567,42.346,10.839,81.037,32.116,108.946c21.599,28.332,51.273,42.948,88.199,43.441
			c84.523,1.134,104.817-13.521,109.384-22.356c11.41-22.078,38.557-30.726,60.638-19.315
			c22.078,11.411,30.727,38.559,19.315,60.638c-15.528,30.045-43.997,50.691-84.616,61.367
			C576.377,487.412,545.927,490.54,506.334,490.54z M501.334,293.303c0.427,0.044,0.964,0.079,1.624,0.087
			c13.455,0.178,27.35-2.289,36.23-6.443c7.084-3.314,7.161-5.187,7.252-7.354c0.187-4.481,1.023-8.788,2.417-12.827
			c-1.908,0.198-3.843,0.278-5.818,0.227c-14.486-0.362-27.202-7.53-35.164-18.37c-4.111,7.368-8.1,19.027-8.268,31.611
			C499.517,286.995,500.561,291.279,501.334,293.303z"/>
	</g>
</g>
<g id="&#x30EC;&#x30A4;&#x30E4;&#x30FC;_1">
</g>
</svg>
