<?xml version="1.0" encoding="iso-8859-1"?>
<!-- Generator: Adobe Illustrator 23.1.0, SVG Export Plug-In . SVG Version: 6.00 Build 0)  -->
<svg version="1.1" xmlns="http://www.w3.org/2000/svg" xmlns:xlink="http://www.w3.org/1999/xlink" x="0px" y="0px"
	 viewBox="0 0 1000 1000" style="enable-background:new 0 0 1000 1000;" xml:space="preserve">
<g id="digitNine">
	<g id="_x39_">
		<path d="M583.554,536.594c-1.294,0-2.595-0.056-3.908-0.169c-24.761-2.13-43.107-23.93-40.977-48.691
			c2.741-31.864,4.72-60.379,5.935-85.483c-44.346,9.074-79.388,8.695-111.306-0.912c-0.692-0.208-1.38-0.433-2.062-0.675
			c-35.303-12.51-51.396-35.405-58.679-52.409c-7.938-18.531-8.811-36.79-8.572-53.76c0.389-30.148,16.102-61.039,43.109-84.699
			c27.583-24.165,63.083-37.182,99.957-36.708c0.899,0.012,1.799,0.051,2.695,0.117c38.197,2.806,66.971,14.459,87.963,35.626
			c18.856,19.012,26.77,41.278,32.023,60.551c0.305,1.116,0.565,2.244,0.783,3.38c7.991,41.766,7.299,112.526-2.179,222.686
			C626.32,518.896,606.66,536.591,583.554,536.594z M460.361,315.489c13.984,4.01,36.361,6.659,84.346-5.61
			c-0.576-7.039-1.338-13.226-2.284-18.559c-2.179-7.76-4.767-15.232-8.615-19.113c-4.668-4.707-15.015-7.933-29.223-9.131
			c-18.625,0.132-31.507,8.721-37.597,13.909c-9.371,7.982-12.859,16.237-13.013,18.777c-0.089,6.431,0.067,14.562,1.311,17.067
			C455.587,313.097,456.942,314.182,460.361,315.489z"/>
	</g>
</g>
<g id="&#x30EC;&#x30A4;&#x30E4;&#x30FC;_1">
</g>
</svg>
