<?xml version="1.0" encoding="iso-8859-1"?>
<!-- Generator: Adobe Illustrator 23.1.0, SVG Export Plug-In . SVG Version: 6.00 Build 0)  -->
<svg version="1.1" xmlns="http://www.w3.org/2000/svg" xmlns:xlink="http://www.w3.org/1999/xlink" x="0px" y="0px"
	 viewBox="0 0 1000 1000" style="enable-background:new 0 0 1000 1000;" xml:space="preserve">
<g id="digitSix">
	<g id="_x36_">
		<path d="M516.028,565.101c-0.2,0-0.4-0.001-0.601-0.004c-51.202-0.685-94.656-20.079-125.663-56.087
			c-31.372-36.431-48.588-88.082-51.169-153.516c-0.026-0.647-0.037-1.295-0.035-1.944c0.17-45.416,12.199-88.126,34.785-123.515
			c22.701-35.568,55.573-63.132,95.063-79.711c22.912-9.621,49.29,1.156,58.912,24.072c9.621,22.915-1.156,49.291-24.072,58.912
			c-46.989,19.728-74.171,63.296-74.682,119.631c0.643,15.124,2.291,29.063,4.897,41.652c8.24-14.804,18.72-28.533,31.165-40.633
			c27.105-26.355,61.245-42.6,93.664-44.568c23.422-1.421,45.128,4.527,62.765,17.204c18.811,13.521,31.995,34.069,38.127,59.423
			c0.302,1.247,0.55,2.506,0.743,3.774c6.18,40.399-7.002,85.148-35.26,119.703c-27.686,33.854-65.5,53.584-106.477,55.555
			C517.471,565.083,516.749,565.101,516.028,565.101z M501.359,473.843c4.37,0.699,8.956,1.108,13.771,1.232
			c19.803-1.469,33.435-14.692,39.866-22.556c11.514-14.079,17.748-32.372,16.21-47.203c-1.302-4.378-2.669-5.634-2.684-5.646
			c-1.427-0.832-9.52-1.337-21.452,4.618c-19.594,9.779-40.919,32.977-44.39,62.757C502.41,469.378,501.965,471.647,501.359,473.843
			z"/>
	</g>
</g>
<g id="&#x30EC;&#x30A4;&#x30E4;&#x30FC;_1">
</g>
</svg>
