<?xml version="1.0" encoding="iso-8859-1"?>
<!-- Generator: Adobe Illustrator 23.1.0, SVG Export Plug-In . SVG Version: 6.00 Build 0)  -->
<svg version="1.1" xmlns="http://www.w3.org/2000/svg" xmlns:xlink="http://www.w3.org/1999/xlink" x="0px" y="0px"
	 viewBox="0 0 1000 1000" style="enable-background:new 0 0 1000 1000;" xml:space="preserve">
<g id="digitFour">
	<g id="_x34_">
		<g>
			<path d="M599.34,497.29c-0.48,0.01-0.96,0.02-1.44,0.02c-24.2,0-44.19-19.23-44.95-43.59l-0.53-16.58
				c-0.66-20.93-1.33-42.02-1.92-63.16c-27.06,7.52-52.28,11.25-76.63,11.25c-29.44,0-57.61-5.44-86.26-16.21
				c-15.99-6.01-27.2-20.56-28.93-37.56c-3.98-39.03,0.85-73.8,5.96-110.61c2.36-16.97,4.8-34.52,6.37-52.94
				c2.11-24.76,23.9-43.12,48.67-41c24.76,2.11,43.12,23.9,41,48.66c-1.77,20.78-4.38,39.53-6.89,57.66
				c-2.97,21.34-5.67,40.78-6.38,59.59c26.67,4.99,57.53,2.91,101.27-12.63c-0.33-41.31,0.13-82.09,2.03-121.46
				c1.2-24.82,22.27-43.98,47.12-42.78c24.82,1.2,43.97,22.29,42.78,47.11c-4.12,85.44-1.13,179.89,1.77,271.23l0.52,16.61
				C643.68,475.74,624.18,496.51,599.34,497.29z"/>
		</g>
	</g>
</g>
<g id="&#x30EC;&#x30A4;&#x30E4;&#x30FC;_1">
</g>
</svg>
