<?xml version="1.0" encoding="iso-8859-1"?>
<!-- Generator: Adobe Illustrator 23.1.0, SVG Export Plug-In . SVG Version: 6.00 Build 0)  -->
<svg version="1.1" xmlns="http://www.w3.org/2000/svg" xmlns:xlink="http://www.w3.org/1999/xlink" x="0px" y="0px"
	 viewBox="0 0 1000 1000" style="enable-background:new 0 0 1000 1000;" xml:space="preserve">
<g id="digitTwo">
	<g id="_x32_">
		<path d="M515.561,509.556c-16.019,0-30.066-0.673-42.285-2.015c-19.388-2.13-34.782-6.032-47.062-11.929
			c-21.473-10.313-30.909-25.528-35.053-36.979c-7.077-15.306-7.508-33.248-1.263-53.458c3.972-12.856,10.64-27.074,20.982-44.743
			c16.892-28.857,41.911-63.709,68.4-100.608c0.973-1.355,1.949-2.715,2.927-4.077c-34.823-2.84-71.908-0.763-88.263,0.154
			c-24.82,1.39-46.056-17.6-47.446-42.413c-1.39-24.814,17.599-46.056,42.413-47.446c89.534-5.015,147.506,1.313,187.97,20.517
			c11.934,5.664,20.776,16.286,24.183,29.049c3.407,12.763,1.034,26.378-6.49,37.236c-14.15,20.42-28.4,40.27-42.182,59.467
			c-20.923,29.146-40.687,56.676-55.24,79.555c-7.218,11.346-12.047,19.861-15.275,26.136c18.011,2.067,53.767,3.07,122.294-3.664
			c24.733-2.427,46.756,15.649,49.186,40.383c2.431,24.733-15.649,46.755-40.383,49.186
			C574.582,507.678,542.322,509.556,515.561,509.556z"/>
	</g>
</g>
<g id="&#x30EC;&#x30A4;&#x30E4;&#x30FC;_1">
</g>
</svg>
