<?xml version="1.0" encoding="iso-8859-1"?>
<!-- Generator: Adobe Illustrator 23.1.0, SVG Export Plug-In . SVG Version: 6.00 Build 0)  -->
<svg version="1.1" xmlns="http://www.w3.org/2000/svg" xmlns:xlink="http://www.w3.org/1999/xlink" x="0px" y="0px"
	 viewBox="0 0 1000 1000" style="enable-background:new 0 0 1000 1000;" xml:space="preserve">
<g id="digitZero">
	<g id="_x30_">
		<path d="M464.673,527.542c-49.229,0.002-90.188-24.687-115.38-69.559c-22.336-39.785-25.369-82.821-25.766-95.063
			c-1.643-50.59,36.39-108.936,48.085-125.613c20.234-28.851,62.375-79.019,117.278-90.848c19.257-4.149,38.285,4.697,47.959,20.637
			c21.868,0.773,43.075,6.758,61.997,17.578c24.643,14.091,45.023,35.877,58.939,63.003c13.065,25.468,19.519,53.727,18.661,81.722
			c-1.441,47.09-26.897,96.858-69.841,136.543c-42.191,38.991-93.748,61.443-141.449,61.599
			C464.999,527.542,464.833,527.542,464.673,527.542z M453.697,277.715c-2.852,3.6-5.659,7.363-8.397,11.268
			c-22.249,31.726-32.14,61.132-31.819,71.017c0.452,13.938,4.466,36.424,14.291,53.924c11.643,20.739,25.144,23.618,36.852,23.618
			c0.08,0,0.159,0,0.239,0c24.681-0.081,55.589-14.526,80.662-37.697c24.582-22.716,40.279-50.765,40.967-73.2
			c0.791-25.832-12.801-52.68-32.318-63.841c-17.718-10.131-39.811-7.003-65.661,9.296
			C477.729,278.898,465.164,280.551,453.697,277.715z"/>
	</g>
</g>
<g id="&#x30EC;&#x30A4;&#x30E4;&#x30FC;_1">
</g>
</svg>
