<?xml version="1.0" encoding="iso-8859-1"?>
<!-- Generator: Adobe Illustrator 23.1.0, SVG Export Plug-In . SVG Version: 6.00 Build 0)  -->
<svg version="1.1" xmlns="http://www.w3.org/2000/svg" xmlns:xlink="http://www.w3.org/1999/xlink" x="0px" y="0px"
	 viewBox="0 0 1000 1000" style="enable-background:new 0 0 1000 1000;" xml:space="preserve">
<g id="digitOne">
	<g id="_x31_">
		<path d="M552.042,517.431c-24.143,0.002-44.113-19.146-44.945-43.462c-1.796-52.486,0.737-104.122,2.972-149.679
			c0.77-15.671,1.524-31.061,2.072-45.902c-15.138,8.579-32.081,17.257-50.995,26.144c-22.494,10.567-49.295,0.902-59.865-21.592
			c-10.568-22.494-0.901-49.296,21.592-59.865c49.168-23.102,82.658-44.316,99.54-63.055c11.907-13.218,30.484-18.18,47.395-12.66
			c16.912,5.519,28.985,20.483,30.804,38.18c4.313,41.981,1.902,91.128-0.65,143.161c-2.254,45.943-4.585,93.451-2.917,142.192
			c0.85,24.838-18.597,45.662-43.435,46.513C553.086,517.422,552.562,517.431,552.042,517.431z"/>
	</g>
</g>
<g id="&#x30EC;&#x30A4;&#x30E4;&#x30FC;_1">
</g>
</svg>
