<?xml version="1.0" encoding="iso-8859-1"?>
<!-- Generator: Adobe Illustrator 23.1.0, SVG Export Plug-In . SVG Version: 6.00 Build 0)  -->
<svg version="1.1" xmlns="http://www.w3.org/2000/svg" xmlns:xlink="http://www.w3.org/1999/xlink" x="0px" y="0px"
	 viewBox="0 0 1000 1000" style="enable-background:new 0 0 1000 1000;" xml:space="preserve">
<g id="dollarSign">
	<g id="_x24_">
		<g>
			<path d="M658.23,463.87c-15.2,20.41-39.5,35.44-73.48,45.3L586,509c1.16,6.21,4.51,42.82-12.95,84.84
				c-7.19,17.3-23.94,27.74-41.58,27.74c-5.75,0-11.6-1.11-17.25-3.46c-22.95-9.54-33.82-35.87-24.28-58.82
				c6.9-16.61,6.11-28.95,5.9-31.16c0.06,0.39,0.11-3.4,0.13-5.62c-0.86,0.04-1.73,0.09-2.6,0.13c-11.94,0.58-23.59,0.8-34.53,0.8
				c-39.32,0-69.49-2.92-71.09-3.08c-24.73-2.44-42.81-24.47-40.36-49.2c2.44-24.73,24.46-42.8,49.2-40.36
				c0.43,0.04,46.12,4.42,95.15,1.81c72.5-3.85,90.96-19.07,93.9-22.06c-0.09-1.1-0.5-3.48-2.13-7.45
				c-16.25-39.71-68.89-47.88-136.02-54.44c-24.84-2.42-48.31-4.71-67.53-10.6c-50.82-15.58-55.83-52.56-55.63-67.74
				c0.24-17.87,6.36-44.77,34.14-71.36c13.89-13.3,32.35-25.72,54.86-36.93c8.36-4.17,16.7-7.87,24.58-11.11
				c-1.94-2.43-3.66-5.1-5.1-8l-26.2-52.57c-11.09-22.24-2.05-49.26,20.19-60.35c22.25-11.08,49.27-2.04,60.35,20.2l26.21,52.57
				c5.56,11.15,6.06,23.5,2.37,34.44c11.72,5.41,21.03,15.81,24.61,29.26c6.39,24-7.87,48.63-31.85,55.05
				c-0.38,0.1-25.25,6.88-50.83,19.02c-12.03,5.72-20.98,11.1-27.53,15.77c8.86,1.1,18.34,2.02,26.11,2.78
				c32.82,3.2,73.67,7.19,110.72,20.29c49,17.32,82.6,47.48,99.85,89.63C685.96,415.83,669.66,448.54,658.23,463.87z"/>
		</g>
	</g>
</g>
<g id="&#x30EC;&#x30A4;&#x30E4;&#x30FC;_1">
</g>
</svg>
