<?xml version="1.0" encoding="iso-8859-1"?>
<!-- Generator: Adobe Illustrator 23.1.0, SVG Export Plug-In . SVG Version: 6.00 Build 0)  -->
<svg version="1.1" xmlns="http://www.w3.org/2000/svg" xmlns:xlink="http://www.w3.org/1999/xlink" x="0px" y="0px"
	 viewBox="0 0 1000 1000" style="enable-background:new 0 0 1000 1000;" xml:space="preserve">
<g id="greaterThanSign">
	<g id="_x3E_">
		<path d="M438.923,566.39c-8.731,0.001-17.553-2.535-25.311-7.824c-20.534-14.002-25.829-41.998-11.828-62.531
			c36.836-54.022,80.352-93.678,118.745-128.666c11.173-10.182,22.083-20.125,32.426-30.05
			c-20.231-9.343-40.612-18.06-60.628-26.619c-47.152-20.166-95.91-41.018-142.644-69.745
			c-21.173-13.015-27.786-40.729-14.771-61.902c13.016-21.173,40.729-27.786,61.902-14.771
			c41.087,25.257,84.714,43.915,130.903,63.668c39.438,16.866,80.218,34.306,120.75,56.637
			c11.615,6.399,19.815,17.596,22.413,30.599c2.598,13.004-0.673,26.492-8.938,36.862c-23.924,30.017-51.547,55.19-80.792,81.841
			c-36.437,33.205-74.113,67.54-105.007,112.848C467.432,559.513,453.302,566.39,438.923,566.39z"/>
	</g>
</g>
<g id="&#x30EC;&#x30A4;&#x30E4;&#x30FC;_1">
</g>
</svg>
