<?xml version="1.0" encoding="iso-8859-1"?>
<!-- Generator: Adobe Illustrator 23.1.0, SVG Export Plug-In . SVG Version: 6.00 Build 0)  -->
<svg version="1.1" xmlns="http://www.w3.org/2000/svg" xmlns:xlink="http://www.w3.org/1999/xlink" x="0px" y="0px"
	 viewBox="0 0 1000 1000" style="enable-background:new 0 0 1000 1000;" xml:space="preserve">
<g id="latinSmallLetterF">
	<g id="f">
		<g>
			<path d="M628,311.69c-30.7-7.98-66.13-12.65-103.25-13.88c-22.71-33.86-44.65-62.64-61.48-84.72c-0.83-1.09-1.65-2.16-2.46-3.22
				c2.27,0.06,4.58-0.04,6.9-0.32c46.37-5.7,69.42-26.16,80.6-42.32c9.58-13.87,19.34-37.27,11.38-70.02
				c-0.48-1.99-1.1-3.94-1.85-5.85c-23.15-58.81-74-82.75-136.01-64.05c-0.06,0.02-0.11,0.04-0.17,0.05
				c-48.86,14.95-68.86,46.35-77.04,70.06c-8.56,24.83-8.47,52.97,0.26,83.65c8.38,29.43,22.45,53.23,32.77,68.01
				c0.29,0.41,0.59,0.82,0.89,1.23c4.01,5.34,8.45,11.17,13.16,17.34c8.48,11.13,17.95,23.55,27.95,37.15
				c-18.48,7.38-30.44,26.48-27.94,47.17c2.98,24.67,25.39,42.26,50.07,39.28c11.24-1.36,22.61-2.34,33.98-2.95
				c16.29,27.2,31.81,56.67,44.75,87.86c7.19,17.32,23.93,27.77,41.59,27.77c5.74,0,11.58-1.11,17.22-3.45
				c22.95-9.52,33.85-35.84,24.33-58.8c-6.83-16.47-14.29-32.49-22.16-48c8.36,1.45,16.35,3.16,23.89,5.12
				c3.79,0.98,7.6,1.45,11.34,1.45c20,0,38.26-13.43,43.53-33.7C666.49,342.5,652.06,317.93,628,311.69z M429.7,126.77
				c0.82-2.37,2.98-8.64,18.21-13.32c10.62-3.19,16.37-2.63,18.1-1.8c0.92,0.45,2.64,2.07,4.66,5.49c-3.04,1.09-7.6,2.3-13.94,3.08
				c-11.48,1.41-21.41,7.02-28.45,15.11C428.38,132.13,428.85,129.24,429.7,126.77z"/>
		</g>
	</g>
</g>
<g id="&#x30EC;&#x30A4;&#x30E4;&#x30FC;_1">
</g>
</svg>
