<?xml version="1.0" encoding="iso-8859-1"?>
<!-- Generator: Adobe Illustrator 23.1.0, SVG Export Plug-In . SVG Version: 6.00 Build 0)  -->
<svg version="1.1" xmlns="http://www.w3.org/2000/svg" xmlns:xlink="http://www.w3.org/1999/xlink" x="0px" y="0px"
	 viewBox="0 0 1000 1000" style="enable-background:new 0 0 1000 1000;" xml:space="preserve">
<g id="latinCapitalLetterY">
	<g id="Y">
		<g>
			<path d="M648.38,257.16c-18.87,31.05-49.92,47.7-80.22,57.3c6.58,51.9,7.76,109.05,3.64,173.61
				c-1.53,23.83-21.33,42.13-44.87,42.13c-0.96,0-1.93-0.03-2.91-0.09c-24.8-1.59-43.63-22.98-42.04-47.78
				c3.8-59.45,2.73-111.43-3.29-157.97c-32.86-2.89-69.23-12.78-97.66-40.93c-17.51-17.34-30.2-40.11-37.69-67.66
				c-6.8-24.98-9.6-54.19-8.57-89.3c0.73-24.84,21.42-44.37,46.3-43.66c24.84,0.73,44.39,21.46,43.66,46.31
				c-1.34,45.73,5.26,76.13,19.63,90.36c11.75,11.64,34.17,16.81,68.48,15.78c40.2-7.08,54.08-17.36,58.61-24.83
				c6.76-11.11,4.9-34.44-5.23-65.69c-7.67-23.64,5.28-49.02,28.92-56.68c23.64-7.67,49.03,5.28,56.69,28.92
				C670.96,175.99,669.83,221.84,648.38,257.16z"/>
		</g>
	</g>
</g>
<g id="&#x30EC;&#x30A4;&#x30E4;&#x30FC;_1">
</g>
</svg>
