<?xml version="1.0" encoding="iso-8859-1"?>
<!-- Generator: Adobe Illustrator 23.1.0, SVG Export Plug-In . SVG Version: 6.00 Build 0)  -->
<svg version="1.1" xmlns="http://www.w3.org/2000/svg" xmlns:xlink="http://www.w3.org/1999/xlink" x="0px" y="0px"
	 viewBox="0 0 1000 1000" style="enable-background:new 0 0 1000 1000;" xml:space="preserve">
<g id="latinSmallLetterI">
	<g id="i">
		<g>
			<path d="M512.115,504.766c-11.906,0-34.393-3.996-51.221-30.755c-6.474-10.294-11.935-23.575-17.188-41.795
				c-7.987-27.706-15.917-68.028-26.516-134.827c-3.895-24.546,12.847-47.601,37.393-51.496
				c24.547-3.892,47.601,12.847,51.496,37.392c7.423,46.783,13.398,79.565,18.806,103.167c2.459,10.734,4.616,18.689,6.406,24.538
				c8.76-4.265,20.289-13.298,41.155-32.358c18.352-16.761,46.814-15.474,63.575,2.875c16.761,18.35,15.474,46.813-2.876,63.575
				C593.677,481.134,563.93,504.766,512.115,504.766z"/>
		</g>
		<g>
			<path d="M444.388,185.01c-4.659,0-9.395-0.729-14.062-2.263c-12.642-4.156-22.857-6.01-33.122-6.01c-24.853,0-45-20.147-45-45
				s20.147-45,45-45c19.96,0,39.417,3.34,61.23,10.512c23.61,7.762,36.457,33.193,28.695,56.803
				C480.902,172.995,463.297,185.01,444.388,185.01z"/>
		</g>
	</g>
</g>
<g id="&#x30EC;&#x30A4;&#x30E4;&#x30FC;_1">
</g>
</svg>
