<?xml version="1.0" encoding="iso-8859-1"?>
<!-- Generator: Adobe Illustrator 23.1.0, SVG Export Plug-In . SVG Version: 6.00 Build 0)  -->
<svg version="1.1" xmlns="http://www.w3.org/2000/svg" xmlns:xlink="http://www.w3.org/1999/xlink" x="0px" y="0px"
	 viewBox="0 0 1000 1000" style="enable-background:new 0 0 1000 1000;" xml:space="preserve">
<g id="latinCapitalLetterK">
	<g id="K">
		<g>
			<path d="M727.11,517.68c-8.8,12.16-22.55,18.62-36.5,18.62c-9.14,0-18.37-2.77-26.34-8.54c-46.89-33.92-116.94-64.6-225.3-98.47
				c5.67,31.14,10.73,62.38,15.64,92.69c3.97,24.54-12.69,47.64-37.22,51.62c-2.44,0.4-4.87,0.59-7.26,0.59
				c-21.68,0-40.78-15.72-44.36-37.81C347.15,421.46,323.98,278.45,274,215c-15.38-19.53-12.01-47.82,7.51-63.2
				c19.52-15.37,47.82-12.01,63.19,7.51c31.95,40.56,54,97.73,70.71,161.14c30.74-44.91,53.11-92,68.03-143.02
				c6.97-23.85,31.97-37.53,55.82-30.56c23.85,6.97,37.54,31.96,30.56,55.82c-15.79,54.01-38.57,104.16-69.11,151.94
				c98.92,32.85,166.93,64.49,216.31,100.21C737.16,469.41,741.67,497.54,727.11,517.68z"/>
		</g>
	</g>
</g>
<g id="&#x30EC;&#x30A4;&#x30E4;&#x30FC;_1">
</g>
</svg>
