<?xml version="1.0" encoding="iso-8859-1"?>
<!-- Generator: Adobe Illustrator 23.1.0, SVG Export Plug-In . SVG Version: 6.00 Build 0)  -->
<svg version="1.1" xmlns="http://www.w3.org/2000/svg" xmlns:xlink="http://www.w3.org/1999/xlink" x="0px" y="0px"
	 viewBox="0 0 1000 1000" style="enable-background:new 0 0 1000 1000;" xml:space="preserve">
<g id="latinCapitalLetterM">
	<g id="M">
		<path d="M325.445,543.717c-9.083,0-18.25-2.741-26.194-8.44c-20.193-14.486-24.82-42.601-10.333-62.795
			c33.05-46.068,37.934-131.054,40.326-221.484c0.411-15.527,8.8-29.745,22.194-37.612c13.393-7.867,29.898-8.269,43.658-1.067
			c37.42,19.586,77.49,50.857,113.326,87.808c15.016-29.183,27.581-65.329,33.683-99.274c2.661-14.809,12.548-27.307,26.346-33.307
			c13.798-5.999,29.681-4.706,42.327,3.446c64.938,41.864,85.148,146.964,104.692,248.604c1.076,5.596,2.147,11.17,3.223,16.707
			c4.735,24.397-11.204,48.014-35.602,52.75c-2.895,0.562-5.781,0.833-8.623,0.833c-21.115,0.001-39.953-14.931-44.127-36.434
			c-1.084-5.587-2.166-11.212-3.252-16.86c-7.957-41.38-16.168-84.081-27.105-119.591c-10.922,25.093-29.13,60.341-54.336,87.312
			c-8.999,9.629-21.773,14.829-34.931,14.227c-13.165-0.602-25.405-6.944-33.488-17.353c-18.333-23.608-39.746-46.105-61.745-65.294
			c-1.658,22.572-4,44.656-7.434,65.405c-8.613,52.059-23.662,92.505-46.005,123.649
			C353.258,537.194,339.452,543.717,325.445,543.717z"/>
	</g>
</g>
<g id="&#x30EC;&#x30A4;&#x30E4;&#x30FC;_1">
</g>
</svg>
