<?xml version="1.0" encoding="iso-8859-1"?>
<!-- Generator: Adobe Illustrator 23.1.0, SVG Export Plug-In . SVG Version: 6.00 Build 0)  -->
<svg version="1.1" xmlns="http://www.w3.org/2000/svg" xmlns:xlink="http://www.w3.org/1999/xlink" x="0px" y="0px"
	 viewBox="0 0 1000 1000" style="enable-background:new 0 0 1000 1000;" xml:space="preserve">
<g id="latinCapitalLetterV">
	<g id="V">
		<path d="M559.828,504.701c-14.495,0-28.224-7.006-36.711-18.987c-94.545-133.451-155.308-200.246-178.615-216.897
			c-20.222-14.447-24.904-42.553-10.457-62.775c14.448-20.221,42.552-24.903,62.775-10.457
			c40.217,28.732,103.083,107.158,150.944,171.086c24.501-72.497,36.774-141.43,36.571-205.727
			c-0.078-24.853,20.005-45.063,44.858-45.142c0.047,0,0.098,0,0.145,0c24.788,0,44.919,20.052,44.997,44.858
			c0.312,98.714-24.345,205.401-73.282,317.098c-6.51,14.857-20.512,25.062-36.648,26.708
			C562.875,504.624,561.348,504.701,559.828,504.701z"/>
	</g>
</g>
<g id="&#x30EC;&#x30A4;&#x30E4;&#x30FC;_1">
</g>
</svg>
