<?xml version="1.0" encoding="iso-8859-1"?>
<!-- Generator: Adobe Illustrator 23.1.0, SVG Export Plug-In . SVG Version: 6.00 Build 0)  -->
<svg version="1.1" xmlns="http://www.w3.org/2000/svg" xmlns:xlink="http://www.w3.org/1999/xlink" x="0px" y="0px"
	 viewBox="0 0 1000 1000" style="enable-background:new 0 0 1000 1000;" xml:space="preserve">
<g id="latinCapitalLetterA">
	<g id="A">
		<g>
			<path d="M681.08,454.05l-156.9-284.01c-10.29-18.62-32.21-27.49-52.56-21.27c-20.34,6.23-33.54,25.85-31.65,47.04
				c1.46,16.32-9.54,63.46-45.33,142.6c-6.88,15.22-13.78,29.63-20.42,42.89c-2.4,4.79-4.76,9.44-7.08,13.91
				c-17.57,34-32.34,58.37-38.26,65.85c-16.73,14.42-20.7,39.32-8.4,58.42c8.6,13.35,23.08,20.64,37.87,20.64
				c8.34,0,16.79-2.32,24.32-7.18c8.72-5.61,18.6-14.24,43.37-57.54c4.52-7.91,9.18-16.35,13.87-25.16l128.23-14.5l34.16,61.83
				c12.02,21.76,39.4,29.65,61.15,17.63C685.21,503.18,693.1,475.81,681.08,454.05z M485.95,354.46
				c5.85-13.58,11.13-26.54,15.82-38.87l19.28,34.9L485.95,354.46z"/>
		</g>
		<g>
			<path d="M374.22,381.3c-2.4,4.79-4.76,9.44-7.08,13.91C368.68,390.16,371.09,385.46,374.22,381.3z"/>
		</g>
	</g>
</g>
<g id="&#x30EC;&#x30A4;&#x30E4;&#x30FC;_1">
</g>
</svg>
