<?xml version="1.0" encoding="iso-8859-1"?>
<!-- Generator: Adobe Illustrator 23.1.0, SVG Export Plug-In . SVG Version: 6.00 Build 0)  -->
<svg version="1.1" xmlns="http://www.w3.org/2000/svg" xmlns:xlink="http://www.w3.org/1999/xlink" x="0px" y="0px"
	 viewBox="0 0 1000 1000" style="enable-background:new 0 0 1000 1000;" xml:space="preserve">
<g id="latinSmallLetterB">
	<g id="b">
		<g>
			<path d="M704.59,356.26c-10.47-31.93-36.4-60.34-73.02-79.99c-32.29-17.32-70.84-26.87-108.56-26.9h-0.75
				c-23.48,0.38-46.21,8.34-66.3,23.16C425.59,202.79,393.09,136.99,360,78.62C347.75,57,320.28,49.41,298.66,61.67
				c-21.62,12.25-29.21,39.72-16.95,61.34c49.75,87.76,98.21,193.4,139.66,303.84c-6.2,5.07-11.12,11.85-13.95,19.96
				c-8.19,23.46,4.19,49.13,27.65,57.32c5.26,1.84,10.48,3.57,15.65,5.19c6.52,18.38,23.83,29.94,42.38,29.94
				c4.76,0,9.6-0.76,14.36-2.37c7.03-2.37,13.09-6.3,17.93-11.28c12.59,1.46,24.96,2.18,37.14,2.18c15.04,0,29.8-1.1,44.33-3.3
				c2.57-0.39,5.1-1,7.56-1.82c44.84-15.02,73.88-37.48,88.77-68.68C716.56,425.98,717.02,394,704.59,356.26z M621.97,415.22
				c-3.38,7.08-15.12,14.59-32.46,20.83c-22.19,2.93-45.05,2.28-69.69-2.09c-8.47-23.7-17.28-47.26-26.39-70.57
				c8.47-14.33,19.8-23.69,29.97-24.02c22.69,0.1,46.58,6,65.62,16.21c15.68,8.41,26.91,19.15,30.07,28.77
				C622.37,394.32,625.53,407.76,621.97,415.22z"/>
		</g>
	</g>
</g>
<g id="&#x30EC;&#x30A4;&#x30E4;&#x30FC;_1">
</g>
</svg>
