<?xml version="1.0" encoding="iso-8859-1"?>
<!-- Generator: Adobe Illustrator 23.1.0, SVG Export Plug-In . SVG Version: 6.00 Build 0)  -->
<svg version="1.1" xmlns="http://www.w3.org/2000/svg" xmlns:xlink="http://www.w3.org/1999/xlink" x="0px" y="0px"
	 viewBox="0 0 1000 1000" style="enable-background:new 0 0 1000 1000;" xml:space="preserve">
<g id="latinCapitalLetterZ">
	<g id="Z">
		<g>
			<path d="M658.54,465.2c-20.42,8.99-39.1,18.14-57.18,26.98c-43.62,21.35-80.46,39.38-113.87,39.39c-11.72,0-23.02-2.23-34.04-7.3
				c-2.99-1.38-5.82-3.08-8.43-5.07c-37.68-28.7-53.85-71.26-48.06-126.5c0.23-2.18,0.49-4.39,0.79-6.62
				c-1.96,0.09-3.87,0.14-5.73,0.14c-12.39,0-22.76-2.05-32.16-6.24c-20.17-8.99-28.17-24.7-31.64-31.74
				c-13.81-18.19-11.85-44.24,5.23-60.12c18.2-16.93,46.67-15.89,63.59,2.3c1.55,1.66,2.92,3.33,4.14,4.96
				c5.37-0.82,13.31-2.38,24.77-5.35c8.65-20.64,19.19-42.63,31.66-66.04c-40.21,4.23-76.06,2.55-108.27-4.99
				c-24.2-5.67-39.22-29.88-33.56-54.08c5.67-24.2,29.88-39.22,54.08-33.55c41.96,9.82,95.95,5.07,165.05-14.53
				c17.95-5.09,37.18,1.42,48.34,16.37c11.16,14.95,11.94,35.24,1.96,51c-15.17,23.96-28.1,45.74-39.1,65.53
				c18.16-6.81,37.75-14.36,58.72-22.63c23.13-9.11,49.26,2.24,58.37,25.36c9.12,23.12-2.24,49.26-25.36,58.37
				c-58.31,22.98-105.45,40.32-142.95,52.51c-4.9,16.02-7.38,28.74-8.42,38.73c-2.27,21.61,1.58,32.57,6.13,38.79
				c3.48-0.74,9.05-2.31,17.52-5.63c14.39-5.64,31.67-14.1,51.68-23.89c17.99-8.81,38.39-18.79,60.47-28.52
				c22.74-10.01,49.3,0.31,59.32,23.05C691.6,428.63,681.29,455.18,658.54,465.2z"/>
		</g>
	</g>
</g>
<g id="&#x30EC;&#x30A4;&#x30E4;&#x30FC;_1">
</g>
</svg>
