<?xml version="1.0" encoding="iso-8859-1"?>
<!-- Generator: Adobe Illustrator 23.1.0, SVG Export Plug-In . SVG Version: 6.00 Build 0)  -->
<svg version="1.1" xmlns="http://www.w3.org/2000/svg" xmlns:xlink="http://www.w3.org/1999/xlink" x="0px" y="0px"
	 viewBox="0 0 1000 1000" style="enable-background:new 0 0 1000 1000;" xml:space="preserve">
<g id="latinCapitalLetterL">
	<g id="L">
		<path d="M525.533,539.851c-33.935,0.001-74.535-7.655-122.719-23.058c-16.005-5.116-27.826-18.723-30.656-35.286
			c-17.148-100.381-32-205.014-24.626-290.203c2.143-24.761,23.956-43.095,48.713-40.952c24.76,2.143,43.095,23.953,40.952,48.713
			c-5.866,67.772,5.006,154.045,19.049,239.686c54.147,14.545,80.441,11.822,91.849,8.469c10.115-2.973,14.725-7.561,19.729-19.636
			c9.516-22.96,35.84-33.857,58.8-24.344c22.959,9.515,33.858,35.84,24.344,58.799c-15.48,37.356-40.829,60.754-77.495,71.529
			C559.237,537.751,543.295,539.85,525.533,539.851z"/>
	</g>
</g>
<g id="&#x30EC;&#x30A4;&#x30E4;&#x30FC;_1">
</g>
</svg>
