<?xml version="1.0" encoding="iso-8859-1"?>
<!-- Generator: Adobe Illustrator 23.1.0, SVG Export Plug-In . SVG Version: 6.00 Build 0)  -->
<svg version="1.1" xmlns="http://www.w3.org/2000/svg" xmlns:xlink="http://www.w3.org/1999/xlink" x="0px" y="0px"
	 viewBox="0 0 1000 1000" style="enable-background:new 0 0 1000 1000;" xml:space="preserve">
<g id="latinSmallLetterR">
	<g id="r">
		<path d="M477.429,470.077c-19.845,0-37.785-13.172-43.299-32.881c-7.667-27.405-23.093-47.681-33.973-56.716
			c-19.119-15.878-21.746-44.25-5.868-63.369c12.524-15.08,32.82-19.899,50.217-13.473c6.394-12.411,15.418-23.117,27.951-31.733
			c2.546-1.751,5.267-3.234,8.118-4.428c25.157-10.531,77.834-15.833,111.304,1.599c22.042,11.48,30.604,38.656,19.124,60.698
			c-11.374,21.838-38.152,30.448-60.086,19.438c-5.366-1.815-18.484-1.659-27.771-0.396c-0.731,2.749-1.583,7.232-2.119,14.251
			c-1.034,13.524-0.614,32.188,1.319,58.735c1.68,23.051-14.377,43.626-37.146,47.6
			C482.594,469.857,479.995,470.077,477.429,470.077z M551.167,349.3C551.168,349.3,551.168,349.3,551.167,349.3L551.167,349.3z"/>
	</g>
</g>
<g id="&#x30EC;&#x30A4;&#x30E4;&#x30FC;_1">
</g>
</svg>
