<?xml version="1.0" encoding="iso-8859-1"?>
<!-- Generator: Adobe Illustrator 23.1.0, SVG Export Plug-In . SVG Version: 6.00 Build 0)  -->
<svg version="1.1" xmlns="http://www.w3.org/2000/svg" xmlns:xlink="http://www.w3.org/1999/xlink" x="0px" y="0px"
	 viewBox="0 0 1000 1000" style="enable-background:new 0 0 1000 1000;" xml:space="preserve">
<g id="latinCapitalLetterP">
	<g id="P">
		<path d="M477.814,520.946c-16.231,0-31.907-8.808-39.935-24.194c-39.145-75.033-67.896-132.588-81.385-190.081
			c-0.562-2.396-0.927-4.835-1.09-7.291c-0.244-3.667-0.672-7.802-1.126-12.179c-2.105-20.307-4.99-48.119,6.636-75.955
			c13.423-32.142,42.458-55.515,86.298-69.468c52.089-16.662,102.486-11.201,141.843,15.399
			c33.905,22.916,55.776,59.034,58.506,96.618c0.169,2.328,0.156,4.666-0.037,6.992c-4.8,57.681-28.191,96.269-69.522,114.689
			c-30.749,13.704-64.657,12.694-95.188,11.029c10.198,21.084,21.905,43.782,34.861,68.617
			c11.495,22.035,2.952,49.216-19.083,60.711C491.943,519.303,484.827,520.946,477.814,520.946z M449.191,295.093
			c0.017,0,0.031,0,0.047,0c11.146,0.012,22.254,0.637,32.998,1.242c22.809,1.285,46.394,2.612,59.126-3.063
			c3.229-1.438,12.76-5.687,16.056-35.635c-1.598-7.828-7.748-18.45-18.761-25.894c-16.243-10.979-38.404-12.438-64.087-4.225
			c-16.821,5.354-27.954,12.057-30.607,18.41c-2.789,6.678-1.455,19.545-0.165,31.989c0.387,3.728,0.783,7.55,1.106,11.462
			c0.477,1.923,0.979,3.856,1.506,5.797C447.33,295.122,448.257,295.093,449.191,295.093z"/>
	</g>
</g>
<g id="&#x30EC;&#x30A4;&#x30E4;&#x30FC;_1">
</g>
</svg>
