<?xml version="1.0" encoding="iso-8859-1"?>
<!-- Generator: Adobe Illustrator 23.1.0, SVG Export Plug-In . SVG Version: 6.00 Build 0)  -->
<svg version="1.1" xmlns="http://www.w3.org/2000/svg" xmlns:xlink="http://www.w3.org/1999/xlink" x="0px" y="0px"
	 viewBox="0 0 1000 1000" style="enable-background:new 0 0 1000 1000;" xml:space="preserve">
<g id="latinCapitalLetterB">
	<g id="B">
		<path d="M595.883,584.45c-29.892,0.001-65.419-8.557-107.08-25.69c-6.261-2.575-11.629-6.399-15.938-11.066
			c-4.96,5.095-11.202,9.084-18.442,11.413c-23.661,7.609-49.008-5.4-56.617-29.06c-0.74-2.302-74.297-230.946-97.843-300.317
			c-4.275-12.594-2.759-26.434,4.14-37.805c6.898-11.371,18.474-19.107,31.618-21.133c2.267-0.349,56.157-8.61,113.011-13.543
			c34.329-2.978,62.744-4.109,84.462-3.358c29.047,1.002,60.586,5.303,77.401,28.653c28.05,33.92,28.355,66.4,23.552,87.868
			c-5.104,22.806-18.574,44.653-40.113,65.108c11.438,3.906,22.077,8.44,31.897,13.598c44.666,23.457,71.52,60.137,75.614,103.283
			c0.011,0.116,0.021,0.233,0.031,0.35c2.122,24.374,0.323,45.035-5.497,63.164c-6.593,20.534-18.133,36.97-34.299,48.849
			C643.924,577.883,622.064,584.45,595.883,584.45z M505.936,472.13c5.702,0,11.499,1.091,17.1,3.394
			c56.626,23.288,81.282,19.779,85.452,16.712c1.15-0.845,5.363-9.098,3.446-31.478c-1.218-12.144-10.586-22.896-27.849-31.962
			c-18.604-9.771-54.127-21.386-117.795-21.386c-0.338,0-0.67,0.006-1.016,0.001c-4.532,0-8.932-0.676-13.094-1.942
			c10.251,31.691,19.201,59.443,24.896,77.12C485.134,475.874,495.372,472.13,505.936,472.13z M402.416,252.597
			c8.148,24.767,17.545,53.565,26.993,82.634c4.462-5.893,10.415-10.742,17.542-13.919c73.289-32.676,96.944-59.723,99.368-70.554
			c0.339-1.515-0.167-3.466-1.508-5.835c-10.843-1.394-39.196-2.944-104.339,3.478C427.12,249.716,414.164,251.175,402.416,252.597z
			"/>
	</g>
</g>
<g id="&#x30EC;&#x30A4;&#x30E4;&#x30FC;_1">
</g>
</svg>
