<?xml version="1.0" encoding="iso-8859-1"?>
<!-- Generator: Adobe Illustrator 23.1.0, SVG Export Plug-In . SVG Version: 6.00 Build 0)  -->
<svg version="1.1" xmlns="http://www.w3.org/2000/svg" xmlns:xlink="http://www.w3.org/1999/xlink" x="0px" y="0px"
	 viewBox="0 0 1000 1000" style="enable-background:new 0 0 1000 1000;" xml:space="preserve">
<g id="latinSmallLetterV">
	<g id="v">
		<path d="M530.605,517.438c-10.534,0-21.084-3.681-29.578-11.091c-24.562-21.428-108.656-122.388-131.476-175.455
			c-9.818-22.832,0.731-49.299,23.563-59.117c22.833-9.818,49.299,0.731,59.117,23.563c10.017,23.295,45.223,70.356,73.459,104.643
			c12.241-29.384,18.418-68.649,18.418-117.4c0-24.853,20.147-45,45-45s45,20.147,45,45c0,102.934-23.668,175.662-72.355,222.34
			C553.07,513.245,541.847,517.438,530.605,517.438z"/>
	</g>
</g>
<g id="&#x30EC;&#x30A4;&#x30E4;&#x30FC;_1">
</g>
</svg>
