<?xml version="1.0" encoding="iso-8859-1"?>
<!-- Generator: Adobe Illustrator 23.1.0, SVG Export Plug-In . SVG Version: 6.00 Build 0)  -->
<svg version="1.1" xmlns="http://www.w3.org/2000/svg" xmlns:xlink="http://www.w3.org/1999/xlink" x="0px" y="0px"
	 viewBox="0 0 1000 1000" style="enable-background:new 0 0 1000 1000;" xml:space="preserve">
<g id="latinSmallLetterM">
	<g id="m">
		<path d="M689.566,525.078c-20.624,0.001-39.217-14.266-43.884-35.234c-2.165-9.729-4.354-19.949-6.473-29.833
			c-6.443-30.07-13.106-61.165-20.747-86.794c-1.407-4.721-2.755-8.939-4.036-12.708c-3.962,5.186-8.012,10.727-12.128,16.358
			c-13.746,18.805-29.325,40.12-49.596,59.948c-10.324,10.099-24.869,14.632-39.104,12.178
			c-14.234-2.451-26.426-11.585-32.778-24.557c-8.45-17.256-19.917-36.569-31.523-53.104c-1.904,4.7-3.978,10.096-6.217,16.287
			c-10.616,29.345-21.228,65.989-30.208,97.964c-5.932,21.121-26.227,34.886-48.046,32.584
			c-21.816-2.303-38.794-20.001-40.187-41.895c-3.186-50.068-11.307-120.249-44.909-151.527
			c-18.191-16.934-19.211-45.408-2.278-63.599c16.934-18.19,45.407-19.211,63.599-2.278c15.647,14.565,27.91,31.859,37.563,50.77
			c4.152-7.925,8.318-14.725,12.557-20.511c20.21-27.59,42.73-32.434,58.063-31.643c7.234,0.375,14.271,2.49,20.513,6.166
			c19.727,11.62,40.517,36.907,57.932,62.785c0.654-0.894,1.308-1.788,1.96-2.679c20.46-27.993,41.618-56.938,73.596-72.441
			c12.045-5.84,26.067-6.012,38.252-0.475c33.139,15.063,49.301,53.49,59.679,85.285c10.309,31.58,18.309,68.918,26.046,105.027
			c2.178,10.16,4.233,19.756,6.322,29.139c5.398,24.259-9.891,48.302-34.15,53.701C696.093,524.727,692.804,525.078,689.566,525.078
			z M423.654,340.94c0,0,0.001,0.001,0.002,0.001C423.656,340.941,423.655,340.941,423.654,340.94z"/>
	</g>
</g>
<g id="&#x30EC;&#x30A4;&#x30E4;&#x30FC;_1">
</g>
</svg>
