<?xml version="1.0" encoding="iso-8859-1"?>
<!-- Generator: Adobe Illustrator 23.1.0, SVG Export Plug-In . SVG Version: 6.00 Build 0)  -->
<svg version="1.1" xmlns="http://www.w3.org/2000/svg" xmlns:xlink="http://www.w3.org/1999/xlink" x="0px" y="0px"
	 viewBox="0 0 1000 1000" style="enable-background:new 0 0 1000 1000;" xml:space="preserve">
<g id="latinSmallLetterJ">
	<g id="j">
		<g>
			<path d="M504.821,864c-39.975,0-78.176-12.945-107.567-36.45c-32.099-25.672-50.509-62.175-50.509-100.147
				c0-62.717,26.778-99.359,49.242-119.056c25.355-22.231,59.303-34.981,93.139-34.981c3.235,0,6.392-0.014,9.463-0.026
				c5.5-0.024,10.882-0.046,16.137,0.012c-0.732-1.78-1.466-3.563-2.202-5.352c-36.448-88.578-77.759-188.974-90.665-257.805
				c-4.58-24.427,11.509-47.942,35.936-52.522c24.423-4.581,47.942,11.508,52.522,35.936
				c11.199,59.731,52.361,159.765,85.436,240.144c23.398,56.863,43.605,105.973,52.454,137.685c0.176,0.63,0.338,1.264,0.485,1.9
				c11.459,49.272,1.129,98.814-28.34,135.923C592.728,844.048,550.617,864,504.821,864z M506.561,663.317
				c-2.622,0-5.192,0.011-7.591,0.021c-3.195,0.014-6.478,0.027-9.843,0.027c-8.747,0-52.381,3.087-52.381,64.037
				c0,24.823,31.811,46.598,68.076,46.598c23.644,0,37.55-11.262,45.053-20.71c12.128-15.272,16.25-36.605,11.365-58.657
				c-1.803-6.329-4.295-13.872-7.326-22.375c-7.962-0.533-15.826-3.178-22.689-7.974
				C526.137,663.458,516.015,663.317,506.561,663.317z M526.564,660.549c0.008,0.007,0.017,0.015,0.024,0.022
				C526.581,660.563,526.572,660.556,526.564,660.549z"/>
		</g>
		<g>
			<path d="M429.702,194.18c-8.698,0-17.487-2.516-25.227-7.768l-25.699-17.438c-20.565-13.955-25.924-41.939-11.969-62.504
				c13.955-20.565,41.94-25.924,62.504-11.969l25.699,17.438c20.565,13.955,25.924,41.939,11.969,62.504
				C458.276,187.269,444.116,194.18,429.702,194.18z"/>
		</g>
	</g>
</g>
<g id="&#x30EC;&#x30A4;&#x30E4;&#x30FC;_1">
</g>
</svg>
