<?xml version="1.0" encoding="iso-8859-1"?>
<!-- Generator: Adobe Illustrator 23.1.0, SVG Export Plug-In . SVG Version: 6.00 Build 0)  -->
<svg version="1.1" xmlns="http://www.w3.org/2000/svg" xmlns:xlink="http://www.w3.org/1999/xlink" x="0px" y="0px"
	 viewBox="0 0 1000 1000" style="enable-background:new 0 0 1000 1000;" xml:space="preserve">
<g id="latinCapitalLetterD">
	<g id="D">
		<path d="M436.13,492.804c-1.341,0-2.683-0.003-4.034-0.01c-21.654-0.103-40.166-15.614-44.055-36.917
			c-18.06-98.909-50.097-174.662-74.058-212.575c-8.585-13.583-9.275-30.714-1.811-44.945c7.464-14.23,21.951-23.4,38.006-24.059
			c82.141-3.367,147.857,3.077,200.904,19.705c60.91,19.092,104.287,51.97,128.924,97.721c0.914,1.696,1.718,3.45,2.406,5.249
			c21.223,55.444,6.616,94.648-9.373,117.772C637.221,466.549,557.521,492.804,436.13,492.804z M425.378,264.289
			c17.284,40.916,32.302,88.297,43.494,137.734c78.289-3.883,118.49-21.612,130.142-38.463c2.112-3.055,7.58-10.96,0.355-31.658
			c-13.62-23.404-38.257-40.436-75.205-52.017C497.154,271.417,464.083,266.207,425.378,264.289z"/>
	</g>
</g>
<g id="&#x30EC;&#x30A4;&#x30E4;&#x30FC;_1">
</g>
</svg>
