<?xml version="1.0" encoding="iso-8859-1"?>
<!-- Generator: Adobe Illustrator 23.1.0, SVG Export Plug-In . SVG Version: 6.00 Build 0)  -->
<svg version="1.1" xmlns="http://www.w3.org/2000/svg" xmlns:xlink="http://www.w3.org/1999/xlink" x="0px" y="0px"
	 viewBox="0 0 1000 1000" style="enable-background:new 0 0 1000 1000;" xml:space="preserve">
<g id="latinCapitalLetterS">
	<g id="S">
		<path d="M550.149,497.02c-37.032,0.001-81.189-5.857-128.219-17.036c-24.179-5.747-39.121-30.007-33.374-54.187
			c5.748-24.179,30.006-39.122,54.187-33.374c44.694,10.624,84.973,15.614,116.49,14.43c29.662-1.114,41.031-7.199,44.229-9.424
			c-4.897-29.019-19.083-54.005-39.227-68.914c-16.239-12.02-34.733-16.523-54.95-13.39c-1.945,0.301-3.908,0.475-5.875,0.519
			c-36.119,0.823-73.766-6.868-106.029-21.638c-39.544-18.103-69.417-45.887-86.388-80.349c-6.408-13.013-6.151-28.317,0.691-41.108
			c6.842-12.79,19.43-21.498,33.812-23.389c42.811-5.63,71.077-19.407,77.513-25.966c12.064-20.873,38.59-28.597,60.054-17.198
			c21.949,11.658,30.293,38.901,18.635,60.85c-11.76,22.143-34.569,37.714-59.021,48.582c17.981,6.914,37.96,10.347,56.177,10.273
			c42.469-5.713,84.576,5.048,118.927,30.475c40.077,29.665,67.512,77.661,75.271,131.683c0.16,1.113,0.278,2.231,0.354,3.353
			c1.988,29.317-9.04,55.727-31.054,74.366c-23.59,19.973-59.26,30.533-106.021,31.387
			C554.296,497.001,552.23,497.02,550.149,497.02z M422.221,124.616c-0.003,0.005-0.005,0.01-0.008,0.015
			C422.215,124.626,422.218,124.622,422.221,124.616z"/>
	</g>
</g>
<g id="&#x30EC;&#x30A4;&#x30E4;&#x30FC;_1">
</g>
</svg>
