<?xml version="1.0" encoding="iso-8859-1"?>
<!-- Generator: Adobe Illustrator 23.1.0, SVG Export Plug-In . SVG Version: 6.00 Build 0)  -->
<svg version="1.1" xmlns="http://www.w3.org/2000/svg" xmlns:xlink="http://www.w3.org/1999/xlink" x="0px" y="0px"
	 viewBox="0 0 1000 1000" style="enable-background:new 0 0 1000 1000;" xml:space="preserve">
<g id="latinSmallLetterL">
	<g id="l">
		<path d="M491.396,531.54c-8.609,0-17.354-1.058-26.512-3.423c-3.148-0.813-6.198-1.965-9.098-3.435
			c-28.562-14.481-45.454-50.981-62.328-134.669c-10.7-53.069-21.202-124.537-33.051-224.916
			c-2.914-24.682,14.733-47.052,39.414-49.965c24.684-2.911,47.052,14.734,49.965,39.415
			c10.223,86.603,19.592,152.311,28.642,200.878c9.04,48.507,16.543,72.962,21.166,84.846c9.557-2.24,23.244-7.68,42.831-15.625
			c10.604-4.301,22.624-9.177,36.422-14.446c23.215-8.868,49.227,2.767,58.093,25.986c8.866,23.217-2.768,49.226-25.985,58.092
			c-12.934,4.939-24.497,9.63-34.699,13.768C543.895,521.173,518.334,531.54,491.396,531.54z"/>
	</g>
</g>
<g id="&#x30EC;&#x30A4;&#x30E4;&#x30FC;_1">
</g>
</svg>
