<?xml version="1.0" encoding="iso-8859-1"?>
<!-- Generator: Adobe Illustrator 23.1.0, SVG Export Plug-In . SVG Version: 6.00 Build 0)  -->
<svg version="1.1" xmlns="http://www.w3.org/2000/svg" xmlns:xlink="http://www.w3.org/1999/xlink" x="0px" y="0px"
	 viewBox="0 0 1000 1000" style="enable-background:new 0 0 1000 1000;" xml:space="preserve">
<g id="latinSmallLetterP">
	<g id="p">
		<g>
			<path d="M465.45,242.43c-21.34,0-42.06,4.55-60.33,13.21c-12.32-11.95-30.96-16.28-47.95-9.54c-23.1,9.16-34.4,35.32-25.24,58.42
				c29.91,75.42,47.41,194.84,65.93,321.28c4.02,27.41,8.17,55.76,12.49,83.91c3.42,22.25,22.59,38.18,44.43,38.18
				c2.27,0,4.57-0.18,6.88-0.53c24.56-3.77,41.42-26.74,37.65-51.31c-4.27-27.84-8.4-56.03-12.4-83.3
				c-3.52-24.04-7.01-47.84-10.55-71.19c13.47,2.09,28.77,3.07,46.91,3.07c0.95,0,1.9,0,2.86-0.01h0.38
				c32.41,0,67.62-16.51,96.73-45.39c30.5-30.27,48-68.37,48-104.53C671.24,321.09,617.18,242.43,465.45,242.43z M559.85,435.34
				c-13.43,13.32-27.53,19.28-33.31,19.28h-0.69c-0.93,0.01-1.83,0.01-2.73,0.01c-42.53,0-53.37-6.24-63.88-16.46
				c-6.42-34.73-13.41-67.56-21.39-97.67c3.56-2.84,12.87-8.07,27.6-8.07c52.63,0,80.41,11.68,94.45,21.48
				c14.56,10.17,21.34,23.13,21.34,40.79C581.24,406.49,572.84,422.45,559.85,435.34z"/>
		</g>
	</g>
</g>
<g id="&#x30EC;&#x30A4;&#x30E4;&#x30FC;_1">
</g>
</svg>
