<?xml version="1.0" encoding="iso-8859-1"?>
<!-- Generator: Adobe Illustrator 23.1.0, SVG Export Plug-In . SVG Version: 6.00 Build 0)  -->
<svg version="1.1" xmlns="http://www.w3.org/2000/svg" xmlns:xlink="http://www.w3.org/1999/xlink" x="0px" y="0px"
	 viewBox="0 0 1000 1000" style="enable-background:new 0 0 1000 1000;" xml:space="preserve">
<g id="latinSmallLetterH">
	<g id="h">
		<path d="M684.591,495.432c-16.217,0-31.879-8.79-39.914-24.155c-37.502-71.709-73.35-97.57-88.519-97.57
			c-0.085,0-0.168,0.001-0.251,0.002c-0.307,0.006-0.614,0.004-0.92,0.008c-3.259-0.009-11.737-0.013-24.917,17.488
			c-11.573,15.366-23.23,39.695-35.636,74.375c-6.566,18.354-24.199,30.379-43.685,29.824c-19.484-0.57-36.386-13.619-41.869-32.324
			c-38.422-131.089-74.513-208.861-128.724-277.387c-15.419-19.491-12.119-47.792,7.372-63.211
			c19.49-15.42,47.791-12.12,63.211,7.372c44.597,56.372,78.926,119.025,110.291,203.517c11.302-14.242,23.786-25.557,37.156-33.668
			c17.395-10.553,36.389-15.93,56.458-15.986c80.771-1.175,141.007,90.822,169.785,145.851c11.518,22.023,3.001,49.213-19.021,60.73
			C698.749,493.78,691.617,495.431,684.591,495.432z"/>
	</g>
</g>
<g id="&#x30EC;&#x30A4;&#x30E4;&#x30FC;_1">
</g>
</svg>
