<?xml version="1.0" encoding="iso-8859-1"?>
<!-- Generator: Adobe Illustrator 23.1.0, SVG Export Plug-In . SVG Version: 6.00 Build 0)  -->
<svg version="1.1" xmlns="http://www.w3.org/2000/svg" xmlns:xlink="http://www.w3.org/1999/xlink" x="0px" y="0px"
	 viewBox="0 0 1000 1000" style="enable-background:new 0 0 1000 1000;" xml:space="preserve">
<g id="latinCapitalLetterN">
	<g id="N">
		<path d="M340.696,509.465c-6.606,0-13.313-1.461-19.654-4.545c-22.348-10.873-31.651-37.803-20.779-60.152
			c27.787-57.115,32.985-155.448,37.163-234.459l0.412-7.773c1.062-19.957,15.159-36.822,34.611-41.408
			c19.455-4.584,39.598,4.207,49.462,21.588c2.649,4.667,5.279,9.308,7.89,13.916c25.745,45.431,50.062,88.343,72.295,120.485
			c24.583,35.54,38.771,46.283,45.002,49.522c15.519,3.729,35.014,5.87,46.148-2.567c12.455-9.435,20.063-35.121,20.982-70.655
			c-5.259-56.412-21.455-78.015-47.522-96.023c-20.447-14.126-25.572-42.154-11.446-62.602
			c14.126-20.448,42.153-25.574,62.603-11.446c26.138,18.057,45.527,39.141,59.276,64.456
			c14.649,26.975,23.47,59.753,26.966,100.209c0.134,1.549,0.188,3.104,0.16,4.659c-1.177,67.387-20.245,115.547-56.676,143.143
			c-17.098,12.951-37.335,20.771-60.15,23.241c-20.155,2.182-42.506,0.102-66.438-6.182c-1.721-0.452-3.412-1.005-5.066-1.657
			c-29.008-11.429-56.104-36.996-87.856-82.901c-3.858-5.578-7.736-11.384-11.635-17.389
			c-6.442,48.533-16.889,95.477-35.249,133.215C373.406,500.149,357.377,509.465,340.696,509.465z"/>
	</g>
</g>
<g id="&#x30EC;&#x30A4;&#x30E4;&#x30FC;_1">
</g>
</svg>
