<?xml version="1.0" encoding="iso-8859-1"?>
<!-- Generator: Adobe Illustrator 23.1.0, SVG Export Plug-In . SVG Version: 6.00 Build 0)  -->
<svg version="1.1" xmlns="http://www.w3.org/2000/svg" xmlns:xlink="http://www.w3.org/1999/xlink" x="0px" y="0px"
	 viewBox="0 0 1000 1000" style="enable-background:new 0 0 1000 1000;" xml:space="preserve">
<g id="latinSmallLetterA">
	<g id="a">
		<path d="M417.344,529.668c-41.458,0-75.887-13.062-98.461-37.738c-16.367-17.891-33.75-49.854-23.615-100.526
			c9.85-49.034,40.878-91.66,83.008-114.063c21.22-11.284,44.474-17.301,69.117-17.883c25.554-0.599,52.009,4.722,78.64,15.826
			c22.938,9.565,33.779,35.914,24.215,58.853c-1.993,4.778-4.715,9.033-7.981,12.687c1.96-0.296,3.952-0.464,5.966-0.499
			c16.288-0.289,31.537,8.322,39.716,22.466c15.266,26.397,46.572,55.664,82.103,61.543c24.52,4.057,41.107,27.223,37.051,51.742
			c-4.057,24.519-27.23,41.11-51.742,37.05c-39.732-6.573-73.643-26.162-100.045-49.902c-4.799,6.048-10.216,11.948-16.497,17.615
			c-23.655,21.341-54.152,34.44-95.976,41.222c-0.774,0.125-1.551,0.23-2.331,0.315C432.578,529.24,424.844,529.668,417.344,529.668
			z M451.344,349.363c-11.19,0-21.483,2.479-30.813,7.44c-18.589,9.885-32.429,29.433-37.02,52.289
			c-0.989,4.945-2.812,17.075,1.776,22.09c5.167,5.648,20.843,10.207,44.347,7.842c48.179-8.023,55.514-22.244,73.033-56.207
			c2.104-4.08,4.281-8.299,6.63-12.697c1.715-3.21,3.787-6.158,6.152-8.803c-7.873,1.199-16.167,0.324-24.056-2.966
			C477.027,352.36,463.644,349.363,451.344,349.363z"/>
	</g>
</g>
<g id="&#x30EC;&#x30A4;&#x30E4;&#x30FC;_1">
</g>
</svg>
