<?xml version="1.0" encoding="iso-8859-1"?>
<!-- Generator: Adobe Illustrator 23.1.0, SVG Export Plug-In . SVG Version: 6.00 Build 0)  -->
<svg version="1.1" xmlns="http://www.w3.org/2000/svg" xmlns:xlink="http://www.w3.org/1999/xlink" x="0px" y="0px"
	 viewBox="0 0 1000 1000" style="enable-background:new 0 0 1000 1000;" xml:space="preserve">
<g id="leftParenthesis">
	<g id="_x28_">
		<path d="M555.577,604.751c-7.788,0.001-15.675-2.021-22.863-6.272c-34.967-20.678-71.278-44.042-97.22-81.989
			c-27.555-40.307-38.729-91.174-34.16-155.51c0.072-1.01,0.178-2.017,0.317-3.019c10.177-73.085,35.919-174.553,141.502-211.759
			c23.441-8.263,49.138,4.046,57.398,27.486c8.26,23.44-4.047,49.138-27.486,57.398c-46.06,16.23-70.646,57.469-82.062,137.772
			c-6.159,92.076,27.576,116.704,87.521,152.152c21.393,12.65,28.479,40.247,15.829,61.64
			C585.954,596.853,570.963,604.75,555.577,604.751z"/>
	</g>
</g>
<g id="&#x30EC;&#x30A4;&#x30E4;&#x30FC;_1">
</g>
</svg>
