<?xml version="1.0" encoding="iso-8859-1"?>
<!-- Generator: Adobe Illustrator 23.1.0, SVG Export Plug-In . SVG Version: 6.00 Build 0)  -->
<svg version="1.1" xmlns="http://www.w3.org/2000/svg" xmlns:xlink="http://www.w3.org/1999/xlink" x="0px" y="0px"
	 viewBox="0 0 1000 1000" style="enable-background:new 0 0 1000 1000;" xml:space="preserve">
<g id="leftCurlyBracket">
	<g id="_x7B_">
		<path d="M521.266,639.908c-24.985,0.002-50.693-6.932-72.759-28.127c-2.768-2.658-5.183-5.659-7.189-8.931
			c-18.88-30.79-18.281-70.075-16.243-90.752c1.899-19.271,6.295-37.773,12.813-54.438c-8.368-2.389-18.446-4.438-29.052-5.222
			c-20.412-1.508-37.235-16.602-40.94-36.732c-3.705-20.13,6.642-40.224,25.18-48.901c23.994-11.231,42.67-25.343,53.606-36.129
			c-10.979-7.096-23.922-16.159-35.273-27.813c-20.568-21.116-30.997-45.375-30.997-72.101c0-21.38,7.75-52.748,44.675-80.766
			c20.289-15.395,47.601-28.621,83.499-40.435c23.607-7.77,49.043,5.07,56.813,28.678c7.769,23.607-5.07,49.043-28.678,56.812
			c-56.505,18.595-65.502,34.292-66.303,35.945c0.375,8.559,21.021,21.554,32.159,28.565c16.374,10.307,31.841,20.042,39.524,38.512
			c0.5,1.201,0.947,2.423,1.341,3.663c6.462,20.35,6.109,52.707-32.052,91.477c11.349,8.169,19.293,17.606,24.031,28.473
			c8.012,18.375,5.601,38.66-6.402,54.608c-7.177,10.271-12.669,27.294-14.378,44.631c-1.288,13.073-0.191,22.584,1.174,28.432
			c11.839,2.838,35.987-4.855,56.75-12.354c23.374-8.441,49.168,3.667,57.608,27.042s-3.666,49.168-27.042,57.608
			C582.74,629.017,552.572,639.906,521.266,639.908z"/>
	</g>
</g>
<g id="&#x30EC;&#x30A4;&#x30E4;&#x30FC;_1">
</g>
</svg>
