<?xml version="1.0" encoding="iso-8859-1"?>
<!-- Generator: Adobe Illustrator 23.1.0, SVG Export Plug-In . SVG Version: 6.00 Build 0)  -->
<svg version="1.1" xmlns="http://www.w3.org/2000/svg" xmlns:xlink="http://www.w3.org/1999/xlink" x="0px" y="0px"
	 viewBox="0 0 1000 1000" style="enable-background:new 0 0 1000 1000;" xml:space="preserve">
<g id="leftSquareBracket">
	<g id="_x5B_">
		<path d="M443.416,539.112c-11.556,0.001-22.699-4.449-31.09-12.469c-8.864-8.472-13.887-20.194-13.908-32.456
			c-0.19-114.073-3.569-242.741-27.185-332.137c-3.633-13.753-0.55-28.415,8.316-39.539s22.478-17.395,36.687-16.929
			c52.792,1.757,87.514-1.606,116.112-11.237c23.554-7.936,49.076,4.729,57.01,28.283c7.933,23.553-4.73,49.077-28.283,57.009
			c-29.841,10.051-60.927,14.307-90.826,15.774c12.966,76.301,16.851,165.544,17.862,250.441
			c31.586-3.191,59.801-8.19,85.419-15.108c23.993-6.478,48.696,7.72,55.175,31.714s-7.721,48.697-31.714,55.174
			c-44.074,11.9-93.667,18.913-151.613,21.438C444.723,539.099,444.068,539.112,443.416,539.112z"/>
	</g>
</g>
<g id="&#x30EC;&#x30A4;&#x30E4;&#x30FC;_1">
</g>
</svg>
