<?xml version="1.0" encoding="iso-8859-1"?>
<!-- Generator: Adobe Illustrator 23.1.0, SVG Export Plug-In . SVG Version: 6.00 Build 0)  -->
<svg version="1.1" xmlns="http://www.w3.org/2000/svg" xmlns:xlink="http://www.w3.org/1999/xlink" x="0px" y="0px"
	 viewBox="0 0 1000 1000" style="enable-background:new 0 0 1000 1000;" xml:space="preserve">
<g id="percentSign">
	<g id="_x25_">
		<g>
			<path d="M384.042,520.328c-7.943,0-15.985-2.103-23.274-6.519c-21.256-12.878-28.048-40.549-15.17-61.805
				c68.283-112.706,124.225-198.783,170.344-261.833c-19.642-0.576-39.842-2.786-60.553-6.632
				c-8.784,31.593-24.63,60.536-46.079,83.61c-29.454,31.687-65.645,48.411-99.271,45.871c-3.741-0.282-7.432-1.03-10.987-2.228
				c-35.607-11.997-59.799-27.417-76.131-48.527c-19.769-25.551-24.052-54.599-25.576-77.05c-0.213-3.139-0.097-6.292,0.348-9.406
				c5.796-40.603,22.507-71.36,49.669-91.415c30.619-22.607,71.001-29.558,123.461-21.255c3.869,0.613,7.641,1.728,11.221,3.317
				c85.04,37.748,166.009,44.018,227.989,17.659c19.853-8.442,42.905-1.608,54.948,16.292c12.043,17.9,9.687,41.829-5.615,57.037
				c-50.875,50.563-128.331,162.168-236.793,341.195C414.111,512.605,399.26,520.328,384.042,520.328z M287.533,183.97
				c1.437,14.805,4.226,20.195,6.569,23.223c4.063,5.251,12.717,10.441,25.776,15.468c5.125-1.648,14.523-6.807,24.447-17.808
				c7.078-7.846,18.423-23.219,24.62-46.299c-7.156-2.803-13.123-5.328-17.699-7.319c-23.543-3.094-41.328-1.155-50.427,5.563
				C294.47,161.487,290.01,170.616,287.533,183.97z"/>
		</g>
		<g>
			<path d="M646.413,565.458c-8.329,0-13.107-1.382-15.76-2.148c-0.925-0.255-3.892-0.86-6.059-1.303
				c-15.144-3.093-40.49-8.268-63.273-24.92c-20.945-15.31-45.504-44.718-43.556-97.88c0.976-26.638,10.448-50.801,27.394-69.877
				c12.733-14.334,29.459-25.713,49.714-33.821c30.307-12.132,59.4-13.113,62.617-13.185l0.32,14.311
				c25.332-10.824,58.051-4.893,89.502,16.69c31.729,21.774,62.589,61.316,54.046,106.994
				c-3.631,19.416-16.388,47.754-56.541,72.498c-16.716,10.301-37.298,19.361-57.954,25.514
				C668.201,563.888,655.291,565.457,646.413,565.458z M655.593,476.833c0.017,0.005,0.033,0.01,0.051,0.015
				C655.626,476.843,655.609,476.838,655.593,476.833z M646.133,475.479L646.133,475.479L646.133,475.479z M645.067,414.207
				c-5.53,1.096-11.992,2.807-18.229,5.468c-18.587,7.93-18.915,16.895-19.133,22.827c-0.713,19.468,2.419,24.692,34.896,31.324
				c2.097,0.428,4.14,0.845,6.149,1.291c6.305-1.113,20.651-4.787,36.181-12.114c16.847-7.948,24.7-15.318,27.31-18.744
				c-1.245-2.66-4.51-7.483-10.581-12.68c-5.875-5.029-11.582-8.026-15.117-9.41C672.226,426.588,656.623,423.513,645.067,414.207z"
				/>
		</g>
	</g>
</g>
<g id="&#x30EC;&#x30A4;&#x30E4;&#x30FC;_1">
</g>
</svg>
