<?xml version="1.0" encoding="iso-8859-1"?>
<!-- Generator: Adobe Illustrator 23.1.0, SVG Export Plug-In . SVG Version: 6.00 Build 0)  -->
<svg version="1.1" xmlns="http://www.w3.org/2000/svg" xmlns:xlink="http://www.w3.org/1999/xlink" x="0px" y="0px"
	 viewBox="0 0 1000 1000" style="enable-background:new 0 0 1000 1000;" xml:space="preserve">
<g id="questionMark">
	<g id="_x3F_">
		<g>
			<path d="M530.052,453.92c-11.115,0-21.647-0.484-31.611-1.654c-60.077-7.051-81.993-39.58-89.799-65.627
				c-1.922-6.413-2.389-13.174-1.366-19.791c5.353-34.644,35.124-76.406,79.93-136.164c8.252-11.007,18.657-24.884,27.383-37.181
				c-6.927-1.654-15.736-3.366-26.864-4.946c-26.039-3.697-59.467-5.834-96.672-6.179c-24.852-0.23-44.811-20.563-44.581-45.416
				c0.23-24.851,20.57-44.843,45.416-44.581c49.794,0.462,91.849,3.731,124.997,9.718c35.322,6.379,84.118,19.446,100.004,59.097
				c3.342,8.342,4.11,17.494,2.204,26.277c-5.058,23.313-24.011,49.362-59.88,97.201c-15.31,20.418-31.141,41.531-43.591,60.396
				c-4.553,6.898-8.046,12.592-10.725,17.252c4.566,0.727,10.801,1.337,19.219,1.526c21.381,0.482,49.237-1.885,78.736-4.389
				l1.873-0.159c24.766-2.099,46.542,16.271,48.643,41.035s-16.271,46.542-41.035,48.643l-1.87,0.159
				C580.919,451.647,554.127,453.92,530.052,453.92z M538.181,201.947h0.01H538.181z"/>
		</g>
		<g>
			<path d="M495.525,583.357c-15.866,0-31.248-8.407-39.449-23.284c-11.998-21.765-4.081-49.135,17.684-61.133l27.867-15.362
				c21.761-11.997,49.134-4.082,61.133,17.684c11.999,21.765,4.081,49.135-17.684,61.133l-27.867,15.362
				C510.321,581.555,502.871,583.357,495.525,583.357z"/>
		</g>
	</g>
</g>
<g id="&#x30EC;&#x30A4;&#x30E4;&#x30FC;_1">
</g>
</svg>
