<?xml version="1.0" encoding="iso-8859-1"?>
<!-- Generator: Adobe Illustrator 23.1.0, SVG Export Plug-In . SVG Version: 6.00 Build 0)  -->
<svg version="1.1" xmlns="http://www.w3.org/2000/svg" xmlns:xlink="http://www.w3.org/1999/xlink" x="0px" y="0px"
	 viewBox="0 0 1000 1000" style="enable-background:new 0 0 1000 1000;" xml:space="preserve">
<g id="quotationMark">
	<g id="_x22_">
		<g>
			<path d="M458.181,310.205c-23.193,0-42.877-17.812-44.8-41.336c-1.428-17.467-8.532-55.307-24.187-109.127
				c-6.941-23.864,6.777-48.836,30.642-55.778c23.864-6.938,48.836,6.777,55.777,30.642c15.108,51.942,25.12,98.206,27.468,126.931
				c2.025,24.77-16.413,46.492-41.184,48.517C460.652,310.154,459.409,310.205,458.181,310.205z"/>
		</g>
		<g>
			<path d="M567.563,295.094c-20.068,0-38.36-13.52-43.563-33.857c-1.353-5.285-2.896-11.612-4.529-18.311
				c-5.509-22.582-14.728-60.376-21.697-75.806c-10.231-22.649-0.164-49.304,22.486-59.535
				c22.648-10.231,49.304-0.164,59.535,22.486c9.623,21.305,17.972,54.056,27.112,91.527c1.572,6.446,3.058,12.535,4.284,17.332
				c6.16,24.078-8.365,48.589-32.442,54.75C575.009,294.636,571.254,295.094,567.563,295.094z"/>
		</g>
	</g>
</g>
<g id="&#x30EC;&#x30A4;&#x30E4;&#x30FC;_1">
</g>
</svg>
