<?xml version="1.0" encoding="iso-8859-1"?>
<!-- Generator: Adobe Illustrator 23.1.0, SVG Export Plug-In . SVG Version: 6.00 Build 0)  -->
<svg version="1.1" xmlns="http://www.w3.org/2000/svg" xmlns:xlink="http://www.w3.org/1999/xlink" x="0px" y="0px"
	 viewBox="0 0 1000 1000" style="enable-background:new 0 0 1000 1000;" xml:space="preserve">
<g id="rightCurlyBracket">
	<g id="_x7D_">
		<path d="M489.254,631.572c-24.801,0-44.936-20.073-44.998-44.888c-0.062-24.854,20.035-45.05,44.888-45.112l0.59-0.001
			c11.448-0.028,20.856-0.323,28.181-0.883c-7.586-38.305-30.413-90.309-48.848-113.401c-12.161-15.233-13.132-36.565-2.404-52.84
			c2.067-3.137,4.244-6.069,6.498-8.815c-2.926-1.359-5.797-2.86-8.597-4.535c-16.389-9.801-24.807-28.878-21.001-47.59
			c7.929-38.984,24.92-74.632,38.573-103.276c2.407-5.049,5.229-10.969,7.933-16.883c-14.205-0.845-31.325-0.401-46.415,2.912
			c-24.271,5.326-48.272-10.03-53.602-34.305c-5.329-24.274,10.03-48.273,34.305-53.602c30.731-6.746,61.387-5.679,76.928-4.439
			c47.746,3.803,63.938,16.825,69.258,21.104c12.754,10.257,20.068,25.037,20.068,40.549c0,26.254-12.62,52.731-27.232,83.388
			c-6.563,13.77-13.601,28.534-19.585,43.644c13.805,3.318,28.632,7.5,42.797,14.793c20.518,10.563,29.719,34.937,21.301,56.424
			c-9.482,24.202-29.217,36.109-44.354,44.69c25.199,46.33,46.963,109.899,46.963,154.86c0,20.938-10.726,39.685-29.427,51.434
			c-9.698,6.093-21.487,10.357-36.04,13.036c-19.827,3.649-41.043,3.701-55.082,3.734l-0.584,0.002
			C489.331,631.572,489.292,631.572,489.254,631.572z"/>
	</g>
</g>
<g id="&#x30EC;&#x30A4;&#x30E4;&#x30FC;_1">
</g>
</svg>
