<?xml version="1.0" encoding="iso-8859-1"?>
<!-- Generator: Adobe Illustrator 23.1.0, SVG Export Plug-In . SVG Version: 6.00 Build 0)  -->
<svg version="1.1" xmlns="http://www.w3.org/2000/svg" xmlns:xlink="http://www.w3.org/1999/xlink" x="0px" y="0px"
	 viewBox="0 0 1000 1000" style="enable-background:new 0 0 1000 1000;" xml:space="preserve">
<g id="rightParanthesis">
	<g id="_x29_">
		<path d="M502.018,617.028c-10.133,0.001-20.323-3.403-28.727-10.384c-19.119-15.879-21.745-44.25-5.866-63.368
			c45.841-55.194,65.266-116.135,57.742-181.146c-10.813-65.602-43.432-105.797-105.662-130.27
			c-23.129-9.095-34.505-35.218-25.409-58.347c9.096-23.129,35.218-34.503,58.347-25.41
			c91.667,36.049,146.079,103.545,161.727,200.615c0.098,0.605,0.183,1.212,0.255,1.821c6.11,51.121,0.25,100.935-17.417,148.059
			c-13.387,35.706-33.69,70.083-60.348,102.179C527.761,611.493,514.936,617.028,502.018,617.028z"/>
	</g>
</g>
<g id="&#x30EC;&#x30A4;&#x30E4;&#x30FC;_1">
</g>
</svg>
