<?xml version="1.0" encoding="iso-8859-1"?>
<!-- Generator: Adobe Illustrator 24.3.0, SVG Export Plug-In . SVG Version: 6.00 Build 0)  -->
<svg version="1.1" xmlns="http://www.w3.org/2000/svg" xmlns:xlink="http://www.w3.org/1999/xlink" x="0px" y="0px"
	 viewBox="0 0 1000 1000" style="enable-background:new 0 0 1000 1000;" xml:space="preserve">
<g id="brokenBar">
	<g>
		<g>
			<path d="M498.166,314.543c-20.178,0-38.531-13.667-43.63-34.13c-12.345-49.539-25.526-84.993-40.298-108.389
				c-13.269-21.014-6.99-48.806,14.025-62.075c21.013-13.269,48.806-6.989,62.075,14.025c20.25,32.072,36.624,74.866,51.527,134.677
				c6.01,24.115-8.669,48.536-32.784,54.545C505.429,314.107,501.767,314.543,498.166,314.543z"/>
		</g>
		<g>
			<path d="M547.67,563.002c-23.552,0-43.354-18.318-44.866-42.15c-3.394-53.457-13.53-114.317-24.101-144.712
				c-8.164-23.474,4.248-49.121,27.722-57.285c23.47-8.164,49.12,4.247,57.284,27.721c13.325,38.315,24.944,106.06,28.913,168.572
				c1.575,24.804-17.255,46.187-42.058,47.761C549.594,562.972,548.629,563.002,547.67,563.002z"/>
		</g>
	</g>
</g>
<g id="&#x30EC;&#x30A4;&#x30E4;&#x30FC;_1">
</g>
</svg>
