<?xml version="1.0" encoding="iso-8859-1"?>
<!-- Generator: Adobe Illustrator 24.3.0, SVG Export Plug-In . SVG Version: 6.00 Build 0)  -->
<svg version="1.1" xmlns="http://www.w3.org/2000/svg" xmlns:xlink="http://www.w3.org/1999/xlink" x="0px" y="0px"
	 viewBox="0 0 1000 1000" style="enable-background:new 0 0 1000 1000;" xml:space="preserve">
<g id="cedilla">
	<g>
		<path d="M495.429,859.091c-18.124,0-36.42-1.705-53.99-3.925c-24.657-3.115-42.12-25.629-39.004-50.286
			c3.115-24.657,25.623-42.119,50.286-39.005c45.115,5.699,73.559,3.679,84.545-6.006c8.624-7.604,10.435-25.888,10.435-39.888
			c0-13.402-10.495-22.744-16.751-27.12c-16.801-11.751-47.903-19.506-84.815-6.028c-14.412,5.264-30.516,2.817-42.718-6.485
			c-12.203-9.304-18.823-24.184-17.564-39.477c3.468-42.129,2.062-57.463-18.925-100.093c-10.977-22.298-1.8-49.272,20.497-60.249
			c22.297-10.978,49.271-1.8,60.249,20.497c17.71,35.975,25.936,61.482,28.598,88.862c38.8-1.782,76.143,8.154,106.264,29.223
			c35.059,24.522,55.166,61.288,55.166,100.87c0,47.328-13.767,83.462-40.916,107.397
			C568.932,851.934,532.549,859.091,495.429,859.091z"/>
	</g>
</g>
<g id="&#x30EC;&#x30A4;&#x30E4;&#x30FC;_1">
</g>
</svg>
