<?xml version="1.0" encoding="iso-8859-1"?>
<!-- Generator: Adobe Illustrator 24.3.0, SVG Export Plug-In . SVG Version: 6.00 Build 0)  -->
<svg version="1.1" xmlns="http://www.w3.org/2000/svg" xmlns:xlink="http://www.w3.org/1999/xlink" x="0px" y="0px"
	 viewBox="0 0 1000 1000" style="enable-background:new 0 0 1000 1000;" xml:space="preserve">
<g id="centSign">
	<path d="M610.29,364.55c-14.65,6.21-29.33,11.33-43.73,15.28l-4.38,49.56c-2.07,23.41-21.71,41.04-44.78,41.04
		c-1.32,0-2.66-0.06-4.01-0.17c-24.75-2.19-43.05-24.03-40.86-48.79l2.97-33.59c-22.1-3.02-41.59-10.31-58.22-21.8
		c-1.64-1.13-3.19-2.36-4.66-3.7c-23.75-21.54-40.5-50.92-47.16-82.75c-6.47-30.94-2.85-62.13,9.94-85.58
		c0.71-1.3,1.49-2.57,2.32-3.79c16.35-23.99,38.89-38.42,63.87-46.86c-9.21-21.94-14.34-46.54-18.9-72.65
		c-4.28-24.48,12.09-47.79,36.57-52.08c24.49-4.28,47.8,12.1,52.08,36.58c9.67,55.25,16.95,67.62,33.95,76.75
		c0.66,0.35,1.31,0.72,1.94,1.11c23.06,2.79,40.47,22.9,39.51,46.51c-1.02,24.83-21.99,44.15-46.8,43.12
		c-46.35-1.88-75.35,3.56-86.31,16.21c-3.43,9.82-1.66,35.61,17.05,54.47c16.9,9.42,54.75,9.37,104.46-11.72
		c22.89-9.71,49.3,0.97,59,23.85C643.85,328.43,633.17,354.85,610.29,364.55z"/>
</g>
<g id="&#x30EC;&#x30A4;&#x30E4;&#x30FC;_1">
</g>
</svg>
