<?xml version="1.0" encoding="iso-8859-1"?>
<!-- Generator: Adobe Illustrator 24.3.0, SVG Export Plug-In . SVG Version: 6.00 Build 0)  -->
<svg version="1.1" xmlns="http://www.w3.org/2000/svg" xmlns:xlink="http://www.w3.org/1999/xlink" x="0px" y="0px"
	 viewBox="0 0 1000 1000" style="enable-background:new 0 0 1000 1000;" xml:space="preserve">
<g id="currencySign">
	<g>
		<g>
			<path d="M684.42,180.89c-8.76-23.26-34.72-35-57.97-26.24c-24.28,9.15-41.1,26.51-58.9,44.88c-4.91,5.06-9.94,10.25-15.42,15.62
				c-14.73-4.84-30.27-7.42-46.05-7.65c-9.42-5.17-20.72-7.01-32-4.34c-6.1,1.44-11.97,3.08-17.6,4.91
				c-12.51-22.8-30.69-46.43-51.42-66.37c-17.9-17.24-46.39-16.69-63.63,1.21c-17.23,17.91-16.68,46.4,1.22,63.63
				c16.92,16.28,32.38,37.48,39.33,53.75C369.53,279.03,363,301.38,363,325.66c0,17.69,2.99,34.17,8.61,49.02l-47.44,52.97
				c-16.59,18.51-15.02,46.96,3.49,63.54c8.59,7.7,19.32,11.48,30.01,11.48c12.35,0,24.65-5.05,33.53-14.97l41.89-46.77
				c15.35,7.23,32.79,11.76,51.87,13.11c1.06,0.08,2.12,0.11,3.18,0.11c22.15,0,42.18-2.13,59.95-6.34l23.67,48.07
				c7.83,15.9,23.79,25.13,40.4,25.13c6.67,0,13.45-1.49,19.85-4.64c22.29-10.98,31.47-37.95,20.49-60.25l-27.45-55.73
				c13.21-18.36,20.22-40.73,20.22-65.63c0-23.4-7.07-45.87-20.11-65.37c2.44-2.5,4.78-4.91,7.03-7.23
				c10.12-10.45,20.58-21.25,26-23.29C681.44,230.1,693.19,204.15,684.42,180.89z M546.29,352.95c-6.46,4.11-22.32,10.98-56.44,11.2
				C453,360.85,453,334.42,453,325.66c0-5.86,0-14.2,10.25-22.04c5.61,0.35,11.37-0.36,17.03-2.26c21.09-7.07,43.18-4.46,59.08,6.98
				c10.11,7.28,15.91,16.91,15.91,26.42C555.27,345.24,552.11,349.24,546.29,352.95z"/>
		</g>
	</g>
</g>
<g id="&#x30EC;&#x30A4;&#x30E4;&#x30FC;_1">
</g>
</svg>
