<?xml version="1.0" encoding="iso-8859-1"?>
<!-- Generator: Adobe Illustrator 24.3.0, SVG Export Plug-In . SVG Version: 6.00 Build 0)  -->
<svg version="1.1" xmlns="http://www.w3.org/2000/svg" xmlns:xlink="http://www.w3.org/1999/xlink" x="0px" y="0px"
	 viewBox="0 0 1000 1000" style="enable-background:new 0 0 1000 1000;" xml:space="preserve">
<g id="degreeSign">
	<g>
		<path d="M485.464,297.013c-32.1,0-73.691-4.636-102.228-32.443c-19.425-18.928-29.275-44.881-29.275-77.138
			c0-44.488,32.76-90.037,84.323-123.214c-0.106-1.262-0.16-2.537-0.16-3.827c0-24.853,20.147-45,45-45
			c43.828,0,81.955,9.542,110.261,27.593c33.954,21.654,52.654,54.227,52.654,91.72c0,42.145-10.813,77.408-32.14,104.811
			c-25.756,33.094-64.615,52.331-115.5,57.177c-1.031,0.098-2.065,0.161-3.101,0.188
			C492.146,296.961,488.856,297.013,485.464,297.013z M539.518,115.7c-29.472,9.214-55.629,23.548-74.113,40.687
			c-17.484,16.211-21.362,28.635-21.444,31.075c0,8.016,1.405,11.987,2.085,12.649c0.322,0.314,8.228,7.592,45.335,6.835
			c45.899-4.782,64.658-25.806,64.658-72.242C556.039,127.323,549.927,120.746,539.518,115.7z"/>
	</g>
</g>
<g id="&#x30EC;&#x30A4;&#x30E4;&#x30FC;_1">
</g>
</svg>
