<?xml version="1.0" encoding="iso-8859-1"?>
<!-- Generator: Adobe Illustrator 24.3.0, SVG Export Plug-In . SVG Version: 6.00 Build 0)  -->
<svg version="1.1" xmlns="http://www.w3.org/2000/svg" xmlns:xlink="http://www.w3.org/1999/xlink" x="0px" y="0px"
	 viewBox="0 0 1000 1000" style="enable-background:new 0 0 1000 1000;" xml:space="preserve">
<g id="divisionSign">
	<g>
		<g>
			<path d="M354.18,355.566c-19.486,0-37.444-12.756-43.178-32.405c-6.962-23.857,6.734-48.842,30.592-55.805
				c61.797-18.034,112.365-28.759,159.14-33.752c52.241-5.576,102.167-4.1,152.635,4.511c24.499,4.181,40.97,27.43,36.789,51.928
				c-3.743,21.936-22.777,37.436-44.305,37.438c-2.516,0-5.061-0.211-7.623-0.648c-81.366-13.883-157.466-6.336-271.424,26.919
				C362.599,354.98,358.354,355.566,354.18,355.566z"/>
		</g>
		<g>
			<path d="M514.009,183.116c-9.68,0-19.43-3.109-27.653-9.525c-5.477-4.274-9.704-8.608-12.962-12.386
				c-14.753-5.123-26.421-17.792-29.503-34.242c-4.578-24.427,11.514-47.941,35.941-52.519c19.345-3.626,33.667,2.405,42.274,8.101
				c8.745,5.788,13.942,12.673,17.381,17.229c0.794,1.053,1.875,2.486,2.297,2.909c19.542,15.3,23.008,43.541,7.733,63.115
				C540.644,177.169,527.395,183.116,514.009,183.116z M541.725,102.638c0.001,0.001,0.003,0.002,0.004,0.003
				C541.728,102.64,541.726,102.639,541.725,102.638z"/>
		</g>
		<g>
			<path d="M514.062,446.272c-12.775,0.001-25.464-5.41-34.366-15.924c-10.297-12.164-14.469-23.53-16.157-33.28
				c-11.11-15.341-11.683-36.685,0.054-52.842c14.606-20.108,42.746-24.567,62.856-9.96c20.313,14.756,24.611,32.667,25.63,42.952
				c11.843,18.678,8.395,43.704-8.962,58.398C534.662,442.773,524.333,446.272,514.062,446.272z M473.536,407.07
				c0.005,0.004,0.011,0.008,0.017,0.012C473.547,407.078,473.541,407.073,473.536,407.07z"/>
		</g>
	</g>
</g>
<g id="&#x30EC;&#x30A4;&#x30E4;&#x30FC;_1">
</g>
</svg>
