<?xml version="1.0" encoding="iso-8859-1"?>
<!-- Generator: Adobe Illustrator 24.3.0, SVG Export Plug-In . SVG Version: 6.00 Build 0)  -->
<svg version="1.1" xmlns="http://www.w3.org/2000/svg" xmlns:xlink="http://www.w3.org/1999/xlink" x="0px" y="0px"
	 viewBox="0 0 1000 1000" style="enable-background:new 0 0 1000 1000;" xml:space="preserve">
<g id="feminineOrdinalIndicator">
	<g>
		<path d="M396.563,268.807c-4.729,0-9.413-0.254-14.047-0.765c-22.973-2.53-43.283-11.34-58.734-25.475
			c-24.509-22.422-33.677-55.323-24.525-88.009c0.537-1.917,1.201-3.796,1.986-5.626C330.608,80.564,411.39,27.011,485.15,27.011
			c19.958,0,36.88,12.991,42.773,30.979c13.65-2.806,28.214,0.823,39.081,10.551c39.916,35.731,70.605,55.938,109.46,72.068
			c22.954,9.529,33.836,35.861,24.307,58.815c-9.528,22.955-35.862,33.835-58.814,24.306c-27.556-11.439-52.102-24.646-76.901-41.75
			c-5.584,7.706-12.547,15.463-21.164,23.154c-21.568,19.249-50.812,36.011-92.029,52.749c-0.332,0.135-0.665,0.265-1,0.392
			C432.357,265.281,414.152,268.807,396.563,268.807z M387.341,177.545c4.749,1.569,15.105,2.73,31.195-3.266
			c30.232-12.315,52.242-24.524,65.428-36.292c13.655-12.187,11.862-17.311,10.552-21.052c-0.098-0.28-0.193-0.561-0.286-0.842
			c-2.933,0.601-5.97,0.917-9.081,0.917C449.823,117.011,405.39,145.071,387.341,177.545z"/>
	</g>
</g>
<g id="&#x30EC;&#x30A4;&#x30E4;&#x30FC;_1">
</g>
</svg>
