<?xml version="1.0" encoding="iso-8859-1"?>
<!-- Generator: Adobe Illustrator 24.3.0, SVG Export Plug-In . SVG Version: 6.00 Build 0)  -->
<svg version="1.1" xmlns="http://www.w3.org/2000/svg" xmlns:xlink="http://www.w3.org/1999/xlink" x="0px" y="0px"
	 viewBox="0 0 1000 1000" style="enable-background:new 0 0 1000 1000;" xml:space="preserve">
<g id="invertedExclamationMark">
	<g id="_x21_">
		<g>
			<path d="M540.526,685.19c-17.641,0-34.381-10.438-41.573-27.742c-25.345-60.984-42.144-141.099-48.58-231.681
				c-1.762-24.791,16.907-46.315,41.697-48.076c24.794-1.761,46.314,16.907,48.076,41.697
				c5.675,79.859,20.56,152.137,41.915,203.521c9.537,22.949-1.335,49.286-24.285,58.824
				C552.133,684.079,546.28,685.19,540.526,685.19z"/>
		</g>
		<g>
			<path d="M467.953,326.472c-15.063,0-29.778-7.559-38.295-21.304l-8.418-13.585c-13.09-21.126-6.576-48.864,14.55-61.954
				c21.128-13.09,48.864-6.576,61.954,14.55l8.418,13.585c13.09,21.126,6.576,48.864-14.55,61.954
				C484.231,324.291,476.041,326.472,467.953,326.472z"/>
		</g>
	</g>
</g>
<g id="&#x30EC;&#x30A4;&#x30E4;&#x30FC;_1">
</g>
</svg>
