<?xml version="1.0" encoding="iso-8859-1"?>
<!-- Generator: Adobe Illustrator 24.3.0, SVG Export Plug-In . SVG Version: 6.00 Build 0)  -->
<svg version="1.1" xmlns="http://www.w3.org/2000/svg" xmlns:xlink="http://www.w3.org/1999/xlink" x="0px" y="0px"
	 viewBox="0 0 1000 1000" style="enable-background:new 0 0 1000 1000;" xml:space="preserve">
<g id="latinSmallLetterOWithStroke">
	<g>
		<g>
			<path d="M669.57,326.06c-0.45-1.75-1-3.47-1.66-5.16c-11.03-28.25-32.71-50.68-61.45-64.84c5.08-18.64,9.25-36.25,12.35-52.74
				c4.6-24.42-11.48-47.95-35.9-52.54c-24.42-4.6-47.95,11.47-52.54,35.9c-3.05,16.2-7.34,33.88-12.71,52.91
				c-12.32,0.75-24.68,2.61-36.73,5.53c-7.72-2.61-16.25-3.16-24.76-1.14c-45.78,10.84-82.49,34.05-106.16,67.13
				c-22.3,31.17-31.14,68.42-24.89,104.89c0.01,0.07,0.02,0.14,0.03,0.22c4.2,23.79,13.28,44.73,26.99,62.22
				c13.03,16.63,29.94,29.8,50.28,39.14c3.9,1.79,7.93,3.44,12.08,4.93c-1.29,3.24-2.58,6.5-3.87,9.76l-9.18,23.16
				c-9.15,23.11,2.17,49.26,25.27,58.41c5.44,2.15,11.04,3.17,16.56,3.17c17.91,0,34.85-10.77,41.85-28.44l9.17-23.14
				c4.31-10.88,8.58-21.65,12.79-32.3c5.93-0.44,11.94-1.06,18.04-1.87c59.22-7.75,102.2-30.83,127.74-68.62
				C677.43,426.32,683.21,379.09,669.57,326.06z M413.81,400.69c-0.62-3.63-0.78-7.32-0.49-11c12.96-1.46,25.19-8.53,32.81-20.35
				c9.46-14.68,23.71-24.94,39.38-31.4c-11.36,31.6-24.2,65.32-38.01,100.78c-2.65-0.87-5.16-1.84-7.5-2.92
				C424.98,428.91,416.9,418.07,413.81,400.69z M578.32,412.23c-7.24,10.7-19.49,17.79-32.8,22.47
				c11.99-31.36,23.08-61.34,32.95-89.74c1.88,1.96,3.49,4.17,4.72,6.66C587.62,370.39,589.92,395.07,578.32,412.23z"/>
		</g>
	</g>
</g>
<g id="&#x30EC;&#x30A4;&#x30E4;&#x30FC;_1">
</g>
</svg>
