<?xml version="1.0" encoding="iso-8859-1"?>
<!-- Generator: Adobe Illustrator 24.3.0, SVG Export Plug-In . SVG Version: 6.00 Build 0)  -->
<svg version="1.1" xmlns="http://www.w3.org/2000/svg" xmlns:xlink="http://www.w3.org/1999/xlink" x="0px" y="0px"
	 viewBox="0 0 1000 1000" style="enable-background:new 0 0 1000 1000;" xml:space="preserve">
<g id="latinSmallLetterEth">
	<g>
		<g>
			<path d="M608.39,175.85c2.79-1.43,5.65-2.83,8.57-4.22c22.44-10.67,31.98-37.52,21.3-59.96c-10.68-22.45-37.53-31.98-59.97-21.3
				c-28.34,13.49-52.81,28.65-74.3,46.39c-0.9-0.01-1.8-0.02-2.71-0.02c-80.06,0-122.79,25.75-162.31,64.43
				c-17.76,17.38-18.06,45.87-0.68,63.63c17.38,17.77,45.87,18.07,63.63,0.69c5.12-5.01,10.05-9.52,15.03-13.53
				c-7.48,21.08,1.73,44.92,22.23,55.21c1.13,0.57,2.26,1.08,3.41,1.54c-8.61,5.4-16.71,11.8-24.15,19.14
				c-24.5,24.17-38.55,55.07-38.55,84.77c0,30.33,10.72,60.77,29.4,83.51c22.19,27,53.64,41.87,88.57,41.87
				c38.83,0,81.8-16.89,114.94-45.19c39.82-33.99,61.75-80.69,61.75-131.5C674.55,278.16,650.63,213.92,608.39,175.85z M497.86,448
				c-20.37,0-27.97-21.7-27.97-35.38c0-8.61,15.79-34.5,44.55-34.81c48.66,1.43,56.62,16.21,59.24,21.08
				c0.26,0.48,0.52,0.95,0.79,1.41C556.86,431.75,520.21,448,497.86,448z M516.17,287.82c-0.41-0.01-0.8-0.01-1.21-0.01
				c-5.45,0-10.87,0.32-16.22,0.97c0.29-0.53,0.58-1.07,0.85-1.61c10.43-20.77,21.48-38.27,34.08-53.44
				c23.81,11.62,36.8,36.3,43.68,63.08C559.67,291.4,539.51,288.45,516.17,287.82z"/>
		</g>
	</g>
</g>
<g id="&#x30EC;&#x30A4;&#x30E4;&#x30FC;_1">
</g>
</svg>
