<?xml version="1.0" encoding="iso-8859-1"?>
<!-- Generator: Adobe Illustrator 24.3.0, SVG Export Plug-In . SVG Version: 6.00 Build 0)  -->
<svg version="1.1" xmlns="http://www.w3.org/2000/svg" xmlns:xlink="http://www.w3.org/1999/xlink" x="0px" y="0px"
	 viewBox="0 0 1000 1000" style="enable-background:new 0 0 1000 1000;" xml:space="preserve">
<g id="latinCapitalLetterThorn">
	<g>
		<g>
			<path d="M631.05,200.48c-27.56-22.61-64.92-34.57-108.04-34.57c-34.85,0-67.64,10.67-98.07,31.85
				c-4.98-20.09-10.3-40.59-15.95-61.5c-6.48-23.99-31.19-38.18-55.18-31.7c-23.99,6.48-38.19,31.19-31.7,55.18
				c37.43,138.5,59.54,257.13,67.59,362.68c1.8,23.62,21.53,41.58,44.82,41.58c1.15,0,2.31-0.04,3.48-0.13
				c24.78-1.89,43.33-23.51,41.44-48.29c-0.96-12.55-2.1-25.26-3.43-38.14c15.08,3.09,31.75,4.6,50.23,4.6
				c43.63,0,83.84-20.39,113.22-57.41c25.41-32.03,39.99-73.89,39.99-114.86C679.45,252.26,653.13,218.6,631.05,200.48z
				 M526.24,392.04c-38.83,0-52.06-8.58-59.24-16.04c-1.74-1.81-3.6-3.44-5.55-4.89c-4-23.8-8.57-48.2-13.72-73.24
				c24.6-28.2,49.34-41.96,75.28-41.96c66.44,0,66.44,40.54,66.44,53.86C589.45,348.6,562.42,392.04,526.24,392.04z"/>
		</g>
	</g>
</g>
<g id="&#x30EC;&#x30A4;&#x30E4;&#x30FC;_1">
</g>
</svg>
