<?xml version="1.0" encoding="iso-8859-1"?>
<!-- Generator: Adobe Illustrator 24.3.0, SVG Export Plug-In . SVG Version: 6.00 Build 0)  -->
<svg version="1.1" xmlns="http://www.w3.org/2000/svg" xmlns:xlink="http://www.w3.org/1999/xlink" x="0px" y="0px"
	 viewBox="0 0 1000 1000" style="enable-background:new 0 0 1000 1000;" xml:space="preserve">
<g id="masculineOrdinalIndicator">
	<g>
		<path d="M496.622,273c-32.744,0-62.952-10.378-85.06-29.223c-18.167-15.484-39.821-43.99-39.821-91.858
			c0-38.345,12.04-69.706,35.786-93.211c6.557-6.491,13.953-12.305,22.253-17.476c6.798-12.692,19.554-21.906,34.951-23.537
			c49.862-5.286,96.429,7.855,127.759,36.042c23.066,20.752,35.77,47.757,35.77,76.04c0,35.814-11.75,69.99-33.086,96.232
			C570.538,256.312,535.538,273,496.622,273z M501.842,107.675c-37.2,10.138-40.102,24.258-40.102,44.244
			c0,9.3,0,31.081,34.881,31.081c11.795,0,21.189-4.502,28.72-13.765c8.209-10.098,12.918-24.48,12.918-39.458
			c0-1.875-1.844-5.425-5.964-9.132C529.104,117.774,519.517,110.511,501.842,107.675z"/>
	</g>
</g>
<g id="&#x30EC;&#x30A4;&#x30E4;&#x30FC;_1">
</g>
</svg>
