<?xml version="1.0" encoding="iso-8859-1"?>
<!-- Generator: Adobe Illustrator 24.3.0, SVG Export Plug-In . SVG Version: 6.00 Build 0)  -->
<svg version="1.1" xmlns="http://www.w3.org/2000/svg" xmlns:xlink="http://www.w3.org/1999/xlink" x="0px" y="0px"
	 viewBox="0 0 1000 1000" style="enable-background:new 0 0 1000 1000;" xml:space="preserve">
<g id="microSign">
	<g>
		<path d="M339.959,682.572c-7.362,0-14.826-1.809-21.725-5.622c-21.752-12.021-29.641-39.399-17.62-61.151
			c50.963-92.22,81.576-187.631,105.664-329.323c4.085-24.033,26.562-40.445,50.702-37.009
			c24.135,3.434,41.147,25.462,38.368,49.682c-6.95,60.565-0.797,105.841,3.183,126.4c5.287,0.019,13.981-0.542,28.241-2.64
			c28.265-13.305,43.942-48.864,46.617-105.794c1.128-24.023,20.939-42.889,44.942-42.889c0.133,0,0.264,0,0.396,0.002
			c24.182,0.208,43.875,19.492,44.592,43.664c1.711,57.695,11.683,96.741,29.637,116.053c16.922,18.201,15.885,46.675-2.316,63.597
			c-18.202,16.923-46.675,15.886-63.598-2.316c-6.434-6.92-12.263-14.507-17.5-22.81c-17.281,18.129-36.523,29.287-54.273,36.124
			c-2.949,1.136-6.011,1.958-9.133,2.453c-20.893,3.311-45.104,6.279-66.263,3.197c-13.283-1.935-23.989-6.023-32.596-11.148
			c-18.197,55.415-40.462,106.655-67.892,156.289C371.178,674.183,355.808,682.572,339.959,682.572z"/>
	</g>
</g>
<g id="&#x30EC;&#x30A4;&#x30E4;&#x30FC;_1">
</g>
</svg>
