<?xml version="1.0" encoding="iso-8859-1"?>
<!-- Generator: Adobe Illustrator 24.3.0, SVG Export Plug-In . SVG Version: 6.00 Build 0)  -->
<svg version="1.1" xmlns="http://www.w3.org/2000/svg" xmlns:xlink="http://www.w3.org/1999/xlink" x="0px" y="0px"
	 viewBox="0 0 1000 1000" style="enable-background:new 0 0 1000 1000;" xml:space="preserve">
<g id="multiplicationSign">
	<g>
		<g>
			<path d="M632.09,419.73c-8.55,7.56-19.18,11.27-29.77,11.27c-12.45,0-24.85-5.14-33.74-15.21
				c-20.65-23.38-41.72-45.49-63.6-66.68c-7.13,12.56-14.11,25.91-20.94,40.3c-7.7,16.22-23.85,25.71-40.69,25.71
				c-6.47,0-13.03-1.4-19.27-4.36c-22.45-10.66-32.01-37.5-21.35-59.95c10.95-23.07,22.23-43.78,33.79-62.85
				c-20.73-17.1-42.37-33.76-65.17-50.23c-20.15-14.55-24.69-42.68-10.14-62.82c14.56-20.15,42.68-24.69,62.83-10.14
				c22.26,16.08,43.49,32.34,63.91,48.97c13.64-17.63,27.57-34.55,41.75-51.77l2.11-2.56c15.79-19.19,44.15-21.94,63.34-6.14
				c19.19,15.79,21.94,44.15,6.14,63.34l-2.11,2.57c-15.16,18.4-29.58,35.93-43.39,53.99c27.79,26.2,54.32,53.68,80.25,83.04
				C652.49,374.84,650.72,403.28,632.09,419.73z"/>
		</g>
	</g>
</g>
<g id="&#x30EC;&#x30A4;&#x30E4;&#x30FC;_1">
</g>
</svg>
