<?xml version="1.0" encoding="iso-8859-1"?>
<!-- Generator: Adobe Illustrator 24.3.0, SVG Export Plug-In . SVG Version: 6.00 Build 0)  -->
<svg version="1.1" xmlns="http://www.w3.org/2000/svg" xmlns:xlink="http://www.w3.org/1999/xlink" x="0px" y="0px"
	 viewBox="0 0 1000 1000" style="enable-background:new 0 0 1000 1000;" xml:space="preserve">
<g id="plusMinusSign">
	<g>
		<g>
			<path d="M686.46,373.41c0,24.85-20.15,45-45,45c-39.38,0-85.65,2.35-123.79,6.31c-63.85,6.61-80.77,14.92-82.6,15.9
				c-0.04,0.03-0.07,0.05-0.1,0.06c-7.58,4.95-16.12,7.32-24.56,7.32c-14.62,0-28.97-7.12-37.62-20.24
				c-13.67-20.76-7.93-48.67,12.83-62.34c12.29-8.1,36.14-19.48,102.17-27.86c-1.73-20.98-4.78-45.44-8.95-72.09
				c-41.1,7.52-78.03,16.97-105.92,26.37c-4.77,1.61-9.62,2.37-14.38,2.37c-18.79,0-36.31-11.85-42.64-30.64
				c-7.94-23.55,4.72-49.07,28.27-57.01c29.88-10.07,71.1-20.94,118.34-29.63c-3.64-17.3-7.59-34.89-11.8-52.52
				c-5.77-24.17,9.14-48.45,33.31-54.23c24.17-5.77,48.45,9.14,54.23,33.31c4.9,20.51,9.44,40.9,13.58,60.87
				c28.2-2.73,57.23-4.32,86.25-4.32c24.86,0,45,20.14,45,45c0,24.85-20.14,45-45,45c-23.11,0-46.69,1.18-70.05,3.26
				c4.33,28.02,7.52,53.96,9.41,76.76c21.83-1.07,43.74-1.65,64.02-1.65C666.31,328.41,686.46,348.55,686.46,373.41z"/>
		</g>
	</g>
</g>
<g id="&#x30EC;&#x30A4;&#x30E4;&#x30FC;_1">
</g>
</svg>
