<?xml version="1.0" encoding="iso-8859-1"?>
<!-- Generator: Adobe Illustrator 24.3.0, SVG Export Plug-In . SVG Version: 6.00 Build 0)  -->
<svg version="1.1" xmlns="http://www.w3.org/2000/svg" xmlns:xlink="http://www.w3.org/1999/xlink" x="0px" y="0px"
	 viewBox="0 0 1000 1000" style="enable-background:new 0 0 1000 1000;" xml:space="preserve">
<g id="registeredSign">
	<g>
		<g>
			<path d="M680.29,94.27c-30.1-20.95-66.24-37.63-107.18-49.67c-6.48-18.86-25.03-31.76-45.86-30.23
				c-25.53,1.87-49.7,5.07-72.29,9.56c-1.42-0.1-2.83-0.2-4.25-0.3c-10.74-0.72-20.85,2.39-28.99,8.15
				c-6.56,1.81-12.95,3.75-19.17,5.81c-39.56,13.09-73.57,31.57-101.1,54.93c-59.36,50.35-89.46,122.73-89.46,215.14
				c0,35.57,9.89,70.93,29.39,105.09c16.87,29.55,40.1,56.84,69.04,81.1C366.55,540.91,435.21,569,494.09,569
				c72.17,0,146.12-29.29,202.9-80.35c57.84-52.02,91.02-120.21,91.02-187.07C788.01,215.02,750.76,143.33,680.29,94.27z
				 M636.81,421.73C596.34,458.13,544.32,479,494.09,479c-28.61,0-64.4-12.54-97.24-33.26c19.85-2.06,36.6-17.25,39.79-37.89
				c1.25-8.06,2.28-15.99,3.12-23.78c45.02,11.69,77.5,30.49,84.48,37.93c8.85,9.43,20.81,14.19,32.81,14.19
				c11.04,0,22.11-4.04,30.79-12.2c18.12-17.01,19.02-45.49,2-63.61c-9.54-10.15-23.89-20.42-41.31-29.97
				c13.92-10.39,24.79-20.69,33.15-31.39c13.51-17.28,20.36-35.61,20.36-54.48c0-21.06-9.57-40.86-26.94-55.75
				c-33.48-28.71-96.23-39.26-167.86-28.21c-2.89,0.45-5.67,1.16-8.32,2.11c-7.7-2.77-16.25-3.48-24.84-1.59
				c-24.28,5.33-39.63,29.33-34.31,53.6c8.98,40.9,19.57,104,7.92,179.41c-0.58,3.76-0.68,7.49-0.33,11.12
				c-29.11-30.86-45.37-65.4-45.37-97.57c0-65.67,18.87-113.59,57.68-146.51c24.89-21.11,58.73-36.64,101.04-46.42
				c69.37,6.59,127.26,24.93,168.16,53.4c46.52,32.39,69.14,76.04,69.14,133.45C698.01,342.96,675.7,386.75,636.81,421.73z
				 M437.2,247.49c30.47-2.94,52.78,0.13,66.03,3.87c-4.15,3.69-10.04,8.31-18.35,13.79c-13.25,8.74-28.82,17.16-43.27,24.47
				C440.61,274.65,439.05,260.58,437.2,247.49z"/>
		</g>
	</g>
</g>
<g id="&#x30EC;&#x30A4;&#x30E4;&#x30FC;_1">
</g>
</svg>
