<?xml version="1.0" encoding="iso-8859-1"?>
<!-- Generator: Adobe Illustrator 24.3.0, SVG Export Plug-In . SVG Version: 6.00 Build 0)  -->
<svg version="1.1" xmlns="http://www.w3.org/2000/svg" xmlns:xlink="http://www.w3.org/1999/xlink" x="0px" y="0px"
	 viewBox="0 0 1000 1000" style="enable-background:new 0 0 1000 1000;" xml:space="preserve">
<g id="sectionSign">
	<g>
		<g>
			<path d="M657.75,495.46c-8.83-8.22-20.18-15.1-34.7-21.04c-8.52-3.48-17.7-6.49-27.36-9.24c4.43-6.68,8.52-13.74,12.23-21.16
				c14.55-29.07,22.56-62.09,22.54-92.98c0.01-21.19-8.77-59.59-67.59-78.75c-26.04-8.48-57.45-12.21-87.83-15.82
				c-18.13-2.16-35.25-4.19-49.61-7.03c-5.2-1.02-9.3-2.01-12.49-2.91c8.36-17.81,33.78-33.16,66.49-38.83
				c24.48-4.24,40.9-27.53,36.65-52.02c-4.24-24.49-27.53-40.9-52.02-36.66c-38.29,6.64-72.02,21.78-97.54,43.79
				c-30,25.87-46.52,60.07-46.52,96.31c0,19.78,8.33,55.54,64.15,72.74c11.24,3.46,23.75,6.06,36.8,8.19
				c-22.95,30.25-35.54,64.89-35.54,98.02c0,23.97,10.76,57.25,62.06,79.63c24.75,10.79,54.51,17.6,83.3,24.18
				c16.62,3.79,32.33,7.38,45.35,11.36c2.88,0.88,5.38,1.71,7.55,2.47c-17.17,13.02-58.88,19.45-99.15,15.02
				c-24.69-2.73-46.94,15.09-49.66,39.8c-2.72,24.7,15.1,46.93,39.81,49.65c11.71,1.29,23.69,1.93,35.6,1.93
				c17.78,0,35.37-1.42,51.54-4.25c35.34-6.17,63.57-18.53,83.89-36.74c22.44-20.1,34.3-46.49,34.3-76.3
				C680,526.36,672.1,508.83,657.75,495.46z M531.23,364.62c3.07-0.84,5.98-1.98,8.7-3.38c-2.95,28.92-18.07,63.02-43.82,78.74
				c-10.7-3.56-16.86-6.57-20.22-8.56C479.95,402.89,508.63,370.8,531.23,364.62z"/>
		</g>
	</g>
</g>
<g id="&#x30EC;&#x30A4;&#x30E4;&#x30FC;_1">
</g>
</svg>
