<?xml version="1.0" encoding="iso-8859-1"?>
<!-- Generator: Adobe Illustrator 24.3.0, SVG Export Plug-In . SVG Version: 6.00 Build 0)  -->
<svg version="1.1" xmlns="http://www.w3.org/2000/svg" xmlns:xlink="http://www.w3.org/1999/xlink" x="0px" y="0px"
	 viewBox="0 0 1000 1000" style="enable-background:new 0 0 1000 1000;" xml:space="preserve">
<g id="superscriptOne">
	<g>
		<path d="M546.213,266.01c-20.347,0.001-38.793-13.893-43.729-34.549c-6.737-28.183-9.851-53.951-9.396-84.315
			c-5.907,3.406-11.52,6.668-16.664,9.669c-21.467,12.522-49.02,5.272-61.544-16.196c-12.522-21.467-5.271-49.022,16.196-61.544
			c28.849-16.829,65.699-37.975,94.828-52.239c14.994-7.344,32.823-5.781,46.312,4.06c13.488,9.84,20.421,26.339,18.007,42.86
			c-10.613,72.64-8.522,101.984-0.205,136.783c5.778,24.172-9.134,48.451-33.306,54.229
			C553.195,265.607,549.676,266.01,546.213,266.01z"/>
	</g>
</g>
<g id="&#x30EC;&#x30A4;&#x30E4;&#x30FC;_1">
</g>
</svg>
