<?xml version="1.0" encoding="iso-8859-1"?>
<!-- Generator: Adobe Illustrator 24.3.0, SVG Export Plug-In . SVG Version: 6.00 Build 0)  -->
<svg version="1.1" xmlns="http://www.w3.org/2000/svg" xmlns:xlink="http://www.w3.org/1999/xlink" x="0px" y="0px"
	 viewBox="0 0 1000 1000" style="enable-background:new 0 0 1000 1000;" xml:space="preserve">
<g id="superscriptThree">
	<g>
		<path d="M522.767,280.988c-21.703,0-45.485-3.406-69.887-6.9c-2.874-0.412-5.747-0.823-8.61-1.228
			c-24.608-3.475-41.74-26.242-38.265-50.851c3.475-24.609,26.241-41.744,50.851-38.265c2.921,0.412,5.851,0.832,8.783,1.252
			c14.847,2.126,28.966,4.148,41.542,5.224c-8.963-7.683-18.686-12.862-25.249-15.264c-16.396-6-27.841-20.944-29.363-38.337
			c-1.011-11.555,2.48-22.807,9.366-31.625c-7.861,0.062-15.85,0.503-23.108,1.424c-24.654,3.124-47.177-14.326-50.304-38.981
			s14.326-47.177,38.981-50.304c18.974-2.406,42.448-2.816,62.793-1.1c32.366,2.732,54.436,10.17,69.458,23.407
			c12.873,11.342,19.962,26.667,19.963,43.149c0,0.682-0.016,1.365-0.047,2.046c-0.59,12.969-2.282,27.488-9.113,41.529
			c1.604,1.478,3.173,2.981,4.7,4.505c23.928,23.856,36.575,50.933,36.575,78.304c0,20.71-8.18,39.208-23.031,52.084
			C571.347,276.191,548.52,280.988,522.767,280.988z"/>
	</g>
</g>
<g id="&#x30EC;&#x30A4;&#x30E4;&#x30FC;_1">
</g>
</svg>
