<?xml version="1.0" encoding="iso-8859-1"?>
<!-- Generator: Adobe Illustrator 24.3.0, SVG Export Plug-In . SVG Version: 6.00 Build 0)  -->
<svg version="1.1" xmlns="http://www.w3.org/2000/svg" xmlns:xlink="http://www.w3.org/1999/xlink" x="0px" y="0px"
	 viewBox="0 0 1000 1000" style="enable-background:new 0 0 1000 1000;" xml:space="preserve">
<g id="vulgarFractionOneHalf">
	<g>
		<g>
			<path d="M355.223,269.898c-0.69,0-1.38-0.016-2.078-0.047c-24.827-1.128-44.039-22.169-42.911-46.997
				c1.3-28.604-0.318-42.554-6.183-53.306c-11.901-21.818-3.861-49.153,17.957-61.054c21.819-11.9,49.152-3.861,61.054,17.957
				c18.438,33.802,18.483,69.594,17.08,100.489C399.045,251.07,379.134,269.898,355.223,269.898z"/>
		</g>
		<g>
			<path d="M384.23,475.655c-6.886,0-13.874-1.585-20.428-4.932c-22.134-11.302-30.916-38.407-19.614-60.542
				c47.896-93.803,83.918-185.875,107.064-273.655c6.336-24.032,30.956-38.376,54.986-32.039
				c24.031,6.337,38.376,30.955,32.039,54.986c-24.784,93.991-63.117,192.112-113.934,291.636
				C416.389,466.69,400.601,475.655,384.23,475.655z"/>
		</g>
		<g>
			<path d="M620.024,538.573c-34.546,0-60.073-11.617-71.736-18.186c-12.946-7.292-21.459-20.503-22.748-35.306
				c-3.078-35.338,9.265-67.412,29.581-99.178c-4.434-1.115-8.996-2.253-13.731-3.39c-24.167-5.799-39.057-30.091-33.258-54.258
				c5.799-24.166,30.092-39.059,54.258-33.257c6.366,1.528,12.224,3.003,17.889,4.431c22.323,5.624,38.45,9.688,49.279,7.498
				c18.784-3.799,37.903,4.709,47.654,21.198c9.753,16.49,7.996,37.347-4.377,51.973c-19.946,23.577-39.505,47.668-49.954,68.312
				c5.935-0.239,12.563-1.28,19.747-3.598c23.655-7.627,49.013,5.359,56.643,29.012s-5.359,49.012-29.013,56.642
				C652.054,536.339,635.171,538.572,620.024,538.573z"/>
		</g>
	</g>
</g>
<g id="&#x30EC;&#x30A4;&#x30E4;&#x30FC;_1">
</g>
</svg>
