<?xml version="1.0" encoding="iso-8859-1"?>
<!-- Generator: Adobe Illustrator 24.3.0, SVG Export Plug-In . SVG Version: 6.00 Build 0)  -->
<svg version="1.1" xmlns="http://www.w3.org/2000/svg" xmlns:xlink="http://www.w3.org/1999/xlink" x="0px" y="0px"
	 viewBox="0 0 1000 1000" style="enable-background:new 0 0 1000 1000;" xml:space="preserve">
<g id="vulgarFractionThreeQuarters">
	<g>
		<g>
			<path d="M341.203,341.902c-17.646,0-36.702-1.316-55.49-3.883c-24.624-3.365-41.858-26.054-38.493-50.678
				c3.364-24.625,26.051-41.863,50.678-38.493c14.276,1.951,27.218,2.833,38.429,3.011c-8.703-3.833-19.058-7.419-31.069-10.161
				c-20.25-4.623-34.706-22.505-34.981-43.275c-0.12-9.063,2.474-17.647,7.106-24.875c-2.277,0.141-4.619,0.313-7.02,0.519
				c-24.763,2.113-46.551-16.245-48.667-41.007c-2.115-24.762,16.245-46.551,41.007-48.667c25.308-2.161,49.322-1.79,69.447,1.076
				c26.021,3.705,45.008,11.327,58.049,23.301c12.132,11.14,18.813,25.909,18.813,41.587c0,6.373,0,20.435-5.517,35.622
				c3.108,1.999,6.112,4.056,9.004,6.168c38.783,28.333,46.924,57.629,46.924,77.216c0,18.058-7.771,34.784-21.881,47.098
				c-16.146,14.089-40.206,22.148-73.555,24.637C356.779,341.636,349.133,341.902,341.203,341.902z"/>
		</g>
		<g>
			<path d="M427.81,537.012c-4.36,0-8.792-0.638-13.178-1.979c-23.766-7.27-37.139-32.429-29.869-56.195
				c13.085-42.779,29.642-80.48,47.171-120.396c25.964-59.124,52.813-120.26,72.292-207.224
				c5.433-24.252,29.498-39.51,53.748-34.075c24.252,5.432,39.509,29.496,34.076,53.748
				c-21.389,95.484-51.313,163.623-77.713,223.74c-16.439,37.434-31.967,72.792-43.511,110.532
				C464.898,524.542,447.073,537.012,427.81,537.012z"/>
		</g>
		<g>
			<path d="M733.41,537.006c-22.11,0-41.395-16.304-44.517-38.825c-0.745-5.374-1.443-10.714-2.084-16.045
				c-12.663,1.493-23.746,1.602-30.261,1.473c-24.172-0.476-57.954-5-81.624-23.853c-7.414-5.905-12.773-14-15.315-23.131
				c-7.025-25.236-2.648-44.135,1.985-64.144c2.656-11.466,5.961-25.736,8.629-46.637c3.147-24.652,25.688-42.087,50.336-38.939
				c24.653,3.147,42.087,25.684,38.939,50.336c-3.242,25.396-7.277,42.822-10.225,55.546c-0.025,0.108-0.051,0.217-0.075,0.325
				c3.342,0.319,7.073,0.521,11.166,0.539c8.557,0.045,15.862-0.739,21.323-1.689c0.646-3.843,1.26-8.396,1.83-13.154
				c1.019-15.845,2.772-32.67,5.413-50.906c3.528-24.374,25.992-41.384,50.412-38.167c24.416,3.216,41.712,25.462,38.81,49.918
				c-1.034,8.713-1.898,17.468-2.734,25.934c-0.729,7.382-1.441,14.597-2.242,21.541c-2.113,35.978,0.317,65.906,4.863,98.692
				c3.414,24.617-13.775,47.341-38.393,50.754C737.551,536.864,735.468,537.006,733.41,537.006z"/>
		</g>
	</g>
</g>
<g id="&#x30EC;&#x30A4;&#x30E4;&#x30FC;_1">
</g>
</svg>
