<?xml version="1.0" encoding="iso-8859-1"?>
<!-- Generator: Adobe Illustrator 24.3.0, SVG Export Plug-In . SVG Version: 6.00 Build 0)  -->
<svg version="1.1" xmlns="http://www.w3.org/2000/svg" xmlns:xlink="http://www.w3.org/1999/xlink" x="0px" y="0px"
	 viewBox="0 0 1000 1000" style="enable-background:new 0 0 1000 1000;" xml:space="preserve">
<g id="vulgarFractionOneQuarter">
	<g>
		<g>
			<path d="M302.328,276.402c-16.947,0-33.177-9.62-40.813-25.991c-15.771-33.818-27.175-67.109-31.572-119.66
				c-2.072-24.766,16.326-46.523,41.092-48.595c24.773-2.08,46.523,16.325,48.595,41.092c3.312,39.583,11.106,62.652,23.452,89.124
				c10.504,22.524,0.76,49.298-21.764,59.803C315.166,275.043,308.696,276.402,302.328,276.402z"/>
		</g>
		<g>
			<path d="M366.91,480.75c-7.427,0-14.955-1.841-21.899-5.72c-21.699-12.117-29.466-39.531-17.349-61.229
				c48.512-86.87,76.139-161.119,86.944-233.668c3.661-24.582,26.559-41.537,51.138-37.88c24.582,3.661,41.542,26.557,37.88,51.138
				c-12.458,83.646-43.402,167.626-97.385,264.292C398,472.436,382.687,480.75,366.91,480.75z"/>
		</g>
		<g>
			<path d="M725.246,535.01c-16.621,0.001-32.602-9.245-40.424-25.171c-3.408-6.938-6.344-13.825-8.871-20.728
				c-9.843,2.085-21.749,3.635-36.163,4.221c-28.58,1.161-58.961-1.886-81.271-8.155c-15.708-4.414-27.796-16.984-31.593-32.853
				c-8.876-37.106-8.876-69.721-8.876-114.861c0-24.853,20.147-45,45-45s45,20.147,45,45c0,27.124,0,47.28,1.742,65.396
				c6.177,0.496,12.608,0.746,18.976,0.714c12.04-0.063,20.868-1.078,26.576-2.108c2.273-9.058,5.373-27.865,6.238-64.643
				c0.014-0.734,0.027-1.476,0.042-2.214l0.104-5.62c0.454-24.558,20.507-44.167,44.978-44.167c0.25,0,0.497,0.002,0.748,0.006
				c24.811,0.405,44.611,20.817,44.262,45.628c-0.042,3.011-0.097,5.966-0.164,8.863c-1.224,65.578-1.604,98.962,14.054,130.843
				c10.957,22.308,1.755,49.273-20.552,60.229C738.67,533.525,731.906,535.01,725.246,535.01z M652.867,408.892
				C652.867,408.892,652.867,408.893,652.867,408.892C652.867,408.893,652.867,408.892,652.867,408.892z"/>
		</g>
	</g>
</g>
<g id="&#x30EC;&#x30A4;&#x30E4;&#x30FC;_1">
</g>
</svg>
